<?xml version="1.0" encoding="utf-8"?>
<!-- Generator: Adobe Illustrator 21.0.0, SVG Export Plug-In . SVG Version: 6.00 Build 0)  -->
<svg version="1.1" id="Layer_1" xmlns="http://www.w3.org/2000/svg" xmlns:xlink="http://www.w3.org/1999/xlink" x="0px" y="0px"
	 viewBox="0 0 16 16" style="enable-background:new 0 0 16 16;" xml:space="preserve">
<style type="text/css">
	.st0{fill:#FFFFFF;}
</style>
<g>
	<path class="st0" d="M9,7.8c0.1,0.5-0.2,1-0.7,1.2c-0.5,0.1-1-0.2-1.1-0.7C7,7.7,7.4,7.2,7.9,7.1C8.4,6.9,8.9,7.3,9,7.8"/>
	<path class="st0" d="M11,15.5c-0.7,0-1.6-0.5-2.5-1.3c-1.2-1.1-2.3-2.8-3.3-4.7C4.3,7.6,3.7,5.6,3.5,4C3.3,2.3,3.6,1.1,4.4,0.7
		c0.7-0.4,1.7-0.1,2.7,0.8c0.1,0.1,0.2,0.3,0,0.5C7.1,2.1,6.9,2.1,6.8,2c-0.9-0.7-1.6-1-2-0.7C4.2,1.5,4,2.5,4.1,3.9
		c0.2,1.5,0.8,3.4,1.7,5.3c0.9,1.8,2,3.4,3.1,4.5c1,1,1.9,1.4,2.4,1.1c1-0.5,0.9-3.7-0.9-7.6c-0.1-0.2,0-0.4,0.1-0.4
		c0.2-0.1,0.4,0,0.4,0.2c1.9,4,2.2,7.7,0.7,8.5C11.5,15.4,11.3,15.5,11,15.5z"/>
	<path class="st0" d="M13.9,10.4c-0.1,0-0.3-0.1-0.3-0.2c-0.1-0.2,0-0.4,0.2-0.4c1-0.4,1.6-0.9,1.6-1.4c0.1-1.5-3.7-2.8-7.2-3
		C4.7,5.2,0.7,6,0.6,7.5c0,0.5,0.5,1.1,1.4,1.6c0.2,0.1,0.2,0.3,0.1,0.4C2.1,9.7,1.9,9.8,1.8,9.7C0.6,9.1,0,8.3,0,7.5
		c0.1-1.8,3.6-3.1,8.2-2.8c4.6,0.2,7.9,1.8,7.8,3.7c0,0.8-0.7,1.5-2,2C14,10.4,13.9,10.4,13.9,10.4z"/>
	<path class="st0" d="M4.4,15.1c-0.3,0-0.6-0.1-0.8-0.2c-1.5-1-0.8-4.7,1.7-8.7C6.4,4.4,7.7,2.8,9,1.9c1.4-1,2.5-1.3,3.3-0.8
		c0.7,0.5,0.9,1.5,0.7,3.1c0,0.2-0.2,0.3-0.4,0.3c-0.2,0-0.3-0.2-0.3-0.4c0.2-1.2,0.1-2.1-0.4-2.4c-0.5-0.3-1.4,0-2.5,0.8
		C8.2,3.3,6.9,4.8,5.8,6.5c-1.9,3-3.1,6.9-1.9,7.8c0.5,0.3,1.4,0.1,2.4-0.7c0.1-0.1,0.3-0.1,0.5,0.1c0.1,0.1,0.1,0.4-0.1,0.5
		C5.8,14.8,5,15.1,4.4,15.1z"/>
</g>
</svg>
