<?xml version="1.0" encoding="utf-8"?>
<!-- Generator: Adobe Illustrator 21.0.0, SVG Export Plug-In . SVG Version: 6.00 Build 0)  -->
<svg version="1.1" id="codepixel.atom" xmlns="http://www.w3.org/2000/svg" xmlns:xlink="http://www.w3.org/1999/xlink" x="0px"
	 y="0px" viewBox="0 0 1024 1024" style="enable-background:new 0 0 1024 1024;" xml:space="preserve">
<style type="text/css">
	.st0{fill:url(#SVGID_1_);}
	.st1{fill:url(#SVGID_2_);}
	.st2{fill:url(#SVGID_3_);}
	.st3{fill:none;}
</style>
<g>
	
		<linearGradient id="SVGID_1_" gradientUnits="userSpaceOnUse" x1="140.8591" y1="870.8472" x2="860.1606" y2="151.5456" gradientTransform="matrix(1 0 0 -1 0 1026)">
		<stop  offset="0" style="stop-color:#A6E22C"/>
		<stop  offset="1" style="stop-color:#A6E22C;stop-opacity:0"/>
	</linearGradient>
	<path class="st0" d="M443.8,111.3c-16-10.4-32-20.8-48.8-29.6c-16.8-8.8-34.4-15.2-52-18.4c-17.6-3.2-35.2-2.4-49.6,5.6
		c-13.6,7.2-24,20.8-29.6,36c-6.4,15.2-9.6,32.8-10.4,50.4c-0.8,17.6-0.8,36,0.8,54.4c1.6,18.4,4.8,36.8,8,54.4
		c3.2,18.4,8,36,12.8,54.4c19.2,72,47.2,141.6,79.2,208.9c16,33.6,33.6,67.2,52.8,99.2c18.4,32,38.4,64,60,94.4
		c21.6,30.4,44,60,68,87.2c24,28,50.4,53.6,78.4,75.2c13.6,11.2,28.8,20.8,43.2,28.8c14.4,8,29.6,12.8,44,14.4
		c13.6,1.6,24.8-1.6,34.4-8.8c9.6-7.2,17.6-20,22.4-36c10.4-31.2,12-68,10.4-104.8s-7.2-73.6-15.2-110.4
		c-14.4-73.6-38.4-146.4-65.6-218.5c39.2,66.4,71.2,136.8,95.2,211.3c11.2,37.6,20.8,75.2,25.6,114.4c2.4,20,4,40,4,60
		c0,20.8-2.4,41.6-8,62.4c-5.6,20.8-16,43.2-36,60.8c-19.2,17.6-48,25.6-72,24c-24.8-1.6-46.4-8.8-65.6-18.4
		c-19.2-9.6-36.8-20.8-53.6-32.8c-65.6-49.6-116-110.4-161.6-174.4c-44.8-62.4-82.4-131.2-114.4-202.5S243,407.4,227,330.6
		c-8-38.4-12.8-77.6-13.6-117.6c0-20,0.8-40,4-60c3.2-20,8.8-40.8,18.4-60c9.6-19.2,26.4-36.8,47.2-44.8c21.6-8,44-6.4,63.2,0
		C385.4,60.1,415.8,84.9,443.8,111.3z"/>
	<linearGradient id="SVGID_2_" gradientUnits="userSpaceOnUse" x1="140.462" y1="848.6683" x2="853.9373" y2="135.193">
		<stop  offset="0" style="stop-color:#A6E22C;stop-opacity:0"/>
		<stop  offset="0.6977" style="stop-color:#A6E22C"/>
	</linearGradient>
	<path class="st1" d="M330.2,915.5c29.6-8,57.6-21.6,84.8-36.8c-12,10.4-24,20-37.6,29.6c-13.6,8.8-27.2,16.8-41.6,24
		c-15.2,7.2-31.2,12-48,13.6c-8.8,0.8-17.6,0.8-26.4,0c-8.8-1.6-18.4-4-27.2-8.8c-17.6-8.8-30.4-24.8-38.4-40.8
		c-8-16.8-12.8-33.6-15.2-51.2c-4.8-35.2-1.6-68,3.2-100.8c10.4-64.8,31.2-126.4,56.8-185.6c10.3-23.7,21.6-46.9,33.5-69.6
		c8.3,21.6,17.1,43,26.5,64c1.3,2.9,2.7,5.7,4,8.6c-3.6,7.2-7,14.5-10.4,21.8c-26.4,55.2-48.8,112-62.4,170.4
		c-3.2,14.4-6.4,28.8-8,44c-1.6,14.4-2.4,28.8-2.4,43.2c0.8,28,8.8,56,28.8,69.6c4.8,4,10.4,6.4,16.8,8c6.4,1.6,12.8,3.2,20,3.2
		C301.4,922.7,315.8,919.5,330.2,915.5z M823.1,117.7c-5.6-16-16.8-32.8-32-44c-16-12-35.2-16.8-53.6-16.8c-4.8,0-8.8,0.8-13.6,0.8
		c-4.8,0.8-9.6,0.8-13.6,1.6l-12.8,2.4l-6.4,1.6l-6.4,1.6c-16.8,4.8-32,12-47.2,19.2c-7.2,4-14.4,8-21.6,12l-20.8,12.8
		c-54.4,36-102.4,80-145.6,128c-44,48-82.4,99.2-117.6,152.8c-7.3,11.5-14.6,23.4-21.9,35.4c9.3,24,19.3,47.7,29.9,71.1
		c14.2-24.6,29.2-49.1,44.8-72.9l25.6-38.4c9.6-12.8,18.4-25.6,27.2-37.6c18.4-24.8,36.8-48.8,56.8-72c19.2-23.2,40-45.6,61.6-67.2
		s44-41.6,68-60c24-18.4,48.8-34.4,75.2-45.6l4.8-2.4l5.6-0.8l9.6-3.2c3.2-1.6,6.4-1.6,9.6-2.4c3.2-0.8,6.4-1.6,9.6-1.6
		c12.8-1.6,25.6,0.8,36,6.4c11.2,5.6,20,15.2,26.4,28c6.4,12,10.4,26.4,12.8,41.6c4.8,29.6,4,61.6,1.6,92.8
		c4.8-15.2,8.8-30.4,12-45.6c2.4-15.2,4-32,4-48C831.1,151.3,828.7,134.5,823.1,117.7z"/>
	<linearGradient id="SVGID_3_" gradientUnits="userSpaceOnUse" x1="-17.4046" y1="488.2844" x2="1040.6085" y2="488.2844">
		<stop  offset="0" style="stop-color:#A6E22C;stop-opacity:0"/>
		<stop  offset="1" style="stop-color:#A6E22C"/>
	</linearGradient>
	<path class="st2" d="M1024,544.2v7.2c0,4.8-0.8,8.8-1.6,13.6c-2.4,8.8-5.6,17.6-10.4,24.8c-8.8,15.2-21.6,26.4-34.4,36
		c-26.4,17.6-56,28.8-85.6,36.8c13.6-7.2,27.2-14.4,39.2-23.2c12.8-8,24.8-17.6,34.4-28c10.4-10.4,19.2-21.6,24-33.6
		c2.4-6.4,4-12,4.8-18.4c0-3.2,0.8-6.4,0-8.8l-0.8-4.8c0-1.6-0.8-3.2-0.8-4.8c-5.6-23.2-26.4-44-48.8-59.2
		c-23.2-16-49.6-28.8-76.8-39.2c-54.4-21.6-112-35.2-170.4-46.4c-58.4-10.4-117.6-16.8-177.6-20h-44c-15.2-0.8-29.6-0.8-44.8-0.8
		c-4.4,0-8.7,0.1-13.1,0.2c7-9.6,13.6-19.1,20.3-28.2c8.4-11.3,16.8-22.5,25.4-33.4c4.4,0.2,8.7,0.4,13,0.6l46.4,0.8
		c62.4,3.2,124,11.2,185.6,24c30.4,6.4,60.8,14.4,91.2,24c29.6,9.6,59.2,20.8,88,35.2c28.8,13.6,56.8,30.4,81.6,52
		c12.8,10.4,24.8,22.4,34.4,36.8s17.6,31.2,20,49.6C1023.2,539.4,1024,541.8,1024,544.2z M339.2,378.7
		c14.2-21.2,28.9-42.1,44.4-62.4c-15.9,1-31.8,2.2-47.7,3.9c-19.4,2-38.8,4.7-58.1,8.1c5.1,18.3,10.8,36.5,16.9,54.5
		C309.5,381.1,324.3,379.8,339.2,378.7z M86.9,437.8c24.8-13.6,52-23.2,80-31.2c24.3-6.6,49.3-11.9,74.5-16.2
		c-4.7-17.1-8.9-34.4-12.7-51.7c-25.9,6-52,13.6-77,22.4c-29.6,10.4-59.2,24-86.4,42.4c-13.6,8.8-27.2,20-38.4,32.8
		C15.7,449.8,5.3,465,1.3,483.4c-1.6,8.8-1.6,18.4-0.8,27.2c0.8,8.8,3.2,17.6,7.2,25.6c7.2,16,18.4,28.8,30.4,39.2
		c24,20.8,52,35.2,80.8,46.4c-12.8-8.8-25.6-17.6-36.8-27.2c-11.2-9.6-22.4-20-31.2-31.2c-8.8-11.2-16.8-23.2-20-36
		c-1.6-5.6-2.4-12-2.4-18.4c0-6.4,0.8-12,3.2-17.6C39.7,469,62.1,450.6,86.9,437.8z"/>
	<rect class="st3" width="1024" height="1024"/>
</g>
</svg>
