<?xml version="1.0" encoding="utf-8"?>
<!-- Generator: Adobe Illustrator 21.0.0, SVG Export Plug-In . SVG Version: 6.00 Build 0)  -->
<svg version="1.1" id="Layer_1" xmlns="http://www.w3.org/2000/svg" xmlns:xlink="http://www.w3.org/1999/xlink" x="0px" y="0px"
	 viewBox="0 0 32 32" style="enable-background:new 0 0 32 32;" xml:space="preserve">
<style type="text/css">
	.st0{display:none;}
	.st1{display:inline;}
	.st2{fill:#00FE6D;}
	.st3{fill:#F9EC32;}
	.st4{fill:#EF4136;}
	.st5{display:inline;opacity:0.2;fill:url(#screen_1_);enable-background:new    ;}
	.st6{display:inline;opacity:0.5;fill:#FFFFFF;enable-background:new    ;}
	.st7{display:none;fill:none;}
	.st8{opacity:7.843138e-03;fill:none;stroke:#000000;stroke-width:2.133300e-11;}
	.st9{fill:url(#arrow_x5F_L_1_);}
	.st10{fill:url(#arrow_x5F_R_1_);}
	.st11{fill:none;}
</style>
<g id="terminal_1_" class="st0">
	<g id="buttons" class="st1">
		<rect x="12" y="10" class="st2" width="1" height="1"/>
		<rect x="10" y="10" class="st3" width="1" height="1"/>
		<rect x="8" y="10" class="st4" width="1" height="1"/>
	</g>
	
		<linearGradient id="screen_1_" gradientUnits="userSpaceOnUse" x1="16" y1="10" x2="16" y2="20" gradientTransform="matrix(1 0 0 -1 0 32)">
		<stop  offset="0" style="stop-color:#FFFFFF;stop-opacity:0.4"/>
		<stop  offset="1" style="stop-color:#FFFFFF"/>
	</linearGradient>
	<rect id="screen_2_" x="8" y="12" class="st5" width="16" height="10"/>
	<path id="frame" class="st6" d="M7,9v14h18V9H7z M12,10h1v1h-1V10z M10,10h1v1h-1V10z M8,10h1v1H8V10z M24,22H8V12h16V22z M24,11
		H14v-1h10V11z"/>
</g>
<rect id="viewBox_7_" class="st7" width="32" height="32"/>
<rect id="viewBox_10_" class="st8" width="32" height="32"/>
<linearGradient id="arrow_x5F_L_1_" gradientUnits="userSpaceOnUse" x1="-1.4657" y1="19.8507" x2="17.5258" y2="30.8155">
	<stop  offset="5.000000e-02" style="stop-color:#FFFFFF;stop-opacity:0"/>
	<stop  offset="1" style="stop-color:#FFFFFF"/>
</linearGradient>
<path id="arrow_x5F_L_7_" class="st9" d="M10,28.6l1.8-1.8l5.1,5.1L16,32C7.6,32,0.7,25.5,0,17.3h2C2.5,22.3,5.6,26.6,10,28.6
	L10,28.6z"/>
<linearGradient id="arrow_x5F_R_1_" gradientUnits="userSpaceOnUse" x1="14.4916" y1="1.1544" x2="33.4559" y2="12.1035">
	<stop  offset="0" style="stop-color:#FFFFFF"/>
	<stop  offset="0.95" style="stop-color:#FFFFFF;stop-opacity:0"/>
</linearGradient>
<path id="arrow_x5F_R_7_" class="st10" d="M16,0c8.4,0,15.3,6.4,16,14.6h-2c-0.4-5-3.6-9.2-8-11.3l-1.8,1.8l-5.1-5.1L16,0z"/>
<rect id="viewBox_12_" class="st11" width="32" height="32"/>
</svg>
