<?xml version="1.0" encoding="utf-8"?>

<svg version="1.1" xmlns="http://www.w3.org/2000/svg" xmlns:xlink="http://www.w3.org/1999/xlink" x="0px" y="0px" viewBox="0 0 1024 1024" enable-background="new 0 0 1024 1024" xml:space="preserve">

    <path fill-rule="evenodd" fill="rgb(47, 108, 72)" d="M768.000,768.000 L1024.000,768.000 L1024.000,1024.000 L768.000,1024.000 L768.000,768.000 Z"/>

    <path fill-rule="evenodd" fill="rgb(6, 63, 57)" d="M512.000,768.000 L768.000,768.000 L768.000,1024.000 L512.000,1024.000 L512.000,768.000 Z"/>

    <path fill-rule="evenodd" fill="rgb(8, 91, 83)" d="M256.000,768.000 L512.000,768.000 L512.000,1024.000 L256.000,1024.000 L256.000,768.000 Z"/>

    <path fill-rule="evenodd" fill="rgb(236, 232, 160)" d="M-0.000,768.000 L256.000,768.000 L256.000,1024.000 L-0.000,1024.000 L-0.000,768.000 Z"/>

    <path fill-rule="evenodd" fill="rgb(5, 63, 60)" d="M768.000,512.000 L1024.000,512.000 L1024.000,768.000 L768.000,768.000 L768.000,512.000 Z"/>

    <path fill-rule="evenodd" fill="rgb(8, 91, 83)" d="M512.000,512.000 L768.000,512.000 L768.000,768.000 L512.000,768.000 L512.000,512.000 Z"/>

    <path fill-rule="evenodd" fill="rgb(34, 120, 110)" d="M256.000,512.000 L512.000,512.000 L512.000,768.000 L256.000,768.000 L256.000,512.000 Z"/>

    <path fill-rule="evenodd" fill="rgb(215, 211, 146)" d="M-0.000,512.000 L256.000,512.000 L256.000,768.000 L-0.000,768.000 L-0.000,512.000 Z"/>

    <path fill-rule="evenodd" fill="rgb(50, 125, 104)" d="M768.000,256.000 L1024.000,256.000 L1024.000,512.000 L768.000,512.000 L768.000,256.000 Z"/>

    <path fill-rule="evenodd" fill="rgb(10, 103, 81)" d="M512.000,256.000 L768.000,256.000 L768.000,512.000 L512.000,512.000 L512.000,256.000 Z"/>

    <path fill-rule="evenodd" fill="rgb(6, 68, 62)" d="M256.000,256.000 L512.000,256.000 L512.000,512.000 L256.000,512.000 L256.000,256.000 Z"/>

    <path fill-rule="evenodd" fill="rgb(188, 185, 128)" d="M-0.000,256.000 L256.000,256.000 L256.000,512.000 L-0.000,512.000 L-0.000,256.000 Z"/>

    <path fill-rule="evenodd" fill="rgb(6, 68, 62)" d="M768.000,-0.000 L1024.000,-0.000 L1024.000,256.000 L768.000,256.000 L768.000,-0.000 Z"/>

    <path fill-rule="evenodd" fill="rgb(7, 80, 73)" d="M512.000,-0.000 L768.000,-0.000 L768.000,256.000 L512.000,256.000 L512.000,-0.000 Z"/>

    <path fill-rule="evenodd" fill="rgb(41, 92, 80)" d="M256.000,-0.000 L512.000,-0.000 L512.000,256.000 L256.000,256.000 L256.000,-0.000 Z"/>

    <path fill-rule="evenodd" fill="rgb(158, 155, 107)" d="M-0.000,-0.000 L256.000,-0.000 L256.000,256.000 L-0.000,256.000 L-0.000,-0.000 Z"/>

</svg>
