<?xml version="1.0" encoding="utf-8"?>
<!-- Generator: Adobe Illustrator 21.0.0, SVG Export Plug-In . SVG Version: 6.00 Build 0)  -->
<svg version="1.1" id="Layer_1" xmlns="http://www.w3.org/2000/svg" xmlns:xlink="http://www.w3.org/1999/xlink" x="0px" y="0px"
	 viewBox="0 0 512 512" style="enable-background:new 0 0 512 512;" xml:space="preserve">
<style type="text/css">
	.st0{fill:#FFFFFF;}
</style>
<g>
	<path class="st0" d="M406.4,105.6c-0.2-0.2-0.4-0.3-0.5-0.4L305.6,234.9c0.9,0.7,1.8,1.5,2.7,2.2c4.8,4.2,9.3,8.6,13.1,12.9
		l128.3-105.1c-0.3-0.4-0.5-0.6-0.8-1c-0.6-0.7-1.3-1.3-2-2.1c-1.3-1.4-2.6-2.8-4-4.1c-1.3-1.3-2.7-2.8-4-4.2
		c-1.4-1.3-2.9-2.7-4.3-4c-5.7-5.6-11.9-10.8-18.3-16.2C413.1,110.8,409.8,108.2,406.4,105.6"/>
	<path class="st0" d="M223.4,204.4c5.7,0.1,11.4,0.5,16.9,1.3c1.6,0.3,3.2,0.5,4.8,0.8l31.8-153.8c-4.8-0.6-9.7-1.3-14.6-1.6
		c-14-1.3-28.3-1.3-42.7-0.4L223.4,204.4z"/>
	<path class="st0" d="M252.8,208.3c4.7,1.2,9.3,2.6,13.7,4.2c2.4,0.9,4.8,1.8,7.1,2.8l67.2-145.8c-6.4-2.5-12.9-4.8-19.7-6.9
		c-11.7-3.6-23.8-6.5-36.3-8.5L252.8,208.3z"/>
	<path class="st0" d="M280.7,218.6c3,1.5,5.9,3.1,8.7,4.8c0.9,0.5,1.7,1.1,2.6,1.6c0.8,0.5,1.7,1,2.5,1.6c1.6,1.2,3.2,2.2,4.8,3.4
		c0,0,0,0,0.1,0l100-129.4c-1.2-0.8-2.3-1.6-3.5-2.5c-3.6-2.4-7.5-4.7-11.1-7.1c-1.9-1.2-3.9-2.2-5.8-3.4c-2-1.1-4-2.2-5.9-3.3
		c-8-4.3-16.3-8.4-25-11.9L280.7,218.6z"/>
	<path class="st0" d="M259.5,311.8v0.2v0.4c-0.1,1.8-0.3,3.6-0.4,5.3l47.4-3.8c-0.6-3.6-1.3-7.1-2.2-10.4l-0.2-0.6l-0.1-0.3
		c-0.1-0.5-0.1-0.4-0.1-0.5l-0.4-1.1c-0.2-0.7-0.4-1.5-0.6-2.2c-0.1-0.4-0.2-0.7-0.4-1.2l-0.4-1.3c-0.3-0.8-0.5-1.6-0.9-2.5
		c-1.2-3.2-2.4-6.2-3.9-9.2c-2.4-4.9-5.1-9.4-8.1-13.7l-31.3,21.6c0.2,0.7,0.4,1.4,0.5,2.2c0.4,1.9,0.7,3.9,0.9,5.8
		c0.1,1,0.2,2,0.2,3c0,0.5,0.1,1,0.1,1.4l0.1,0.7c0,0.3,0,0.4-0.1,0.5l-0.1,1.1v0.5c0,0.1,0,0.1,0,0.2v0.3v0.5
		c0.1,0.8,0.1,1.5,0.1,2.3l0.1,1.2C259.6,312.2,260,313.5,259.5,311.8"/>
	<path class="st0" d="M464.6,163c-2.2-2.8-4.3-5.6-6.6-8.4c-1-1.2-2.1-2.3-3.1-3.6L326.5,256.1c0.9,1.2,1.7,2.3,2.6,3.4
		c0.4,0.6,1,1.2,1.3,1.8c0.4,0.6,0.8,1.3,1.3,1.9c0.8,1.3,1.7,2.4,2.4,3.6c1.4,2.5,3.1,4.7,4.2,7c0.1,0.1,0.1,0.2,0.2,0.4l150-73.8
		c-0.9-1.5-1.7-3.1-2.6-4.8c-0.7-1.3-1.4-2.6-2.2-4c-0.7-1.3-1.6-2.6-2.4-4c-1.6-2.7-3.3-5.4-5.1-8.1c-1.8-2.7-3.7-5.4-5.7-8.2
		c-1-1.3-2-2.8-3-4.2C466.7,165.7,465.6,164.4,464.6,163"/>
	<path class="st0" d="M254,338.2c-1.3,3.4-3.1,6.6-4.9,9.8l54.2,20.8c2.2-7.5,3.6-15,4.4-22.5c0.8-8.4,0.8-16.6-0.1-24.4l-49.8,4
		C256.9,330.1,255.6,334.2,254,338.2"/>
	<path class="st0" d="M211.6,230.4l-0.1,10.8c1.2,0.4,2.4,1,3.6,1.5c1.3,0.6,2.7,1.3,4,2c0.6,0.4,1.3,0.7,2.1,1.1
		c0.6,0.4,1.3,0.8,2.1,1.3c2.8,1.6,5.6,3.6,8.3,5.7c0.4,0.4,0.9,0.7,1.4,1.2l8.4-18.8c-1-0.4-2-0.6-3-0.9c-8-2.4-15.4-3.4-21.7-3.7
		C214.8,230.4,213.2,230.4,211.6,230.4"/>
	<path class="st0" d="M244.3,354.6c-1.5,1.9-3.1,3.7-4.8,5.4c-3.1,3.1-6.4,5.8-10,8.3c-0.2,0.1-0.4,0.2-0.5,0.4l47,49.2
		c7.3-8.1,13.3-16.9,18.1-26c2.6-5,4.8-10.2,6.7-15.4L244.3,354.6z"/>
	<path class="st0" d="M250.7,238.8c-0.7-0.3-1.3-0.5-2.1-0.9l-9.5,21.6c0.1,0.1,0.3,0.3,0.4,0.4c2.5,2.7,4.9,5.5,7.2,8.5
		c3.6,4.9,6.6,10.4,8.8,16.3l29-19.9c-6.5-7.8-13.7-14.1-21.1-18.9C259.2,243.1,254.9,240.8,250.7,238.8"/>
	<path class="st0" d="M194.8,232.1c-1.6,0.4-3,0.5-4,0.9c-2.2,0.5-3.3,0.8-3.3,0.8l0.2,0.9c0,0,1.2,0.2,3.5,0.6
		c2.2,0.4,5.6,1.1,9.7,2.2c0.9,0.3,1.9,0.5,2.9,0.9l0.1-7.6c-1.2,0.1-2.3,0.3-3.3,0.4C198.3,231.5,196.4,231.6,194.8,232.1"/>
	<path class="st0" d="M194.5,207.2l1-0.3l1.4-0.3c2.5-0.4,4.9-1,7.5-1.3c1.3-0.2,2.4-0.4,3.7-0.4c1.3-0.1,2.4-0.2,3.7-0.3
		c1.3-0.1,2.5-0.2,3.8-0.2l-3.8-153c-4,0.4-7.9,0.9-11.8,1.4c-2.6,0.4-5.2,0.7-7.8,1.2c-2.6,0.5-5.2,1-7.8,1.5
		c-5.2,0.9-10.4,2.3-15.5,3.7c-1.3,0.4-2.6,0.7-3.9,1c0.2,0-3.1,0.7-1.9,0.4l-0.4,0.1l-0.7,0.3l-1.5,0.5c-1.4,0.4-2.9,1-4.3,1.4
		L194.5,207.2z"/>
	<path class="st0" d="M136,250.3c2.2-3.5,4.5-6.9,7-10.1c1-1.3,2.1-2.5,3.1-3.8l-102-93c-0.2,0.3-0.4,0.4-0.5,0.6
		c-1.6,2.3-3.2,4.7-4.9,7c-1.6,2.3-3.1,4.8-4.7,7.2c-6.6,10.7-12.4,22-17.2,33.6L136,250.3z"/>
	<path class="st0" d="M121.2,298.6c0-0.6,0-1.2,0.1-1.8c0.1-1.2,0.2-2.3,0.3-3.5c0-0.5,0.1-1.2,0.2-1.7l0.3-1.7
		c0.4-3,0.9-5.9,1.5-8.8L0.6,259.7c-0.7,8.9-0.8,17.8-0.4,26.7l0.2,4.1c0.1,1.3,0.1,2.7,0.3,4.1l0.8,8.2c0.4,2.7,0.8,5.4,1.2,8.1
		c0.1,0.5,0.2,1.1,0.3,1.6l118.2-13.5V298.6z"/>
	<path class="st0" d="M170.3,373.4c-1-0.4-1.9-0.7-2.8-1c-4.2-1.6-8.3-3.6-12-5.8c-0.4-0.3-0.9-0.5-1.4-0.9l-38.3,86.6
		c3.1,1.1,6.3,2.2,9.5,3.1c9.7,2.8,19.6,4.8,29.4,5.7c3.5,0.4,6.9,0.5,10.4,0.7L170.3,373.4z"/>
	<path class="st0" d="M196.9,377.5L196.9,377.5l-3.1,0.4l-0.8,0.1c-1.5,0.3,1.6-0.4,1.2-0.4h-0.3l-0.9-0.1l-1.8-0.1
		c-1.2,0-2.4-0.2-3.6-0.3l-1.7-0.2l-1.7-0.3c-1.2-0.2-2.3-0.3-3.4-0.5l-1.7-0.4l-0.8-0.2l0,0l-5.2,86.2c3.7-0.1,7.3-0.3,10.9-0.5
		c2.4-0.1,4.8-0.4,7.2-0.7l3.6-0.4l3.5-0.6c2.3-0.4,4.7-0.7,6.9-1.3c1.2-0.3,2.3-0.5,3.4-0.8l1.7-0.4l0.4-0.1c0.1,0,1.2-0.3,0.9-0.2
		l0.7-0.2l3-0.8l1.5-0.4l1.8-0.5c1.2-0.4,2.2-0.7,3.4-1.1L196.9,377.5z"/>
	<path class="st0" d="M221.8,372.5c-1.2,0.5-2.3,1.1-3.5,1.5c-3.9,1.5-7.8,2.5-11.8,3.1c-0.4,0.1-0.9,0.2-1.4,0.2l24.1,73.6
		c1-0.4,1.9-0.8,2.8-1.3c1.1-0.4,2.2-1,3.2-1.4c1.1-0.4,2.1-1.1,3.1-1.5c8.4-4.2,16.1-9.3,23-14.9c3.2-2.6,6.3-5.4,9.2-8.3
		L221.8,372.5z"/>
	<path class="st0" d="M125.6,273.4c1.1-3.4,2.2-6.7,3.6-10.1c1-2.1,1.8-4.1,2.9-6.1l-118.2-58c-6.3,17.1-10.5,34.8-12.6,52.6
		L125.6,273.4z"/>
	<path class="st0" d="M151.5,230.7c4-4,8.4-7.5,13.1-10.7L89.9,97.3c-3.9,2.9-7.6,5.9-11.3,9.1l-3.2,2.8l-1.6,1.4
		c-0.5,0.4-1.1,1-1.5,1.5c-2.1,2-4.1,4-6.2,5.9c-4,4.1-8,8.3-11.7,12.7c-1.8,2.2-3.7,4.2-5.4,6.5L151.5,230.7z"/>
	<path class="st0" d="M171.4,215.8c4.2-2.3,8.5-4.2,13-5.7l1.5-0.5l0.4-0.2h0.2l0.4-0.1h0.1L148.5,65.8c-1.2,0.4-2.2,0.8-3.4,1.2
		l-2.2,0.8l-1.1,0.4l-1,0.4l-4,1.6l-4,1.7l-2,0.8l-1.9,0.9c-2.6,1.3-5.1,2.5-7.7,3.8c-2.5,1.3-5,2.8-7.5,4.1l-3.8,2.2l-3.7,2.2
		c-3.4,2.1-6.7,4.2-10,6.6L171.4,215.8z"/>
	<path class="st0" d="M129,339.5l-0.7-1.3c-0.3-0.4-0.4-0.9-0.6-1.3c-0.4-0.9-0.9-1.8-1.3-2.8c-0.4-0.9-0.8-1.8-1.2-2.7
		c-0.2-0.4-0.4-0.9-0.5-1.3l-99.2,47.2c0.6,1,1.3,2.1,1.8,3.1c1.3,2.3,3,4.6,4.5,6.9c1.4,2.2,3.1,4.5,4.8,6.6c1.5,2.2,3.3,4.3,5,6.4
		c0.9,1.1,1.7,2.2,2.6,3.1l2.7,3c3.7,4.1,7.6,8,11.7,11.7l72.6-74.9C130.3,341.9,129.6,340.8,129,339.5"/>
	<path class="st0" d="M122.4,321.5l-0.2-0.7c0-0.3-0.1-0.4-0.1-0.7l-0.3-1.4l-0.1-0.7v-0.2c0,0,0,0,0-0.1v-0.2
		c0.1-0.2,0.1-0.4,0.1-0.4s0-0.2,0-0.3l0,0l-0.1-0.8l-0.5-3.4l-0.3-1.7l-0.2-0.8l-0.1-0.4c0.9,4,0.3,1,0.4,1.8
		c-0.1-1.3-0.1-2.4-0.2-3.7l-0.1-0.8L4.4,320.2l0.5,2.6c0.2,0.6,0.3,1.3,0.4,2l0.4,2l2,7.8c0.1,0.5-0.1-0.4,0.3,1.3l0.1,0.4l0.3,0.8
		l0.5,1.6l1,3.2l0.3,0.8l0.4,1.1l0.7,2.2l1.5,4.3c0.4,1.5,1,2.7,1.5,4l1.5,3.9l0.8,1.9l0.9,1.9l1.8,3.8l0.9,1.9l1,1.8l0.4,0.7
		l100.9-48L122.4,321.5z"/>
	<path class="st0" d="M144.8,358.9c-0.4-0.4-0.8-0.6-1.3-1.1l-1.2-1.1l-1.2-1.1l-1.1-1.2l-1.1-1.2l-1.1-1.3
		c-0.4-0.4-0.7-0.8-1.1-1.2l-1-1.3c0,0-0.1-0.1-0.1-0.2L64.5,423c10.1,8.4,20.9,15.4,32.3,21.1c3.8,1.9,7.6,3.6,11.6,5.2l39.2-88.4
		C146.6,360.4,145.7,359.7,144.8,358.9"/>
	<path class="st0" d="M344.9,286.7c0.4,1,0.8,1.9,1.3,2.8c0.4,0.9,0.6,1.9,1,2.7c0.4,0.9,0.6,1.7,1,2.5c0.1,0.2,0.2,0.4,0.3,0.6
		c0.1,0.2,0.2,0.4,0.2,0.5c0.1,0.3,0.2,0.5,0.3,0.8c0.4,1,0.7,1.9,1,2.7c0.1,0.2,0.2,0.4,0.3,0.6c0,0,0,0,0,0.1l0.1,0.2l0.1,0.4
		c0.1,0.3,0.1,0.4,0.2,0.7c0.3,0.9,0.4,1.8,0.6,2.5c0.4,1.6,0.7,2.9,1.1,4c0.3,0.9,1.5,8.6,2.2,12.4c41.9-37.9,97-61.2,157.6-62.3
		c-0.8-2.8-1.6-5.8-2.7-9.1c-0.3-1-0.6-2-0.9-3c-0.2-0.5-0.4-1-0.4-1.4c-0.2-0.4-0.4-0.9-0.4-1.3c-0.6-1.8-1.3-3.8-2.1-5.7
		c-0.7-2-1.4-4-2.2-6.1c-0.9-2.1-1.8-4.2-2.7-6.5c-0.9-2.2-1.9-4.5-3-6.8c-1.1-2.3-2.2-4.7-3.4-7.1c-0.5-1.1-1.1-2.2-1.6-3.3
		l-150,73.8c0.4,0.8,0.8,1.6,1.2,2.4C344,284.7,344.4,285.7,344.9,286.7"/>
</g>
</svg>
