<?xml version="1.0" encoding="utf-8"?>
<!-- Generator: Adobe Illustrator 21.0.0, SVG Export Plug-In . SVG Version: 6.00 Build 0)  -->
<svg version="1.1" id="Layer_1" xmlns="http://www.w3.org/2000/svg" xmlns:xlink="http://www.w3.org/1999/xlink" x="0px" y="0px"
	 viewBox="0 0 128 128" style="enable-background:new 0 0 128 128;" xml:space="preserve">
<style type="text/css">
	.st0{fill:#FFFFFF;}
</style>
<g>
	<path class="st0" d="M35.7,119.6c-2.5,0-4.7-0.6-6.6-1.9c-13.1-8.5-3.2-40.9,14-67.3c16-24.6,35.5-41.5,48.6-42
		c2.7-0.1,5.2,0.5,7.2,1.8c5.7,3.7,7.4,12.1,5,24.2c-0.3,1.3-1.6,2.2-2.9,1.9c-1.3-0.3-2.2-1.5-1.9-2.9c1.9-9.7,0.9-16.7-2.9-19.2
		c-1.2-0.8-2.6-1.1-4.4-1c-11.2,0.4-30,17.1-44.7,39.8C38.4,66.7,32,80.6,29.3,92.4c-2.5,10.8-1.6,18.6,2.5,21.2
		c3.8,2.5,10.7,0.5,19-5.4c1.1-0.8,2.6-0.5,3.4,0.6s0.5,2.6-0.6,3.4C46.8,117.1,40.7,119.6,35.7,119.6z"/>
	<path class="st0" d="M111.1,83.1c-1,0-1.9-0.6-2.3-1.6c-0.5-1.3,0.1-2.7,1.4-3.2c8-3.1,12.7-7.2,12.9-11.3
		c0.3-4.8-5.5-10.1-15.7-14.4c-11.1-4.7-26.2-7.8-42.3-8.7c-3.2-0.2-6.4-0.2-9.2-0.2C24.5,43.9,5.3,52.6,4.9,60.9
		C4.7,65,8.8,69.5,16.5,73.5c1.2,0.6,1.7,2.1,1.1,3.3c-0.6,1.2-2.1,1.7-3.3,1.1C4.6,72.8-0.3,66.9,0,60.6
		C0.7,47.9,23.6,39,55.8,38.9c3,0,6.2,0.1,9.5,0.2c16.7,0.9,32.3,4.1,44,9c12.4,5.3,19,12.1,18.7,19.2c-0.3,6.3-5.9,11.7-16,15.6
		C111.6,83.1,111.3,83.1,111.1,83.1z"/>
	<path class="st0" d="M87.9,122.3c-5.6,0-12.5-3.6-19.9-10.5c-9.3-8.6-18.6-21.6-26.2-36.5c-7.6-14.9-12.6-30.1-14.2-42.6
		c-1.6-13.4,1-22.6,7.3-25.8c1.3-0.7,2.7-1.1,4.3-1.2c5.1-0.4,11.3,2.4,17.9,7.9c1,0.9,1.2,2.4,0.3,3.4c-0.9,1-2.4,1.2-3.4,0.3
		c-5.6-4.7-10.7-7.1-14.5-6.8c-0.9,0.1-1.7,0.3-2.4,0.7c-4.3,2.2-6,9.8-4.7,20.8c1.5,12,6.3,26.6,13.7,41
		c7.3,14.4,16.3,26.9,25.1,35.2c8.1,7.6,15.3,10.7,19.6,8.5c4.1-2.1,5.9-9.2,4.8-19.5c-1.1-11.2-5.4-25-12.1-38.9
		c-0.6-1.2-0.1-2.7,1.1-3.3c1.2-0.6,2.7-0.1,3.3,1.1c6.9,14.3,11.4,28.7,12.6,40.5c1.3,12.6-1.4,21.3-7.5,24.4
		C91.5,121.9,89.7,122.3,87.9,122.3z"/>
	<path class="st0" d="M71.7,64.9c0,4.1-3.3,7.3-7.3,7.3s-7.3-3.3-7.3-7.3l0,0c0-4.1,3.3-7.3,7.3-7.3S71.7,60.8,71.7,64.9z"/>
</g>
</svg>
