<?xml version="1.0" encoding="utf-8"?>
<!-- Generator: Adobe Illustrator 21.0.0, SVG Export Plug-In . SVG Version: 6.00 Build 0)  -->
<svg version="1.1" id="Layer_1" xmlns="http://www.w3.org/2000/svg" xmlns:xlink="http://www.w3.org/1999/xlink" x="0px" y="0px"
	 viewBox="0 0 128 128" style="enable-background:new 0 0 128 128;" xml:space="preserve">
<style type="text/css">
	.st0{fill:url(#SVGID_1_);}
	.st1{fill:url(#SVGID_2_);}
	.st2{fill:url(#SVGID_3_);}
</style>
<g>
	<linearGradient id="SVGID_1_" gradientUnits="userSpaceOnUse" x1="-2.1407" y1="61.018" x2="130.0755" y2="61.018">
		<stop  offset="0" style="stop-color:#074570"/>
		<stop  offset="0.1147" style="stop-color:#243F73"/>
		<stop  offset="0.4352" style="stop-color:#72307D"/>
		<stop  offset="0.6998" style="stop-color:#AB2583"/>
		<stop  offset="0.8952" style="stop-color:#CE1E87"/>
		<stop  offset="1" style="stop-color:#DB1B89"/>
	</linearGradient>
	<path class="st0" d="M111.5,82.8c1.7-0.9,3.4-1.8,4.9-2.9c1.6-1,3.1-2.2,4.3-3.5c1.3-1.3,2.4-2.7,3-4.2c0.3-0.8,0.5-1.5,0.6-2.3
		c0-0.4,0.1-0.8,0-1.1l-0.1-0.6c0-0.2-0.1-0.4-0.1-0.6c-0.7-2.9-3.3-5.5-6.1-7.4c-2.9-2-6.2-3.6-9.6-4.9c-6.8-2.7-14-4.4-21.3-5.8
		c-7.3-1.3-14.7-2.1-22.2-2.5L59.4,47c-1.9-0.1-3.7-0.1-5.6-0.1c-3.7,0-7.4,0.2-11.1,0.4c-7.4,0.5-14.8,1.6-21.8,3.5
		c-3.5,1-6.9,2.2-10,3.9c-3.1,1.6-5.9,3.9-6.9,6.7c-0.3,0.7-0.4,1.4-0.4,2.2c0,0.8,0.1,1.6,0.3,2.3c0.4,1.6,1.4,3.1,2.5,4.5
		c1.1,1.4,2.5,2.7,3.9,3.9c1.4,1.2,3,2.3,4.6,3.4c-3.6-1.4-7.1-3.2-10.1-5.8C3.3,70.6,1.9,69,1,67c-0.5-1-0.8-2.1-0.9-3.2
		C0,62.7,0,61.5,0.2,60.4c0.5-2.3,1.8-4.2,3.2-5.9c1.4-1.6,3.1-3,4.8-4.1c3.4-2.3,7.1-4,10.8-5.3c3.7-1.3,7.6-2.4,11.4-3.2
		C34.2,41,38.1,40.4,42,40c3.9-0.4,7.8-0.6,11.7-0.8c2-0.1,3.9,0,5.8,0.1l5.8,0.1c7.8,0.4,15.5,1.4,23.2,3c3.8,0.8,7.6,1.8,11.4,3
		c3.7,1.2,7.4,2.6,11,4.4c3.6,1.7,7.1,3.8,10.2,6.5c1.6,1.3,3.1,2.8,4.3,4.6c1.2,1.8,2.2,3.9,2.5,6.2c0,0.3,0.1,0.6,0.1,0.9l0,0.9
		c0,0.6-0.1,1.1-0.2,1.7c-0.3,1.1-0.7,2.2-1.3,3.1c-1.1,1.9-2.7,3.3-4.3,4.5C118.9,80.4,115.2,81.8,111.5,82.8z"/>
	<linearGradient id="SVGID_2_" gradientUnits="userSpaceOnUse" x1="17.575" y1="19.442" x2="107.4636" y2="109.3306">
		<stop  offset="0" style="stop-color:#1C75BB"/>
		<stop  offset="1" style="stop-color:#00FF6D"/>
	</linearGradient>
	<path class="st1" d="M55.5,13.9c-2-1.3-4-2.6-6.1-3.7c-2.1-1.1-4.3-1.9-6.5-2.3c-2.2-0.4-4.4-0.3-6.2,0.7c-1.7,0.9-3,2.6-3.7,4.5
		c-0.8,1.9-1.2,4.1-1.3,6.3c-0.1,2.2-0.1,4.5,0.1,6.8c0.2,2.3,0.6,4.6,1,6.8c0.4,2.3,1,4.5,1.6,6.8c2.4,9,5.9,17.7,9.9,26.1
		c2,4.2,4.2,8.4,6.6,12.4c2.3,4,4.8,8,7.5,11.8c2.7,3.8,5.5,7.5,8.5,10.9c3,3.5,6.3,6.7,9.8,9.4c1.7,1.4,3.6,2.6,5.4,3.6
		c1.8,1,3.7,1.6,5.5,1.8c1.7,0.2,3.1-0.2,4.3-1.1c1.2-0.9,2.2-2.5,2.8-4.5c1.3-3.9,1.5-8.5,1.3-13.1c-0.2-4.6-0.9-9.2-1.9-13.8
		c-1.8-9.2-4.8-18.3-8.2-27.3c4.9,8.3,8.9,17.1,11.9,26.4c1.4,4.7,2.6,9.4,3.2,14.3c0.3,2.5,0.5,5,0.5,7.5c0,2.6-0.3,5.2-1,7.8
		c-0.7,2.6-2,5.4-4.5,7.6c-2.4,2.2-6,3.2-9,3c-3.1-0.2-5.8-1.1-8.2-2.3c-2.4-1.2-4.6-2.6-6.7-4.1c-8.2-6.2-14.5-13.8-20.2-21.8
		C46.3,86.6,41.6,78,37.6,69.1c-4-8.9-7.2-18.2-9.2-27.8c-1-4.8-1.6-9.7-1.7-14.7c0-2.5,0.1-5,0.5-7.5c0.4-2.5,1.1-5.1,2.3-7.5
		c1.2-2.4,3.3-4.6,5.9-5.6c2.7-1,5.5-0.8,7.9,0C48.2,7.5,52,10.6,55.5,13.9z"/>
	<linearGradient id="SVGID_3_" gradientUnits="userSpaceOnUse" x1="16.3515" y1="107.2621" x2="108.2874" y2="15.3262">
		<stop  offset="0" style="stop-color:#EF4136"/>
		<stop  offset="0.1243" style="stop-color:#F04E36"/>
		<stop  offset="0.3557" style="stop-color:#F27135"/>
		<stop  offset="0.6692" style="stop-color:#F5AA34"/>
		<stop  offset="1" style="stop-color:#F9ED32"/>
	</linearGradient>
	<path class="st2" d="M101.9,32.6c0.3-3.9,0.4-7.9-0.2-11.6c-0.3-1.9-0.8-3.7-1.6-5.2c-0.8-1.6-1.9-2.8-3.3-3.5
		c-1.3-0.7-2.9-1-4.5-0.8c-0.4,0-0.8,0.1-1.2,0.2c-0.4,0.1-0.8,0.1-1.2,0.3l-1.2,0.4L88,12.5l-0.6,0.3c-3.3,1.4-6.4,3.4-9.4,5.7
		c-3,2.3-5.8,4.8-8.5,7.5c-2.7,2.7-5.3,5.5-7.7,8.4c-2.5,2.9-4.8,5.9-7.1,9c-1.1,1.5-2.2,3.1-3.4,4.7l-3.2,4.8
		c-2.1,3.2-4.1,6.5-6,9.8c-1.9,3.3-3.7,6.7-5.3,10.2c-3.3,6.9-6.1,14-7.8,21.3c-0.4,1.8-0.8,3.6-1,5.5c-0.2,1.8-0.3,3.6-0.3,5.4
		c0.1,3.5,1.1,7,3.6,8.7c0.6,0.5,1.3,0.8,2.1,1c0.8,0.2,1.6,0.4,2.5,0.4c1.8,0.1,3.6-0.3,5.4-0.8c3.7-1,7.2-2.7,10.6-4.6
		c-1.5,1.3-3,2.5-4.7,3.7c-1.7,1.1-3.4,2.1-5.2,3c-1.9,0.9-3.9,1.5-6,1.7c-1.1,0.1-2.2,0.1-3.3,0c-1.1-0.2-2.3-0.5-3.4-1.1
		c-2.2-1.1-3.8-3.1-4.8-5.1c-1-2.1-1.6-4.2-1.9-6.4C22,101.2,22.4,97.1,23,93c1.3-8.1,3.9-15.8,7.1-23.2c1.6-3.7,3.4-7.3,5.3-10.8
		c1.9-3.5,4-7,6.1-10.3c4.4-6.7,9.2-13.1,14.7-19.1c5.4-6,11.4-11.5,18.2-16l2.6-1.6c0.9-0.5,1.8-1,2.7-1.5c1.9-0.9,3.8-1.8,5.9-2.4
		l0.8-0.2l0.8-0.2l1.6-0.3c0.5-0.1,1.1-0.1,1.7-0.2c0.6,0,1.1-0.1,1.7-0.1c2.3,0,4.7,0.6,6.7,2.1c1.9,1.4,3.3,3.5,4,5.5
		c0.7,2.1,1,4.2,1,6.2c0,2-0.2,4.1-0.5,6C103,28.8,102.5,30.7,101.9,32.6z"/>
</g>
</svg>
