<?xml version="1.0" encoding="utf-8"?>
<!-- Generator: Adobe Illustrator 21.0.0, SVG Export Plug-In . SVG Version: 6.00 Build 0)  -->
<svg version="1.1" id="Layer_1" xmlns="http://www.w3.org/2000/svg" xmlns:xlink="http://www.w3.org/1999/xlink" x="0px" y="0px"
	 viewBox="0 0 256 256" style="enable-background:new 0 0 256 256;" xml:space="preserve">
<style type="text/css">
	.st0{fill:#2F6C48;}
	.st1{fill:#063F39;}
	.st2{fill:#085B53;}
	.st3{fill:#ECE8A0;}
	.st4{fill:#053F3C;}
	.st5{fill:#22786E;}
	.st6{fill:#D7D392;}
	.st7{fill:#327D68;}
	.st8{fill:#0A6751;}
	.st9{fill:#06443E;}
	.st10{fill:#BCB980;}
	.st11{fill:#075049;}
	.st12{fill:#295C50;}
	.st13{fill:#9E9B6B;}
</style>
<g id="row.4">
	<path class="st0" d="M192,192h64v64h-64V192z"/>
	<path class="st1" d="M128,192h64v64h-64V192z"/>
	<path class="st2" d="M64,192h64v64H64V192z"/>
	<path class="st3" d="M0,192h64v64H0V192z"/>
</g>
<g id="row.3">
	<path class="st4" d="M192,128h64v64h-64V128z"/>
	<path class="st2" d="M128,128h64v64h-64V128z"/>
	<path class="st5" d="M64,128h64v64H64V128z"/>
	<path class="st6" d="M0,128h64v64H0V128z"/>
</g>
<g id="row.2">
	<path class="st7" d="M192,64h64v64h-64V64z"/>
	<path class="st8" d="M128,64h64v64h-64V64z"/>
	<path class="st9" d="M64,64h64v64H64V64z"/>
	<path class="st10" d="M0,64h64v64H0V64z"/>
</g>
<g id="row.1">
	<path class="st9" d="M192,0h64v64h-64V0z"/>
	<path class="st11" d="M128,0h64v64h-64V0z"/>
	<path class="st12" d="M64,0h64v64H64V0z"/>
	<path class="st13" d="M0,0h64v64H0V0z"/>
</g>
<g id="gold">
	<path class="st3" d="M0,192h64v64H0V192z"/>
	<path class="st6" d="M0,128h64v64H0V128z"/>
	<path class="st10" d="M0,64h64v64H0V64z"/>
	<path class="st13" d="M0,0h64v64H0V0z"/>
</g>
</svg>
