<?xml version="1.0" standalone="no"?>
<!DOCTYPE svg PUBLIC "-//W3C//DTD SVG 1.1//EN" "http://www.w3.org/Graphics/SVG/1.1/DTD/svg11.dtd" >
<svg>
<metadata>
Created by FontForge 20090622 at Fri Oct 23 22:05:46 2015
 By deploy user
Copyright (c) 2006 The Hoefler Type Foundry, Inc., dba Hoefler &#38; Frere-Jones. All Rights Reserved.
</metadata>
<defs>
<font id="Vitesse-Book" horiz-adv-x="500" >
  <font-face 
    font-family="Vitesse Book"
    font-weight="325"
    font-stretch="normal"
    units-per-em="1000"
    panose-1="0 0 0 0 0 0 0 0 0 0"
    ascent="800"
    descent="-200"
    x-height="535"
    cap-height="700"
    bbox="-36 -302 1012 1029"
    underline-thickness="50"
    underline-position="-50"
    unicode-range="U+0020-U+2212"
  />
<missing-glyph horiz-adv-x="496" 
d="M-2 -200v1000h500v-1000h-500zM69 750l179 -390l179 390h-358zM48 -76l172 376l-172 376v-752zM448 676l-172 -376l172 -376v752zM248 240l-179 -390h358z" />
    <glyph glyph-name="fi" unicode="fi" horiz-adv-x="682" 
d="M479 628v96h86v-96h-86zM648 0h-248v63h90v408h-90v64h162v-472h86v-63zM327 657h-71q-28 0 -39 -11q-13 -12 -13 -71v-40h114v-64h-113v-408h90v-63h-250v63h88v408h-88v64h88v42q0 89 27 116t81 27h86v-63z" />
    <glyph glyph-name="fl" unicode="fl" horiz-adv-x="672" 
d="M640 0h-250v63h91v593h-91v64h162v-657h88v-63zM327 657h-71q-28 0 -39 -11q-13 -12 -13 -71v-40h114v-64h-113v-408h90v-63h-250v63h88v408h-88v64h88v42q0 89 27 116t81 27h86v-63z" />
    <glyph glyph-name=".notdef" horiz-adv-x="496" 
d="M-2 -200v1000h500v-1000h-500zM69 750l179 -390l179 390h-358zM48 -76l172 376l-172 376v-752zM448 676l-172 -376l172 -376v752zM248 240l-179 -390h358z" />
    <glyph glyph-name=".null" horiz-adv-x="0" 
 />
    <glyph glyph-name="nonmarkingreturn" horiz-adv-x="333" 
 />
    <glyph glyph-name="space" unicode=" " horiz-adv-x="256" 
 />
    <glyph glyph-name="exclam" unicode="!" horiz-adv-x="284" 
d="M163 200h-34l-34 463v37h95v-37zM97 101h90v-101h-90v101z" />
    <glyph glyph-name="quotedbl" unicode="&#x22;" horiz-adv-x="398" 
d="M88 443l-30 238v19h101v-19l-30 -238h-41zM269 443l-30 238v19h101v-19l-30 -238h-41z" />
    <glyph glyph-name="numbersign" unicode="#" horiz-adv-x="752" 
d="M108 524h137l43 176h71l-43 -176h199l43 176h71l-43 -176h123v-65h-138l-49 -202h122v-65h-138l-46 -192h-71l47 192h-199l-47 -192h-71l46 192h-122v65h138l49 202h-122v65zM298 462l-49 -208h204l50 208h-205z" />
    <glyph glyph-name="dollar" unicode="$" horiz-adv-x="663" 
d="M363 -90h-65v90h-79q-77 0 -107 30q-20 20 -28 55t-9 126h77q1 -69 5 -93.5t14 -34.5q15 -16 58 -16h71v253l-79 8q-77 7 -104 34q-18 19 -25 50t-7 98q0 65 9 101t31 58q31 31 105 31h68v80h65v-80h66q76 0 105 -29q21 -21 29 -55t9 -122h-76q-1 107 -19 123
q-15 16 -55 16h-61v-246l88 -8q76 -7 102 -33q19 -19 26.5 -51.5t7.5 -101.5t-9 -104.5t-31 -57.5q-31 -31 -103 -31h-79v-90zM429 308l-68 6v-247h72q40 0 57 16q19 19 19 109q0 49 -3.5 67.5t-14.5 29.5q-14 14 -62 19zM179 417q14 -13 62 -18l59 -6v240h-63
q-40 0 -57 -16q-19 -19 -19 -106q0 -46 3.5 -64.5t14.5 -29.5z" />
    <glyph glyph-name="percent" unicode="%" horiz-adv-x="838" 
d="M222 400q28 0 40 12q17 15 17 111t-17 111q-12 12 -40 12h-34q-28 0 -41 -12q-16 -16 -16 -111t16 -111q14 -12 41 -12h34zM340 523q0 -71 -8 -103.5t-26 -49.5q-26 -24 -76 -24h-50q-52 0 -76 24q-19 17 -27 49.5t-8 103.5t8 103.5t27 49.5q24 24 76 24h50q50 0 76 -24
q18 -17 26 -49.5t8 -103.5zM210 -3h-63l253 369l228 337h64l-252 -367zM617 54h34q28 0 41 12q16 16 16 111t-16 111q-13 12 -41 12h-34q-28 0 -40 -12q-17 -15 -17 -111t17 -111q12 -12 40 -12zM770 177q0 -71 -8 -103.5t-27 -49.5q-24 -24 -76 -24h-50q-52 0 -76 24
q-35 33 -35 153t35 153q24 24 76 24h50q52 0 76 -24q19 -17 27 -49.5t8 -103.5z" />
    <glyph glyph-name="ampersand" unicode="&#x26;" horiz-adv-x="720" 
d="M329 700h64q72 0 99 -27q20 -20 27.5 -55.5t7.5 -111.5h-75q0 99 -17 115q-13 14 -54 14h-46q-46 0 -61 -15q-15 -16 -15 -112q0 -49 11 -77q10 -23 41 -57l121 -140h7l101 166h116v-68h-74l-100 -153l100 -111h80v-68h-121l-97 111h-6l-33 -51q-23 -34 -46.5 -47.5
t-64.5 -13.5h-72q-86 0 -119 33q-22 23 -30.5 60.5t-8.5 110.5q0 78 6 107.5t27 50.5q28 28 100 36l7 1q-22 38 -22 111q0 74 7 107.5t27 53.5q30 30 113 30zM279 64q29 0 43 7.5t30 30.5l44 65l-156 176l-31 -7q-38 -6 -53 -23q-17 -19 -17 -110q0 -57 5 -82.5t18 -38.5
q17 -18 76 -18h41z" />
    <glyph glyph-name="quotesingle" unicode="'" horiz-adv-x="217" 
d="M88 443l-30 238v19h101v-19l-30 -238h-41z" />
    <glyph glyph-name="parenleft" unicode="(" horiz-adv-x="386" 
d="M98 275q0 153 8 209q6 36 35.5 85.5t99.5 140.5h56q-100 -171 -109 -216q-10 -57 -10 -219t10 -219q9 -45 109 -216h-56q-70 91 -99.5 140.5t-35.5 85.5q-8 56 -8 209z" />
    <glyph glyph-name="parenright" unicode=")" horiz-adv-x="386" 
d="M288 275q0 -159 -9 -209q-5 -36 -34.5 -84.5t-99.5 -141.5h-57q100 167 109 216q11 53 11 219t-11 219q-9 49 -109 216h57q70 -93 99.5 -141.5t34.5 -84.5q9 -50 9 -209z" />
    <glyph glyph-name="asterisk" unicode="*" horiz-adv-x="476" 
d="M123 394l79 104l27 -15l-51 -120zM63 561l130 -16v-30l-130 -16v62zM123 666l55 31l51 -120l-27 -15zM353 394l-54 -31l-51 120l26 15zM413 561v-62l-130 16v30zM353 666l-79 -104l-26 15l51 120z" />
    <glyph glyph-name="plus" unicode="+" horiz-adv-x="514" 
d="M290 558v-162h162v-66h-162v-162h-66v162h-162v66h162v162h66z" />
    <glyph glyph-name="comma" unicode="," horiz-adv-x="214" 
d="M59 105h99v-101q0 -37 -22 -62l-83 -98l-28 22l68 98q7 11 7 28v8h-41v105z" />
    <glyph glyph-name="hyphen" unicode="-" horiz-adv-x="413" 
d="M348 281h-282v74h282v-74z" />
    <glyph glyph-name="period" unicode="." horiz-adv-x="211" 
d="M57 105h97v-105h-97v105z" />
    <glyph glyph-name="slash" unicode="/" horiz-adv-x="469" 
d="M37 -160h-73l408 870h73z" />
    <glyph glyph-name="zero" unicode="0" horiz-adv-x="684" 
d="M428 700q87 0 121 -34q29 -29 40.5 -91.5t11.5 -224.5t-11.5 -224.5t-40.5 -91.5q-34 -34 -121 -34h-172q-88 0 -121 34q-30 29 -41 91t-11 225t11 225t41 91q33 34 121 34h172zM191 87q18 -18 70 -18h162q50 0 70 18q15 15 21.5 66t6.5 197t-6.5 197t-21.5 66
q-20 18 -70 18h-162q-52 0 -70 -18q-15 -15 -21.5 -66t-6.5 -197t6.5 -197t21.5 -66z" />
    <glyph glyph-name="one" unicode="1" horiz-adv-x="466" 
d="M294 66h133v-66h-351v66h144v563l-132 -48l-22 64l149 56h79v-635z" />
    <glyph glyph-name="two" unicode="2" horiz-adv-x="660" 
d="M572 528q0 -57 -6.5 -83.5t-24.5 -48.5q-22 -29 -96 -59l-215 -85q-38 -16 -56 -34q-23 -23 -23 -96v-55h358v151h73v-218h-505v113q0 66 8.5 97t31.5 54q28 28 87 52l217 86q38 16 56 37t18 86q0 72 -21 90q-15 16 -58 16h-168q-41 0 -58 -17q-19 -19 -20 -120h-77
q1 83 10 118.5t31 56.5q30 31 106 31h185q77 0 109 -32q21 -21 29.5 -52t8.5 -88z" />
    <glyph glyph-name="three" unicode="3" horiz-adv-x="647" 
d="M78 495q2 74 11 113.5t32 62.5q29 29 105 29h197q71 0 100 -29q42 -42 42 -150q0 -74 -22.5 -108.5t-69.5 -48.5v-1q54 -11 76 -47t22 -117q0 -127 -42 -169q-30 -30 -102 -30h-205q-76 0 -106 29q-23 24 -32 62.5t-11 126.5h77q4 -112 24 -132q16 -16 61 -16h172
q47 0 62 15q21 21 21 114q0 90 -23 115q-17 17 -64 17h-157v65h151q47 0 64 17q23 23 23 102q0 76 -22 100q-16 15 -60 15h-161q-45 0 -62 -15q-20 -21 -24 -120h-77z" />
    <glyph glyph-name="four" unicode="4" horiz-adv-x="667" 
d="M488 700v-431h123v-61h-123v-144h123v-64h-330v64h134v144h-368v29q0 27 17 51l272 378q24 34 53 34h99zM415 269v370h-17l-267 -370h284z" />
    <glyph glyph-name="five" unicode="5" horiz-adv-x="649" 
d="M409 69q42 0 60 18q23 23 23 130q0 105 -23 128q-18 19 -64 19h-110q-69 0 -142 -48l-67 24l24 360h445v-70h-376l-17 -245h7q33 27 61 37t75 10h114q79 0 111 -32q24 -24 33 -62t9 -121q0 -81 -9.5 -120.5t-32.5 -62.5q-34 -34 -108 -34h-205q-76 0 -106 29
q-21 21 -29 55t-9 118h78q1 -98 19 -118q15 -15 58 -15h181z" />
    <glyph glyph-name="six" unicode="6" horiz-adv-x="670" 
d="M499 506q-2 90 -20 108q-17 17 -61 17h-155q-47 0 -67 -20q-17 -16 -25 -68t-8 -193v-3q46 34 70 45t58 11h149q82 0 115 -33q22 -22 31 -56.5t9 -109.5q0 -70 -10.5 -107t-34.5 -61q-35 -36 -114 -36h-187q-78 0 -113 35q-30 31 -41.5 92t-11.5 223q0 154 13 218t43 95
q37 37 127 37h166q75 0 105 -30q22 -22 30.5 -55t9.5 -109h-78zM269 335q-47 0 -106 -33q1 -115 7.5 -156.5t22.5 -56.5q20 -20 69 -20h167q45 0 64 19q23 21 23 115q0 56 -5 79t-16 35q-20 18 -70 18h-156z" />
    <glyph glyph-name="seven" unicode="7" horiz-adv-x="620" 
d="M259 0h-82l308 635h-340v-146h-73v211h499v-51z" />
    <glyph glyph-name="eight" unicode="8" horiz-adv-x="658" 
d="M424 700q76 0 110 -34q22 -22 32 -55t10 -93q0 -71 -22.5 -105t-67.5 -49v-1q52 -12 75 -50.5t23 -119.5q0 -114 -44 -158q-35 -35 -111 -35h-200q-76 0 -111 35q-44 44 -44 158q0 81 23 119.5t75 50.5v1q-45 15 -67.5 49t-22.5 105q0 60 10 93t32 55q34 34 110 34h190z
M186 615q-24 -24 -24 -99q0 -79 24 -101q18 -20 67 -20h152q49 0 67 20q24 24 24 101q0 75 -24 99q-16 18 -62 18h-162q-46 0 -62 -18zM180 312q-25 -23 -25 -116q0 -88 23 -111q18 -18 63 -18h176q45 0 63 18q23 23 23 111q0 93 -25 116q-20 20 -67 20h-165q-46 0 -66 -20z
" />
    <glyph glyph-name="nine" unicode="9" horiz-adv-x="670" 
d="M81 189h77q2 -53 6 -73t15 -30q17 -17 60 -17h168q46 0 68 20q16 16 23.5 66t8.5 183q-45 -33 -69.5 -43.5t-58.5 -10.5h-140q-90 0 -124 34q-22 22 -31 57.5t-9 113.5q0 75 10.5 113t34.5 62q35 36 114 36h187q78 0 113 -35q30 -31 41.5 -92t11.5 -223q0 -154 -13 -218
t-43 -95q-37 -37 -127 -37h-179q-74 0 -106 31q-21 20 -29 53t-9 105zM401 351q45 0 106 32q-1 124 -7.5 168t-22.5 60q-20 20 -69 20h-166q-46 0 -65 -19q-23 -23 -23 -122q0 -60 5 -83.5t17 -36.5q19 -19 73 -19h152z" />
    <glyph glyph-name="colon" unicode=":" horiz-adv-x="223" 
d="M71 105h96v-105h-96v105zM71 535h96v-105h-96v105z" />
    <glyph glyph-name="semicolon" unicode=";" horiz-adv-x="217" 
d="M62 535h96v-105h-96v105zM61 105h99v-101q0 -36 -23 -62l-83 -98l-28 22l68 98q8 13 8 28v8h-41v105z" />
    <glyph glyph-name="less" unicode="&#x3c;" horiz-adv-x="506" 
d="M430 505l-290 -143l290 -143v-75l-363 184v66l363 185v-74z" />
    <glyph glyph-name="equal" unicode="=" horiz-adv-x="514" 
d="M68 419v71h378v-71h-378zM68 236v71h378v-71h-378z" />
    <glyph glyph-name="greater" unicode="&#x3e;" horiz-adv-x="506" 
d="M76 144v73l290 143l-290 144v75l363 -185v-66z" />
    <glyph glyph-name="question" unicode="?" horiz-adv-x="581" 
d="M217 101h90v-101h-90v101zM70 490q1 87 8.5 123.5t27.5 57.5q29 29 103 29h158q72 0 105 -31q37 -37 37 -140q0 -61 -7.5 -88.5t-30.5 -50.5q-19 -19 -105 -56q-38 -18 -53 -33q-19 -19 -21 -96h-61v29q1 53 6.5 77.5t21.5 40.5q20 20 81 47q57 24 71 38q11 11 15 28.5
t4 60.5q0 72 -18 91q-16 14 -55 14h-137q-40 0 -55 -14q-16 -16 -17 -127h-78z" />
    <glyph glyph-name="at" unicode="@" horiz-adv-x="939" 
d="M714 92q45 0 65 20q18 19 26.5 65t8.5 145q0 248 -59 307q-23 24 -54.5 33.5t-95.5 9.5h-260q-68 0 -100 -11t-58 -37q-29 -30 -45.5 -107t-16.5 -242t16.5 -242t46.5 -108q25 -25 57.5 -36t99.5 -11h409v-28h-411q-75 0 -112 13.5t-66 41.5q-70 72 -70 370t70 370
q29 28 66 41.5t112 13.5h265q72 0 108 -12.5t64 -39.5q64 -64 64 -326q0 -187 -43 -230q-31 -30 -82 -30h-25q-67 0 -110 61q-42 -37 -66 -49t-56 -12h-39q-69 0 -96 28q-21 20 -30.5 60.5t-9.5 128.5t9.5 128.5t30.5 60.5q27 28 96 28h39q32 0 54.5 -11.5t65.5 -48.5l14 60
h47l-5 -110v-220q0 -42 17 -58q14 -16 59 -16zM474 116q45 0 103 38v248q-57 40 -101 40h-48q-42 0 -57 -16q-21 -21 -21 -147t21 -147q15 -16 57 -16h46z" />
    <glyph glyph-name="A" unicode="A" horiz-adv-x="742" 
d="M283 0h-260v67h84l194 606q6 18 14 24t29 6h54q21 0 29 -6t14 -24l194 -606h84v-67h-267v67h101l-53 168q-25 0 -129 -0.5t-137 -0.5l-52 -167h101v-67zM358 635l-104 -336h227l-104 336h-19z" />
    <glyph glyph-name="B" unicode="B" horiz-adv-x="686" 
d="M220 396h216q48 0 64 16q23 21 23 104q0 82 -21 103q-14 14 -61 14h-221v-237zM220 331v-264h227q47 0 61 14q21 21 21 117q0 94 -23 117q-16 16 -64 16h-222zM509 363q54 -11 77 -47.5t23 -116.5q0 -78 -10 -112.5t-32 -55.5q-31 -31 -104 -31h-415v67h98v566h-98v67
h412q73 0 103 -29q21 -21 30.5 -54.5t9.5 -101.5q0 -70 -23.5 -103.5t-70.5 -46.5v-2z" />
    <glyph glyph-name="C" unicode="C" horiz-adv-x="682" 
d="M451 0h-213q-76 0 -104 28q-28 27 -38 89t-10 233t10 233t38 89q28 28 104 28h214q79 0 106 -27q24 -24 32.5 -63t10.5 -128h-76q-3 114 -23 134q-14 14 -60 14h-191q-47 0 -61 -14q-13 -14 -18.5 -65.5t-5.5 -200.5t5.5 -200.5t18.5 -65.5q14 -14 61 -14h191q45 0 60 15
q11 11 16 40t7 104h77q-2 -95 -11 -136t-33 -66q-28 -27 -107 -27z" />
    <glyph glyph-name="D" unicode="D" horiz-adv-x="715" 
d="M428 700q95 0 139 -43q65 -67 65 -307t-65 -307q-44 -43 -139 -43h-380v67h98v566h-98v67h380zM221 633v-566h202q34 0 52 5t32 20q45 43 45 257q0 216 -45 259q-15 15 -32.5 20t-51.5 5h-202z" />
    <glyph glyph-name="E" unicode="E" horiz-adv-x="661" 
d="M146 633h-98v67h538v-205h-74v138h-291v-237h220v-65h-220v-264h297v151h74v-218h-544v67h98v566z" />
    <glyph glyph-name="F" unicode="F" horiz-adv-x="626" 
d="M146 633h-98v67h529v-205h-74v138h-282v-246h207v-65h-207v-255h105v-67h-278v67h98v566z" />
    <glyph glyph-name="G" unicode="G" horiz-adv-x="692" 
d="M603 488h-77q-3 109 -22 128q-14 14 -61 14h-192q-47 0 -61 -14q-13 -14 -18.5 -65.5t-5.5 -200.5t5.5 -200.5t18.5 -65.5q14 -14 61 -14h195q48 0 61 14q13 13 18.5 49t5.5 131v22h-177v65h253v-65q0 -134 -9 -182t-34 -74q-30 -30 -107 -30h-219q-76 0 -104 28
q-28 27 -38 89t-10 233t10 233t38 89q28 28 104 28h216q79 0 105 -27q24 -23 33 -61.5t11 -123.5z" />
    <glyph glyph-name="H" unicode="H" horiz-adv-x="778" 
d="M632 633v-566h98v-67h-275v67h102v264h-336v-264h102v-67h-275v67h98v566h-98v67h275v-67h-102v-237h336v237h-102v67h275v-67h-98z" />
    <glyph glyph-name="I" unicode="I" horiz-adv-x="388" 
d="M232 67h102v-67h-280v67h102v566h-102v67h280v-67h-102v-566z" />
    <glyph glyph-name="J" unicode="J" horiz-adv-x="615" 
d="M408 633h-104v67h275v-67h-96v-349q0 -122 -10.5 -172.5t-37.5 -78.5q-20 -19 -52 -26.5t-92 -7.5h-85q-85 0 -116 31q-24 24 -33.5 64.5t-11.5 128.5h76q4 -116 26 -138q18 -18 64 -18h71q77 0 96 19q16 16 23 55.5t7 136.5v355z" />
    <glyph glyph-name="K" unicode="K" horiz-adv-x="727" 
d="M527 65l-206 267h-100v-265h102v-67h-275v67h98v566h-98v67h275v-67h-102v-238h102l206 240h-93v65h259v-67h-83l-233 -264l238 -302h86v-67h-268v65h92z" />
    <glyph glyph-name="L" unicode="L" horiz-adv-x="617" 
d="M146 67v566h-98v67h277v-67h-104v-566h274v154h74v-221h-521v67h98z" />
    <glyph glyph-name="M" unicode="M" horiz-adv-x="980" 
d="M232 635h-14v-568h83v-67h-253v67h98v566h-98v67h220q17 0 23 -5t11 -22l184 -601h12l183 601q5 17 10.5 22t23.5 5h217v-67h-98v-566h98v-67h-256v67h83v568h-14l-194 -608q-5 -17 -11 -22t-22 -5h-59q-16 0 -22.5 5t-11.5 22z" />
    <glyph glyph-name="N" unicode="N" horiz-adv-x="775" 
d="M572 101v532h-102v67h269v-67h-96v-633h-88q-19 0 -27 5t-16 22l-282 586h-13v-546h102v-67h-271v67h98v566h-98v67h192q18 0 26.5 -5.5t16.5 -22.5l276 -571h13z" />
    <glyph glyph-name="O" unicode="O" horiz-adv-x="700" 
d="M238 700h224q76 0 104 -28q27 -27 37.5 -90t10.5 -232t-10.5 -232t-37.5 -90q-28 -28 -104 -28h-224q-76 0 -104 28q-28 27 -38 89t-10 233t10 233t38 89q28 28 104 28zM166 350q0 -149 5.5 -200.5t18.5 -65.5q14 -14 61 -14h197q47 0 61 14q13 13 18.5 64t5.5 202
t-5.5 202t-18.5 64q-14 14 -61 14h-197q-47 0 -61 -14q-13 -14 -18.5 -65.5t-5.5 -200.5z" />
    <glyph glyph-name="P" unicode="P" horiz-adv-x="641" 
d="M221 356h203q47 0 61 14q21 23 21 125q0 103 -21 124q-14 14 -61 14h-203v-277zM586 496q0 -82 -10 -118t-32 -59q-30 -30 -101 -30h-222v-222h105v-67h-278v67h98v566h-98v67h395q72 0 101 -30q22 -22 32 -58t10 -116z" />
    <glyph glyph-name="Q" unicode="Q" horiz-adv-x="700" 
d="M238 700h224q76 0 104 -28q27 -27 37.5 -90t10.5 -232t-10.5 -232t-37.5 -90q-28 -28 -100 -28l50 -108h-77l-45 108h-156q-76 0 -104 28q-28 27 -38 89t-10 233t10 233t38 89q28 28 104 28zM166 350q0 -150 5.5 -201.5t18.5 -65.5q15 -15 61 -15h113l-66 143h78l60 -143
h12q46 0 61 15q13 13 18.5 64.5t5.5 202.5t-5.5 202t-18.5 64q-14 14 -61 14h-197q-47 0 -61 -14q-13 -14 -18.5 -65.5t-5.5 -200.5z" />
    <glyph glyph-name="R" unicode="R" horiz-adv-x="705" 
d="M585 189q3 -75 7 -121h94v-68h-105q-37 0 -51 14q-11 11 -15.5 42.5t-7.5 131.5q-2 82 -24 104q-23 22 -76 22h-186v-247h102v-67h-275v67h98v566h-98v67h403q72 0 102 -29q22 -22 31 -55.5t9 -106.5q0 -87 -23 -120.5t-78 -44.5v-2q52 -11 71 -41t22 -112zM221 377h208
q45 0 62 17q22 22 22 111q0 92 -22 114q-14 14 -61 14h-209v-256z" />
    <glyph glyph-name="S" unicode="S" horiz-adv-x="667" 
d="M587 193q0 -69 -9 -104.5t-32 -57.5q-31 -31 -102 -31h-226q-74 0 -102 29q-21 21 -29 56t-9 126h77q1 -69 5 -93t14 -34q13 -14 56 -14h202q44 0 59 15q18 18 18 107q0 49 -3.5 67.5t-14.5 28.5q-13 14 -62 19l-206 20q-77 7 -103 34q-19 18 -26 50t-7 99q0 65 9 101
t32 58q31 31 101 31h204q75 0 103 -29q21 -21 29 -55t9 -122h-77q-1 66 -5 89t-14 33q-13 14 -56 14h-181q-43 0 -58 -15q-18 -17 -18 -104q0 -46 3.5 -64t14.5 -29q12 -13 62 -18l206 -20q76 -7 102 -33q19 -19 26.5 -52t7.5 -102z" />
    <glyph glyph-name="T" unicode="T" horiz-adv-x="698" 
d="M387 67h103v-67h-282v67h103v566h-183v-156h-74v223h590v-223h-74v156h-183v-566z" />
    <glyph glyph-name="U" unicode="U" horiz-adv-x="767" 
d="M560 633h-102v67h273v-67h-96v-348q0 -122 -10 -172t-37 -78q-20 -20 -52.5 -27.5t-92.5 -7.5h-122q-108 0 -142 35q-28 27 -37.5 76t-9.5 174v348h-96v67h273v-67h-102v-356q0 -95 7.5 -134.5t22.5 -54.5q19 -19 98 -19h99q78 0 97 19q16 15 22.5 53t6.5 136v356z" />
    <glyph glyph-name="V" unicode="V" horiz-adv-x="736" 
d="M107 633h-84v67h268v-67h-101l171 -563h20l172 563h-101v67h261v-67h-84l-192 -606q-6 -18 -14.5 -24t-29.5 -6h-50q-21 0 -29.5 6t-14.5 24z" />
    <glyph glyph-name="W" unicode="W" horiz-adv-x="1039" 
d="M547 703q21 0 30 -6.5t13 -24.5l138 -598h16l114 559h-96v67h250v-67h-84l-132 -606q-4 -18 -13 -24t-30 -6h-46q-21 0 -30 6.5t-13 24.5l-137 597h-15l-136 -597q-4 -18 -13.5 -24.5t-29.5 -6.5h-48q-21 0 -30 6t-13 24l-131 606h-84v67h257v-67h-96l113 -559h16
l138 598q4 18 13 24.5t30 6.5h49z" />
    <glyph glyph-name="X" unicode="X" horiz-adv-x="724" 
d="M121 67l194 284l-189 282h-86v67h267v-65h-93l149 -232h11l154 232h-93v65h257v-67h-86l-190 -273l195 -293h86v-67h-275v65h101l-154 243h-11l-158 -243h100v-65h-265v67h86z" />
    <glyph glyph-name="Y" unicode="Y" horiz-adv-x="699" 
d="M311 294l-209 339h-88v67h268v-65h-93l160 -274h7l165 274h-94v65h258v-67h-87l-212 -337v-229h103v-67h-281v67h103v227z" />
    <glyph glyph-name="Z" unicode="Z" horiz-adv-x="659" 
d="M166 65h355v150h74v-215h-530v51l433 584h-339v-145h-74v210h515v-51z" />
    <glyph glyph-name="bracketleft" unicode="[" horiz-adv-x="417" 
d="M98 700h259v-63h-187v-724h187v-63h-259v850z" />
    <glyph glyph-name="backslash" unicode="\" horiz-adv-x="469" 
d="M432 -160l-408 870h73l408 -870h-73z" />
    <glyph glyph-name="bracketright" unicode="]" horiz-adv-x="417" 
d="M319 700v-850h-258v63h187v724h-187v63h258z" />
    <glyph glyph-name="asciicircum" unicode="^" horiz-adv-x="514" 
d="M374 478l-118 166l-118 -166h-53v5l148 220h47l148 -220v-5h-54z" />
    <glyph glyph-name="underscore" unicode="_" horiz-adv-x="493" 
d="M-6 -125v60h504v-60h-504z" />
    <glyph glyph-name="grave" unicode="`" 
d="M343 604h-67l-142 113v5h116l93 -113v-5z" />
    <glyph glyph-name="a" unicode="a" horiz-adv-x="590" 
d="M405 381q0 64 -14 78q-13 13 -56 13h-96q-47 0 -62 -15q-18 -18 -19 -82h-72q2 98 34 131q29 29 98 29h130q73 0 100 -28q18 -17 23.5 -42.5t5.5 -79.5v-322h86v-63h-158v68q-52 -42 -80.5 -55.5t-67.5 -13.5h-63q-70 0 -100 30q-32 32 -32 118q0 90 33 123q36 36 153 36
q86 0 157 -12v87zM268 62q36 0 64 10t73 38v140h-160q-73 0 -92 -19q-18 -19 -18 -74q0 -64 16 -80q16 -15 59 -15h58z" />
    <glyph glyph-name="b" unicode="b" horiz-adv-x="624" 
d="M190 720v-256q54 44 82.5 58t69.5 14h56q81 0 114 -33q24 -25 33 -71.5t9 -163.5q0 -118 -9 -164.5t-33 -71.5q-33 -33 -114 -33h-56q-41 0 -69.5 14t-82.5 58v-71h-160v63h88v593h-88v64h160zM321 471q-33 0 -61 -10.5t-70 -37.5v-310q43 -27 71.5 -38t62.5 -11h59
q53 0 72 19q15 15 20 50.5t5 134.5q0 98 -5 134t-20 50q-18 19 -72 19h-62z" />
    <glyph glyph-name="c" unicode="c" horiz-adv-x="556" 
d="M225 0q-79 0 -109 30q-26 26 -35.5 73t-9.5 165q0 117 9.5 164t35.5 73q30 30 109 30h132q69 0 97 -28q19 -19 27.5 -50t9.5 -97h-72q-1 79 -19 95q-15 15 -59 15h-108q-49 0 -65 -16q-13 -13 -18.5 -49t-5.5 -137q0 -102 5.5 -138t18.5 -49q16 -16 65 -16h109
q45 0 61 15q17 18 18 101h71q-1 -72 -9 -102.5t-28 -50.5q-28 -28 -97 -28h-133z" />
    <glyph glyph-name="d" unicode="d" horiz-adv-x="624" 
d="M434 0v71q-54 -44 -82.5 -58t-69.5 -14h-56q-80 0 -113 33q-25 25 -33.5 71t-8.5 165q0 118 8.5 164t33.5 71q33 33 113 33h56q40 0 69 -14t83 -58v193h-92v63h164v-657h88v-63h-160zM303 64q57 0 131 48v309q-43 28 -71.5 39t-61.5 11h-60q-53 0 -72 -19
q-15 -15 -20 -51t-5 -133t5 -133.5t20 -51.5q21 -19 72 -19h62z" />
    <glyph glyph-name="e" unicode="e" horiz-adv-x="565" 
d="M485 241h-341q1 -86 6.5 -117.5t17.5 -43.5q15 -16 64 -16h117q42 0 59 16q16 17 18 84h71q-1 -60 -9 -88t-28 -48q-28 -28 -97 -28h-138q-79 0 -109 30q-26 26 -35.5 73t-9.5 165q0 117 9.5 164t35.5 73q30 30 109 30h118q79 0 108 -29q27 -27 36.5 -74.5t9.5 -160.5
v-18q0 -12 -12 -12zM167 455q-22 -23 -23 -154h280q0 130 -24 154q-15 16 -64 16h-104q-48 0 -65 -16z" />
    <glyph glyph-name="f" unicode="f" horiz-adv-x="348" 
d="M327 657h-71q-28 0 -39 -11q-13 -12 -13 -71v-40h114v-64h-113v-408h90v-63h-250v63h88v408h-88v64h88v42q0 89 27 116t81 27h86v-63z" />
    <glyph glyph-name="g" unicode="g" horiz-adv-x="624" 
d="M205 -150q-60 0 -86 26q-29 29 -29 104h69q1 -42 15 -57q14 -12 50 -12h143q37 0 51 13q16 16 16 80v103q-54 -44 -82.5 -58t-69.5 -14h-56q-80 0 -113 33q-24 24 -33 69t-9 149t9 148.5t33 68.5q33 33 113 33h56q40 0 69 -14t83 -58v71h160v-64h-88v-459q0 -62 -6.5 -89
t-25.5 -46q-27 -27 -94 -27h-175zM144 286q0 -86 5 -119t20 -48q21 -19 72 -19h62q57 0 131 48v273q-43 28 -71.5 39t-61.5 11h-60q-53 0 -72 -19q-15 -15 -20 -48t-5 -118z" />
    <glyph glyph-name="h" unicode="h" horiz-adv-x="640" 
d="M196 720v-256q55 44 83 58t69 14h63q63 0 92 -28q28 -29 28 -107v-338h86v-63h-242v63h84v334q0 43 -16 59q-15 15 -61 15h-55q-33 0 -61 -10.5t-70 -37.5v-360h84v-63h-244v63h88v593h-88v64h160z" />
    <glyph glyph-name="i" unicode="i" horiz-adv-x="334" 
d="M132 628v96h86v-96h-86zM301 0h-248v63h90v408h-90v64h162v-472h86v-63z" />
    <glyph glyph-name="j" unicode="j" horiz-adv-x="299" 
d="M123 628v96h86v-96h-86zM177 -124q-28 -28 -91 -28q-22 0 -52 5v59h43q31 0 45 12q13 15 13 51v496h-91v64h163v-546q0 -83 -30 -113z" />
    <glyph glyph-name="k" unicode="k" horiz-adv-x="597" 
d="M494 472l-170 -196l163 -213h89v-63h-135l-176 239h-69v-176h84v-63h-244v63h88v593h-88v64h160v-419h72l146 172h-83v62h239v-63h-76z" />
    <glyph glyph-name="l" unicode="l" horiz-adv-x="324" 
d="M293 0h-250v63h91v593h-91v64h162v-657h88v-63z" />
    <glyph glyph-name="m" unicode="m" horiz-adv-x="974" 
d="M205 535v-71q55 44 83 58t69 14h58q63 0 92 -28q17 -19 23 -48q59 47 87.5 61.5t69.5 14.5h58q63 0 92 -28q28 -28 28 -107v-338h86v-63h-241v63h84v334q0 42 -16 59q-15 15 -61 15h-51q-33 0 -61.5 -10.5t-70.5 -37.5q1 -7 1 -22v-338h84v-63h-239v63h83v334
q0 43 -16 59q-15 15 -61 15h-50q-33 0 -60.5 -10.5t-70.5 -37.5v-360h83v-63h-243v63h88v408h-88v64h160z" />
    <glyph glyph-name="n" unicode="n" horiz-adv-x="648" 
d="M205 535v-71q55 44 83 58t69 14h62q63 0 92 -28q28 -28 28 -107v-338h87v-63h-243v63h85v334q0 42 -16 59q-15 15 -61 15h-55q-33 0 -60.5 -10.5t-70.5 -37.5v-360h84v-63h-244v63h88v408h-88v64h160z" />
    <glyph glyph-name="o" unicode="o" horiz-adv-x="584" 
d="M225 0q-79 0 -109 30q-26 26 -35.5 73t-9.5 165q0 117 9.5 164t35.5 73q30 30 109 30h134q79 0 109 -30q26 -26 35.5 -73t9.5 -164q0 -118 -9.5 -165t-35.5 -73q-30 -30 -109 -30h-134zM144 268q0 -102 5.5 -138t18.5 -49q16 -16 65 -16h118q49 0 65 16q13 13 18.5 49
t5.5 138q0 101 -5.5 137t-18.5 49q-16 16 -65 16h-118q-49 0 -65 -16q-13 -13 -18.5 -49t-5.5 -137z" />
    <glyph glyph-name="p" unicode="p" horiz-adv-x="624" 
d="M554 268q0 -118 -9 -164.5t-33 -71.5q-33 -33 -114 -33h-56q-41 0 -69.5 14t-82.5 58v-158h93v-63h-253v63h88v558h-88v64h160v-71q54 44 82.5 58t69.5 14h56q81 0 114 -33q24 -25 33 -71.5t9 -163.5zM321 471q-33 0 -61 -10.5t-70 -37.5v-310q43 -27 71.5 -38t62.5 -11
h59q53 0 72 19q15 15 20 50.5t5 134.5q0 98 -5 134t-20 50q-18 19 -72 19h-62z" />
    <glyph glyph-name="q" unicode="q" horiz-adv-x="624" 
d="M71 268q0 118 8.5 164t33.5 71q33 33 113 33h56q40 0 69 -14t83 -58v71h160v-64h-88v-558h88v-63h-252v63h92v158q-54 -44 -82.5 -58t-69.5 -14h-56q-80 0 -113 33q-25 25 -33.5 71t-8.5 165zM303 64q57 0 131 48v309q-43 28 -71.5 39t-61.5 11h-60q-53 0 -72 -19
q-15 -15 -20 -51t-5 -133t5 -133.5t20 -51.5q21 -19 72 -19h62z" />
    <glyph glyph-name="r" unicode="r" horiz-adv-x="423" 
d="M205 63h89v-63h-249v63h88v408h-88v64h160v-87q51 54 76.5 71t57.5 17h58v-76h-66q-33 0 -59 -9t-67 -37v-351z" />
    <glyph glyph-name="s" unicode="s" horiz-adv-x="541" 
d="M72 388q0 90 33 123q24 24 79 24h169q59 0 82 -23q17 -17 23.5 -44t7.5 -91h-68q-2 70 -16 84q-12 12 -45 12h-137q-31 0 -42 -11q-16 -16 -16 -70q0 -53 11 -65q13 -12 53 -15l156 -17q66 -7 85 -26q26 -26 26 -118q0 -93 -33 -127q-24 -24 -79 -24h-180q-62 0 -85 23
q-18 18 -24 44.5t-7 94.5h68q2 -76 15 -89q11 -11 46 -11h150q32 0 44 12q15 15 15 73q0 55 -13 68q-10 10 -51 15l-154 16q-66 7 -86 27q-15 15 -21 39.5t-6 75.5z" />
    <glyph glyph-name="t" unicode="t" horiz-adv-x="382" 
d="M337 62v-47l-50 -12q-44 -7 -71 -7q-52 0 -77 25q-23 23 -23 84v366h-83v64h83v134h72v-134h150v-64h-150v-351q0 -37 11 -48q10 -10 47 -10h91z" />
    <glyph glyph-name="u" unicode="u" horiz-adv-x="634" 
d="M444 0v71q-55 -45 -83.5 -58.5t-68.5 -13.5h-63q-63 0 -92 29q-28 28 -28 106v337h-86v64h158v-397q0 -43 16 -58q16 -16 61 -16h55q33 0 61 10.5t70 37.5v359h-94v64h166v-472h88v-63h-160z" />
    <glyph glyph-name="v" unicode="v" horiz-adv-x="625" 
d="M94 471h-71v64h228v-64h-79l137 -397h13l136 397h-79v64h222v-64h-71l-162 -449q-6 -15 -12.5 -20t-20.5 -5h-45q-15 0 -21.5 5t-11.5 20z" />
    <glyph glyph-name="w" unicode="w" horiz-adv-x="864" 
d="M454 536q15 0 22 -5.5t11 -20.5l110 -438h12l89 399h-79v64h216v-64h-71l-108 -448q-4 -16 -10.5 -21t-21.5 -5h-47q-15 0 -21.5 5.5t-10.5 20.5l-109 429h-11l-109 -429q-4 -15 -10.5 -20.5t-21.5 -5.5h-46q-15 0 -21.5 5t-10.5 21l-109 448h-71v64h221v-64h-79l89 -399
h12l111 438q5 26 32 26h42z" />
    <glyph glyph-name="x" unicode="x" horiz-adv-x="604" 
d="M252 62v-62h-222v63h68l160 206l-155 203h-69v63h222v-62h-69l114 -160h6l118 160h-70v62h215v-63h-70l-154 -198l160 -211h68v-63h-229v62h77l-120 169h-5l-124 -169h79z" />
    <glyph glyph-name="y" unicode="y" horiz-adv-x="624" 
d="M174 471l140 -375h6l135 375h-78v64h223v-64h-71l-209 -563q-13 -34 -32 -47t-55 -13t-106 7v59h101q22 0 31 23l22 61l-187 473h-71v64h229v-64h-78z" />
    <glyph glyph-name="z" unicode="z" horiz-adv-x="557" 
d="M145 62h286v118h67v-180h-447v50l354 423h-271v-115h-67v177h433v-50z" />
    <glyph glyph-name="braceleft" unicode="{" horiz-adv-x="436" 
d="M64 252v46q92 10 110 28q12 12 12 37q0 14 -9 71.5t-9 86.5q0 36 25.5 73.5t107.5 115.5h57q-69 -81 -92 -118.5t-23 -61.5q0 -26 9 -82t9 -76q0 -43 -20.5 -63.5t-81.5 -32.5v-2q60 -12 81 -33.5t21 -65.5q0 -19 -9 -75.5t-9 -79.5q0 -24 23 -61.5t92 -118.5h-57
q-82 78 -107.5 115.5t-25.5 73.5q0 27 9 85t9 76q0 23 -11 33q-17 19 -111 29z" />
    <glyph glyph-name="bar" unicode="|" horiz-adv-x="312" 
d="M190 -160h-67v940h67v-940z" />
    <glyph glyph-name="braceright" unicode="}" horiz-adv-x="436" 
d="M373 252q-93 -10 -112 -29q-11 -11 -11 -33q0 -18 9 -76t9 -85q0 -36 -25.5 -73.5t-107.5 -115.5h-57q69 81 92 118.5t23 61.5q0 23 -9 79.5t-9 75.5q0 44 21 65.5t82 33.5v2q-62 12 -82.5 32.5t-20.5 63.5q0 20 9 76t9 82q0 24 -23 61.5t-92 118.5h57
q82 -78 107.5 -115.5t25.5 -73.5q0 -29 -9 -86.5t-9 -71.5q0 -25 12 -37q21 -18 111 -28v-46z" />
    <glyph glyph-name="asciitilde" unicode="~" horiz-adv-x="444" 
d="M76 260v66q0 29 11 40t31 11h11q24 0 63 -16l116 -45l22 60h38v-66q0 -29 -11 -40t-31 -11h-10q-23 0 -64 16l-116 45l-21 -60h-39z" />
    <glyph glyph-name="uni00A0" unicode="&#xa0;" horiz-adv-x="256" 
 />
    <glyph glyph-name="exclamdown" unicode="&#xa1;" horiz-adv-x="284" 
d="M124 500h34l34 -463v-37h-95v37zM190 599h-90v101h90v-101z" />
    <glyph glyph-name="cent" unicode="&#xa2;" horiz-adv-x="568" 
d="M233 93q-79 0 -109 30q-26 26 -35.5 72.5t-9.5 157.5q0 110 9.5 156.5t35.5 72.5q30 30 109 30h31v91h61v-91h40q69 0 97 -28q19 -18 27.5 -49t9.5 -92h-69q-4 75 -20 91q-15 15 -58 15h-30v-393h31q45 0 59 15q17 17 20 97h68q-1 -68 -9.5 -98t-27.5 -49
q-30 -28 -97 -28h-41v-96h-61v96h-31zM175 172q15 -16 64 -16h27v393h-27q-49 0 -64 -16q-13 -12 -19 -48.5t-6 -131.5t6 -131.5t19 -49.5z" />
    <glyph glyph-name="sterling" unicode="&#xa3;" horiz-adv-x="676" 
d="M593 488h-75q-2 105 -24 128q-18 17 -71 17h-92q-60 0 -78 -18q-23 -23 -23 -122v-113h199v-64h-199v-250h296v149h73v-215h-543v66h97v250h-96v64h96v106q0 79 10 118t34 63q19 19 48 26.5t86 7.5h102q87 0 118 -31q23 -23 32 -59.5t10 -122.5z" />
    <glyph glyph-name="yen" unicode="&#xa5;" horiz-adv-x="687" 
d="M568 319v-65h-190v-187h103v-67h-278v67h103v187h-189v65h173l-185 314h-87v67h266v-65h-93l152 -275h6l156 275h-93v65h257v-67h-88l-188 -314h175z" />
    <glyph glyph-name="section" unicode="&#xa7;" horiz-adv-x="654" 
d="M61 359q0 75 30 105q24 23 71 24q-14 27 -14 78q0 72 33 105q30 30 105 30h99q65 0 91 -26q19 -19 25.5 -45.5t7.5 -90.5h-71q-1 70 -18 85q-14 14 -51 14h-78q-39 0 -55 -15q-15 -15 -15 -62q0 -41 15 -56q14 -14 55 -18l188 -16q64 -5 88 -29q27 -26 27 -102
q0 -74 -30 -104q-24 -24 -72 -25q16 -28 16 -78q0 -70 -33 -104q-30 -30 -106 -30h-99q-63 0 -91 25q-18 19 -25 46t-8 91h71q2 -69 18 -86q13 -13 51 -13h78q41 0 55 14q15 15 15 63q0 39 -15 56q-15 13 -55 17l-187 17q-66 5 -89 28q-27 27 -27 102zM129 362q0 -43 14 -58
q13 -13 57 -17l255 -21q41 -3 54 10q17 17 17 61t-14 59q-12 13 -57 16l-255 21q-41 4 -53 -9q-18 -16 -18 -62z" />
    <glyph glyph-name="dieresis" unicode="&#xa8;" 
d="M116 629v95h83v-95h-83zM301 629v95h83v-95h-83z" />
    <glyph glyph-name="copyright" unicode="&#xa9;" horiz-adv-x="789" 
d="M155 52q-66 68 -66 298t66 298q26 27 61.5 39.5t106.5 12.5h142q71 0 107 -12.5t62 -39.5q65 -67 65 -298t-65 -298q-26 -27 -62 -39.5t-107 -12.5h-142q-71 0 -106.5 12.5t-61.5 39.5zM117 350q0 -221 59 -280q23 -24 54.5 -34.5t97.5 -10.5h133q66 0 97.5 10t53.5 34
q60 62 60 281q0 220 -60 280q-23 24 -54.5 34.5t-96.5 10.5h-133q-66 0 -98 -10t-54 -34q-59 -61 -59 -281zM451 163h-115q-42 0 -57 15q-16 16 -22 50.5t-6 126.5q0 93 6 127.5t22 50.5q15 15 57 15h115q44 0 59 -15q13 -13 18 -35t6 -70h-44q-1 60 -13 72q-6 7 -33 7h-98
q-26 0 -34 -8q-13 -12 -13 -144q0 -131 13 -143q8 -8 34 -8h98q27 0 33 7q11 12 13 77h45q-2 -52 -6.5 -74t-18.5 -35q-16 -16 -59 -16z" />
    <glyph glyph-name="ordfeminine" unicode="&#xaa;" horiz-adv-x="518" 
d="M104 585q1 71 24 94q22 21 72 21h93q53 0 73 -19q21 -22 21 -90v-225h60v-51h-116v48q-36 -30 -56.5 -39.5t-48.5 -9.5h-41q-52 0 -75 23q-24 24 -24 85q0 66 24 90q27 27 109 27q58 0 112 -10v60q0 43 -9 53q-9 8 -38 8h-73q-30 0 -39 -9q-11 -11 -11 -56h-57zM235 364
q42 0 96 34v95h-113q-52 0 -63 -11q-11 -12 -11 -53q0 -43 11 -54q13 -11 43 -11h37zM82 177v50h365v-50h-365z" />
    <glyph glyph-name="guillemotleft" unicode="&#xab;" horiz-adv-x="566" 
d="M56 243v49l154 160h86l-171 -184l172 -184h-87zM268 243v49l154 160h86l-171 -184l172 -184h-87z" />
    <glyph glyph-name="registered" unicode="&#xae;" horiz-adv-x="454" 
d="M193 521h55q14 0 19 5q7 7 7 32t-6 31q-5 5 -19 5h-56v-73zM301 464q0 -21 2 -35h29v-23h-36q-12 0 -16 4q-6 6 -7 53q-1 22 -7 28q-7 7 -23 7h-50v-69h30v-23h-86v23h29v165h-29v23h122q23 0 32 -9q12 -15 12 -49q0 -43 -30 -50v-1q16 -3 21.5 -12t6.5 -32zM268 333
q55 0 78 23q31 31 31 151t-31 151q-23 23 -78 23h-82q-55 0 -78 -23q-31 -31 -31 -151t31 -151q23 -23 78 -23h82zM269 314h-84q-63 0 -92 29q-37 39 -37 164t37 164q29 29 92 29h84q63 0 92 -29q37 -39 37 -164t-37 -164q-29 -29 -92 -29z" />
    <glyph glyph-name="macron" unicode="&#xaf;" 
d="M104 610v61h292v-61h-292z" />
    <glyph glyph-name="degree" unicode="&#xb0;" horiz-adv-x="417" 
d="M180 427h57q29 0 41 12q16 18 16 98t-16 98q-12 12 -41 12h-57q-29 0 -41 -12q-16 -18 -16 -98t16 -98q12 -12 41 -12zM352 537q0 -63 -7.5 -91.5t-25.5 -46.5q-22 -25 -76 -25h-69q-53 0 -76 25q-18 18 -25.5 46.5t-7.5 91.5t7.5 91.5t25.5 46.5q23 25 76 25h69
q54 0 76 -25q18 -18 25.5 -46.5t7.5 -91.5z" />
    <glyph glyph-name="plusminus" unicode="&#xb1;" horiz-adv-x="514" 
d="M290 619v-163h162v-66h-162v-162h-66v162h-162v66h162v163h66zM62 107v66h390v-66h-390z" />
    <glyph glyph-name="acute" unicode="&#xb4;" 
d="M132 604v5l93 113h116v-5l-142 -113h-67z" />
    <glyph glyph-name="paragraph" unicode="&#xb6;" horiz-adv-x="584" 
d="M53 496q0 80 10 116t32 58q29 30 101 30h346v-67h-98v-566h98v-67h-279v67h105v222h-172q-71 0 -101 30q-22 23 -32 59t-10 118z" />
    <glyph glyph-name="periodcentered" unicode="&#xb7;" horiz-adv-x="233" 
d="M68 370h97v-105h-97v105z" />
    <glyph glyph-name="cedilla" unicode="&#xb8;" 
d="M267 -36q47 0 62 -15q19 -19 19 -64q0 -44 -19 -63q-16 -16 -64 -16h-69l-44 32v14h105q21 0 28 6q8 7 8 27q0 19 -8 26q-7 7 -28 7h-48v46h58z" />
    <glyph glyph-name="ordmasculine" unicode="&#xba;" horiz-adv-x="503" 
d="M297 315h-90q-59 0 -83 24q-20 20 -28 56t-8 113q0 76 8 112t28 56q25 24 83 24h90q58 0 83 -24q20 -20 28 -55.5t8 -112.5q0 -78 -8 -114t-28 -55q-24 -24 -83 -24zM217 369h70q36 0 47 11q20 20 20 128q0 106 -20 126q-12 12 -47 12h-70q-35 0 -47 -12
q-19 -21 -19 -126q0 -107 19 -128q11 -11 47 -11zM87 177v50h330v-50h-330z" />
    <glyph glyph-name="guillemotright" unicode="&#xbb;" horiz-adv-x="566" 
d="M510 243l-154 -159h-85l171 183l-172 185h86l154 -160v-49zM298 243l-154 -159h-85l171 183l-172 185h86l154 -160v-49z" />
    <glyph glyph-name="questiondown" unicode="&#xbf;" horiz-adv-x="581" 
d="M364 599h-90v101h90v-101zM511 210q-1 -87 -8.5 -123.5t-27.5 -57.5q-29 -29 -103 -29h-158q-72 0 -105 31q-37 37 -37 140q0 61 7.5 88.5t30.5 50.5q19 19 105 56q38 18 53 33q19 19 21 96h61v-29q-1 -53 -6.5 -77.5t-21.5 -40.5q-20 -20 -81 -47q-57 -24 -71 -38
q-11 -11 -15 -28.5t-4 -60.5q0 -72 18 -91q16 -14 55 -14h137q40 0 55 14q16 16 17 127h78z" />
    <glyph glyph-name="Agrave" unicode="&#xc0;" horiz-adv-x="742" 
d="M283 0h-260v67h84l194 606q6 18 14 24t29 6h54q21 0 29 -6t14 -24l194 -606h84v-67h-267v67h101l-53 168q-25 0 -129 -0.5t-137 -0.5l-52 -167h101v-67zM358 635l-104 -336h227l-104 336h-19zM421 764h-67l-142 113v5h116l93 -113v-5z" />
    <glyph glyph-name="Aacute" unicode="&#xc1;" horiz-adv-x="742" 
d="M283 0h-260v67h84l194 606q6 18 14 24t29 6h54q21 0 29 -6t14 -24l194 -606h84v-67h-267v67h101l-53 168q-25 0 -129 -0.5t-137 -0.5l-52 -167h101v-67zM358 635l-104 -336h227l-104 336h-19zM315 764v5l93 113h116v-5l-142 -113h-67z" />
    <glyph glyph-name="Acircumflex" unicode="&#xc2;" horiz-adv-x="742" 
d="M283 0h-260v67h84l194 606q6 18 14 24t29 6h54q21 0 29 -6t14 -24l194 -606h84v-67h-267v67h101l-53 168q-25 0 -129 -0.5t-137 -0.5l-52 -167h101v-67zM358 635l-104 -336h227l-104 336h-19zM468 766l-101 72l-101 -72h-58v5l118 119h84l118 -119v-5h-60z" />
    <glyph glyph-name="Atilde" unicode="&#xc3;" horiz-adv-x="742" 
d="M283 0h-260v67h84l194 606q6 18 14 24t29 6h54q21 0 29 -6t14 -24l194 -606h84v-67h-267v67h101l-53 168q-25 0 -129 -0.5t-137 -0.5l-52 -167h101v-67zM358 635l-104 -336h227l-104 336h-19zM222 773v66q0 29 10 40q9 11 31 11h12q20 0 61 -15l118 -46l21 60h39v-66
q0 -29 -10 -40q-9 -11 -31 -11h-12q-20 0 -61 15l-118 46l-21 -60h-39z" />
    <glyph glyph-name="Adieresis" unicode="&#xc4;" horiz-adv-x="742" 
d="M283 0h-260v67h84l194 606q6 18 14 24t29 6h54q21 0 29 -6t14 -24l194 -606h84v-67h-267v67h101l-53 168q-25 0 -129 -0.5t-137 -0.5l-52 -167h101v-67zM358 635l-104 -336h227l-104 336h-19zM234 789v95h83v-95h-83zM419 789v95h83v-95h-83z" />
    <glyph glyph-name="Aring" unicode="&#xc5;" horiz-adv-x="742" 
d="M283 0h-260v67h84l191 597q-23 4 -36 19q-24 24 -24 77t24 78q19 20 66 20h84q47 0 66 -20q24 -25 24 -78t-24 -77q-12 -14 -35 -18l192 -598h84v-67h-267v67h101l-53 168q-25 0 -129 -0.5t-137 -0.5l-52 -167h101v-67zM358 635l-104 -336h227l-104 336h-19zM406 816h-72
q-24 0 -33 -9q-11 -11 -11 -47q0 -34 11 -47q8 -8 33 -8h72q25 0 33 8q11 13 11 47q0 36 -11 47q-9 9 -33 9z" />
    <glyph glyph-name="AE" unicode="&#xc6;" horiz-adv-x="1012" 
d="M401 65h98v170h-238l-97 -170h98v-65h-256v67h81l324 566h-115v67h643v-205h-74v138h-291v-237h220v-65h-220v-264h297v151h73v-218h-543v65zM499 636h-10l-192 -337h202v337z" />
    <glyph glyph-name="Ccedilla" unicode="&#xc7;" horiz-adv-x="682" 
d="M451 0h-213q-76 0 -104 28q-28 27 -38 89t-10 233t10 233t38 89q28 28 104 28h214q79 0 106 -27q24 -24 32.5 -63t10.5 -128h-76q-3 114 -23 134q-14 14 -60 14h-191q-47 0 -61 -14q-13 -14 -18.5 -65.5t-5.5 -200.5t5.5 -200.5t18.5 -65.5q14 -14 61 -14h191q45 0 60 15
q11 11 16 40t7 104h77q-2 -95 -11 -136t-33 -66q-28 -27 -107 -27zM355 -36q47 0 62 -15q19 -19 19 -64q0 -44 -19 -63q-16 -16 -64 -16h-69l-44 32v14h105q21 0 28 6q8 7 8 27q0 19 -8 26q-7 7 -28 7h-48v46h58z" />
    <glyph glyph-name="Egrave" unicode="&#xc8;" horiz-adv-x="661" 
d="M146 633h-98v67h538v-205h-74v138h-291v-237h220v-65h-220v-264h297v151h74v-218h-544v67h98v566zM382 764h-67l-142 113v5h116l93 -113v-5z" />
    <glyph glyph-name="Eacute" unicode="&#xc9;" horiz-adv-x="661" 
d="M276 764v5l93 113h116v-5l-142 -113h-67zM146 633h-98v67h538v-205h-74v138h-291v-237h220v-65h-220v-264h297v151h74v-218h-544v67h98v566z" />
    <glyph glyph-name="Ecircumflex" unicode="&#xca;" horiz-adv-x="661" 
d="M146 633h-98v67h538v-205h-74v138h-291v-237h220v-65h-220v-264h297v151h74v-218h-544v67h98v566zM429 766l-101 72l-101 -72h-58v5l118 119h84l118 -119v-5h-60z" />
    <glyph glyph-name="Edieresis" unicode="&#xcb;" horiz-adv-x="661" 
d="M195 789v95h83v-95h-83zM380 789v95h83v-95h-83zM146 633h-98v67h538v-205h-74v138h-291v-237h220v-65h-220v-264h297v151h74v-218h-544v67h98v566z" />
    <glyph glyph-name="Igrave" unicode="&#xcc;" horiz-adv-x="388" 
d="M232 67h102v-67h-280v67h102v566h-102v67h280v-67h-102v-566zM248 764h-67l-142 113v5h116l93 -113v-5z" />
    <glyph glyph-name="Iacute" unicode="&#xcd;" horiz-adv-x="388" 
d="M232 67h102v-67h-280v67h102v566h-102v67h280v-67h-102v-566zM140 764v5l93 113h116v-5l-142 -113h-67z" />
    <glyph glyph-name="Icircumflex" unicode="&#xce;" horiz-adv-x="388" 
d="M232 67h102v-67h-280v67h102v566h-102v67h280v-67h-102v-566zM294 766l-101 72l-101 -72h-58v5l118 119h84l118 -119v-5h-60z" />
    <glyph glyph-name="Idieresis" unicode="&#xcf;" horiz-adv-x="388" 
d="M232 67h102v-67h-280v67h102v566h-102v67h280v-67h-102v-566zM60 789v95h83v-95h-83zM245 789v95h83v-95h-83z" />
    <glyph glyph-name="Eth" unicode="&#xd0;" horiz-adv-x="714" 
d="M428 700q95 0 139 -43q32 -33 48 -103t16 -204t-16 -204t-48 -103q-44 -43 -139 -43h-380v67h98v261h-98v64h98v241h-98v67h380zM366 328h-145v-261h201q35 0 52.5 5t32.5 20q44 44 44 257q0 215 -44 259q-15 15 -32.5 20t-52.5 5h-201v-241h145v-64z" />
    <glyph glyph-name="Ntilde" unicode="&#xd1;" horiz-adv-x="775" 
d="M572 101v532h-102v67h269v-67h-96v-633h-88q-19 0 -27 5t-16 22l-282 586h-13v-546h102v-67h-271v67h98v566h-98v67h192q18 0 26.5 -5.5t16.5 -22.5l276 -571h13zM245 773v66q0 29 10 40q9 11 31 11h12q20 0 61 -15l118 -46l21 60h39v-66q0 -29 -10 -40q-9 -11 -31 -11
h-12q-20 0 -61 15l-118 46l-21 -60h-39z" />
    <glyph glyph-name="Ograve" unicode="&#xd2;" horiz-adv-x="700" 
d="M238 700h224q76 0 104 -28q27 -27 37.5 -90t10.5 -232t-10.5 -232t-37.5 -90q-28 -28 -104 -28h-224q-76 0 -104 28q-28 27 -38 89t-10 233t10 233t38 89q28 28 104 28zM166 350q0 -149 5.5 -200.5t18.5 -65.5q14 -14 61 -14h197q47 0 61 14q13 13 18.5 64t5.5 202
t-5.5 202t-18.5 64q-14 14 -61 14h-197q-47 0 -61 -14q-13 -14 -18.5 -65.5t-5.5 -200.5zM403 764h-67l-142 113v5h116l93 -113v-5z" />
    <glyph glyph-name="Oacute" unicode="&#xd3;" horiz-adv-x="700" 
d="M296 764v5l93 113h116v-5l-142 -113h-67zM238 700h224q76 0 104 -28q27 -27 37.5 -90t10.5 -232t-10.5 -232t-37.5 -90q-28 -28 -104 -28h-224q-76 0 -104 28q-28 27 -38 89t-10 233t10 233t38 89q28 28 104 28zM166 350q0 -149 5.5 -200.5t18.5 -65.5q14 -14 61 -14h197
q47 0 61 14q13 13 18.5 64t5.5 202t-5.5 202t-18.5 64q-14 14 -61 14h-197q-47 0 -61 -14q-13 -14 -18.5 -65.5t-5.5 -200.5z" />
    <glyph glyph-name="Ocircumflex" unicode="&#xd4;" horiz-adv-x="700" 
d="M238 700h224q76 0 104 -28q27 -27 37.5 -90t10.5 -232t-10.5 -232t-37.5 -90q-28 -28 -104 -28h-224q-76 0 -104 28q-28 27 -38 89t-10 233t10 233t38 89q28 28 104 28zM166 350q0 -149 5.5 -200.5t18.5 -65.5q14 -14 61 -14h197q47 0 61 14q13 13 18.5 64t5.5 202
t-5.5 202t-18.5 64q-14 14 -61 14h-197q-47 0 -61 -14q-13 -14 -18.5 -65.5t-5.5 -200.5zM449 766l-101 72l-101 -72h-58v5l118 119h84l118 -119v-5h-60z" />
    <glyph glyph-name="Otilde" unicode="&#xd5;" horiz-adv-x="700" 
d="M238 700h224q76 0 104 -28q27 -27 37.5 -90t10.5 -232t-10.5 -232t-37.5 -90q-28 -28 -104 -28h-224q-76 0 -104 28q-28 27 -38 89t-10 233t10 233t38 89q28 28 104 28zM166 350q0 -149 5.5 -200.5t18.5 -65.5q14 -14 61 -14h197q47 0 61 14q13 13 18.5 64t5.5 202
t-5.5 202t-18.5 64q-14 14 -61 14h-197q-47 0 -61 -14q-13 -14 -18.5 -65.5t-5.5 -200.5zM203 773v66q0 29 10 40q9 11 31 11h12q20 0 61 -15l118 -46l21 60h39v-66q0 -29 -10 -40q-9 -11 -31 -11h-12q-20 0 -61 15l-118 46l-21 -60h-39z" />
    <glyph glyph-name="Odieresis" unicode="&#xd6;" horiz-adv-x="700" 
d="M215 789v95h83v-95h-83zM400 789v95h83v-95h-83zM238 700h224q76 0 104 -28q27 -27 37.5 -90t10.5 -232t-10.5 -232t-37.5 -90q-28 -28 -104 -28h-224q-76 0 -104 28q-28 27 -38 89t-10 233t10 233t38 89q28 28 104 28zM166 350q0 -149 5.5 -200.5t18.5 -65.5
q14 -14 61 -14h197q47 0 61 14q13 13 18.5 64t5.5 202t-5.5 202t-18.5 64q-14 14 -61 14h-197q-47 0 -61 -14q-13 -14 -18.5 -65.5t-5.5 -200.5z" />
    <glyph glyph-name="multiply" unicode="&#xd7;" horiz-adv-x="514" 
d="M131 536l126 -127l126 127l46 -47l-126 -126l126 -126l-46 -47l-126 127l-126 -127l-47 47l126 126l-126 126z" />
    <glyph glyph-name="Oslash" unicode="&#xd8;" horiz-adv-x="700" 
d="M238 700h224h18l25 53h71l-31 -66q8 -4 21 -15q27 -27 37.5 -90t10.5 -232t-10.5 -232t-37.5 -90q-28 -28 -104 -28h-224h-19l-25 -53h-71l31 66q-10 5 -20 15q-28 27 -38 89t-10 233t10 233t38 89q28 28 104 28zM166 350q0 -149 5.5 -200.5t18.5 -65.5v-1l1 -1l257 548
h-197q-47 0 -61 -14q-13 -14 -18.5 -65.5t-5.5 -200.5zM509 616q-1 0 -1 0.5t-1 0.5l-256 -547h197q47 0 61 14q13 13 18.5 64t5.5 202t-5.5 202t-18.5 64z" />
    <glyph glyph-name="Ugrave" unicode="&#xd9;" horiz-adv-x="767" 
d="M560 633h-102v67h273v-67h-96v-348q0 -122 -10 -172t-37 -78q-20 -20 -52.5 -27.5t-92.5 -7.5h-122q-108 0 -142 35q-28 27 -37.5 76t-9.5 174v348h-96v67h273v-67h-102v-356q0 -95 7.5 -134.5t22.5 -54.5q19 -19 98 -19h99q78 0 97 19q16 15 22.5 53t6.5 136v356z
M436 764h-67l-142 113v5h116l93 -113v-5z" />
    <glyph glyph-name="Uacute" unicode="&#xda;" horiz-adv-x="767" 
d="M330 764v5l93 113h116v-5l-142 -113h-67zM560 633h-102v67h273v-67h-96v-348q0 -122 -10 -172t-37 -78q-20 -20 -52.5 -27.5t-92.5 -7.5h-122q-108 0 -142 35q-28 27 -37.5 76t-9.5 174v348h-96v67h273v-67h-102v-356q0 -95 7.5 -134.5t22.5 -54.5q19 -19 98 -19h99
q78 0 97 19q16 15 22.5 53t6.5 136v356z" />
    <glyph glyph-name="Ucircumflex" unicode="&#xdb;" horiz-adv-x="767" 
d="M560 633h-102v67h273v-67h-96v-348q0 -122 -10 -172t-37 -78q-20 -20 -52.5 -27.5t-92.5 -7.5h-122q-108 0 -142 35q-28 27 -37.5 76t-9.5 174v348h-96v67h273v-67h-102v-356q0 -95 7.5 -134.5t22.5 -54.5q19 -19 98 -19h99q78 0 97 19q16 15 22.5 53t6.5 136v356z
M483 766l-101 72l-101 -72h-58v5l118 119h84l118 -119v-5h-60z" />
    <glyph glyph-name="Udieresis" unicode="&#xdc;" horiz-adv-x="767" 
d="M249 789v95h83v-95h-83zM434 789v95h83v-95h-83zM560 633h-102v67h273v-67h-96v-348q0 -122 -10 -172t-37 -78q-20 -20 -52.5 -27.5t-92.5 -7.5h-122q-108 0 -142 35q-28 27 -37.5 76t-9.5 174v348h-96v67h273v-67h-102v-356q0 -95 7.5 -134.5t22.5 -54.5q19 -19 98 -19
h99q78 0 97 19q16 15 22.5 53t6.5 136v356z" />
    <glyph glyph-name="Yacute" unicode="&#xdd;" horiz-adv-x="699" 
d="M311 294l-209 339h-88v67h268v-65h-93l160 -274h7l165 274h-94v65h258v-67h-87l-212 -337v-229h103v-67h-281v67h103v227zM300 764v5l93 113h116v-5l-142 -113h-67z" />
    <glyph glyph-name="Thorn" unicode="&#xde;" horiz-adv-x="635" 
d="M441 160h-221v-95h105v-65h-279v67h98v566h-98v67h279v-65h-105v-90h221q71 0 101 -30q22 -23 32 -56.5t10 -104.5q0 -73 -10 -107.5t-32 -56.5q-29 -30 -101 -30zM220 225h202q46 0 61 15q21 21 21 112q0 92 -21 113q-14 14 -61 14h-202v-254z" />
    <glyph glyph-name="germandbls" unicode="&#xdf;" horiz-adv-x="623" 
d="M531 537q0 -69 -19.5 -101t-64.5 -45q63 -8 87 -46.5t24 -132.5q0 -82 -10 -120t-32 -60q-32 -32 -114 -32h-113v62h100q55 0 72 17q23 23 23 135q0 103 -22 125q-18 18 -73 18h-80v65h62q48 0 65 17q22 22 22 98q0 77 -22 97q-15 16 -63 16h-87q-43 0 -59 -16
q-21 -21 -21 -81v-553h-160v63h88v408h-88v64h88v18q0 91 37 128q31 31 101 31h116q75 0 104 -28q39 -39 39 -147z" />
    <glyph glyph-name="agrave" unicode="&#xe0;" horiz-adv-x="590" 
d="M405 381q0 64 -14 78q-13 13 -56 13h-96q-47 0 -62 -15q-18 -18 -19 -82h-72q2 98 34 131q29 29 98 29h130q73 0 100 -28q18 -17 23.5 -42.5t5.5 -79.5v-322h86v-63h-158v68q-52 -42 -80.5 -55.5t-67.5 -13.5h-63q-70 0 -100 30q-32 32 -32 118q0 90 33 123q36 36 153 36
q86 0 157 -12v87zM268 62q36 0 64 10t73 38v140h-160q-73 0 -92 -19q-18 -19 -18 -74q0 -64 16 -80q16 -15 59 -15h58zM343 604h-67l-142 113v5h116l93 -113v-5z" />
    <glyph glyph-name="aacute" unicode="&#xe1;" horiz-adv-x="590" 
d="M405 381q0 64 -14 78q-13 13 -56 13h-96q-47 0 -62 -15q-18 -18 -19 -82h-72q2 98 34 131q29 29 98 29h130q73 0 100 -28q18 -17 23.5 -42.5t5.5 -79.5v-322h86v-63h-158v68q-52 -42 -80.5 -55.5t-67.5 -13.5h-63q-70 0 -100 30q-32 32 -32 118q0 90 33 123q36 36 153 36
q86 0 157 -12v87zM268 62q36 0 64 10t73 38v140h-160q-73 0 -92 -19q-18 -19 -18 -74q0 -64 16 -80q16 -15 59 -15h58zM236 604v5l93 113h116v-5l-142 -113h-67z" />
    <glyph glyph-name="acircumflex" unicode="&#xe2;" horiz-adv-x="590" 
d="M405 381q0 64 -14 78q-13 13 -56 13h-96q-47 0 -62 -15q-18 -18 -19 -82h-72q2 98 34 131q29 29 98 29h130q73 0 100 -28q18 -17 23.5 -42.5t5.5 -79.5v-322h86v-63h-158v68q-52 -42 -80.5 -55.5t-67.5 -13.5h-63q-70 0 -100 30q-32 32 -32 118q0 90 33 123q36 36 153 36
q86 0 157 -12v87zM268 62q36 0 64 10t73 38v140h-160q-73 0 -92 -19q-18 -19 -18 -74q0 -64 16 -80q16 -15 59 -15h58zM389 606l-101 72l-101 -72h-58v5l118 119h84l118 -119v-5h-60z" />
    <glyph glyph-name="atilde" unicode="&#xe3;" horiz-adv-x="590" 
d="M405 381q0 64 -14 78q-13 13 -56 13h-96q-47 0 -62 -15q-18 -18 -19 -82h-72q2 98 34 131q29 29 98 29h130q73 0 100 -28q18 -17 23.5 -42.5t5.5 -79.5v-322h86v-63h-158v68q-52 -42 -80.5 -55.5t-67.5 -13.5h-63q-70 0 -100 30q-32 32 -32 118q0 90 33 123q36 36 153 36
q86 0 157 -12v87zM268 62q36 0 64 10t73 38v140h-160q-73 0 -92 -19q-18 -19 -18 -74q0 -64 16 -80q16 -15 59 -15h58zM143 613v66q0 29 10 40q9 11 31 11h12q20 0 61 -15l118 -46l21 60h39v-66q0 -29 -10 -40q-9 -11 -31 -11h-12q-20 0 -61 15l-118 46l-21 -60h-39z" />
    <glyph glyph-name="adieresis" unicode="&#xe4;" horiz-adv-x="590" 
d="M405 381q0 64 -14 78q-13 13 -56 13h-96q-47 0 -62 -15q-18 -18 -19 -82h-72q2 98 34 131q29 29 98 29h130q73 0 100 -28q18 -17 23.5 -42.5t5.5 -79.5v-322h86v-63h-158v68q-52 -42 -80.5 -55.5t-67.5 -13.5h-63q-70 0 -100 30q-32 32 -32 118q0 90 33 123q36 36 153 36
q86 0 157 -12v87zM268 62q36 0 64 10t73 38v140h-160q-73 0 -92 -19q-18 -19 -18 -74q0 -64 16 -80q16 -15 59 -15h58zM155 629v95h83v-95h-83zM340 629v95h83v-95h-83z" />
    <glyph glyph-name="aring" unicode="&#xe5;" horiz-adv-x="590" 
d="M405 381q0 64 -14 78q-13 13 -56 13h-96q-47 0 -62 -15q-18 -18 -19 -82h-72q2 98 34 131q29 29 98 29h130q73 0 100 -28q18 -17 23.5 -42.5t5.5 -79.5v-322h86v-63h-158v68q-52 -42 -80.5 -55.5t-67.5 -13.5h-63q-70 0 -100 30q-32 32 -32 118q0 90 33 123q36 36 153 36
q86 0 157 -12v87zM268 62q36 0 64 10t73 38v140h-160q-73 0 -92 -19q-18 -19 -18 -74q0 -64 16 -80q16 -15 59 -15h58zM331 609h-84q-47 0 -66 21q-24 24 -24 77t24 78q19 20 66 20h84q47 0 66 -20q24 -25 24 -78t-24 -77q-19 -21 -66 -21zM325 763h-72q-24 0 -33 -9
q-11 -11 -11 -47q0 -34 11 -47q8 -8 33 -8h72q25 0 33 8q11 13 11 47q0 36 -11 47q-9 9 -33 9z" />
    <glyph glyph-name="ae" unicode="&#xe6;" horiz-adv-x="898" 
d="M94 29q-32 32 -32 117q0 91 33 122q37 37 153 37q80 0 157 -13v89q0 64 -14 78q-13 13 -56 13h-96q-47 0 -62 -15q-18 -18 -19 -82h-72q2 98 34 131q29 29 98 29h118q74 0 101 -28q1 -2 3.5 -4.5t4.5 -5t4 -5.5q3 5 11 13q30 30 108 30h108q79 0 108 -29
q27 -27 36.5 -73.5t9.5 -159.5v-18q0 -12 -12 -12h-341q1 -87 6.5 -119t17.5 -44q15 -16 64 -16h117q42 0 59 16q16 17 18 84h71q-1 -60 -9 -88t-28 -48q-28 -28 -97 -28h-136q-79 0 -109 30q-21 20 -31 50q-61 -51 -90.5 -66t-72.5 -15h-63q-70 0 -100 30zM412 115
q-7 43 -7 133h-160q-73 0 -92 -19q-18 -18 -18 -73q0 -63 16 -79q16 -15 59 -15h58q37 0 66.5 11t77.5 42zM499 455q-21 -22 -22 -153h280q0 129 -24 153q-15 16 -64 16h-105q-49 0 -65 -16z" />
    <glyph glyph-name="ccedilla" unicode="&#xe7;" horiz-adv-x="556" 
d="M225 0q-79 0 -109 30q-26 26 -35.5 73t-9.5 165q0 117 9.5 164t35.5 73q30 30 109 30h132q69 0 97 -28q19 -19 27.5 -50t9.5 -97h-72q-1 79 -19 95q-15 15 -59 15h-108q-49 0 -65 -16q-13 -13 -18.5 -49t-5.5 -137q0 -102 5.5 -138t18.5 -49q16 -16 65 -16h109
q45 0 61 15q17 18 18 101h71q-1 -72 -9 -102.5t-28 -50.5q-28 -28 -97 -28h-133zM287 -36q47 0 62 -15q19 -19 19 -64q0 -44 -19 -63q-16 -16 -64 -16h-69l-44 32v14h105q21 0 28 6q8 7 8 27q0 19 -8 26q-7 7 -28 7h-48v46h58z" />
    <glyph glyph-name="egrave" unicode="&#xe8;" horiz-adv-x="565" 
d="M485 241h-341q1 -86 6.5 -117.5t17.5 -43.5q15 -16 64 -16h117q42 0 59 16q16 17 18 84h71q-1 -60 -9 -88t-28 -48q-28 -28 -97 -28h-138q-79 0 -109 30q-26 26 -35.5 73t-9.5 165q0 117 9.5 164t35.5 73q30 30 109 30h118q79 0 108 -29q27 -27 36.5 -74.5t9.5 -160.5
v-18q0 -12 -12 -12zM167 455q-22 -23 -23 -154h280q0 130 -24 154q-15 16 -64 16h-104q-48 0 -65 -16zM341 604h-67l-142 113v5h116l93 -113v-5z" />
    <glyph glyph-name="eacute" unicode="&#xe9;" horiz-adv-x="565" 
d="M485 241h-341q1 -86 6.5 -117.5t17.5 -43.5q15 -16 64 -16h117q42 0 59 16q16 17 18 84h71q-1 -60 -9 -88t-28 -48q-28 -28 -97 -28h-138q-79 0 -109 30q-26 26 -35.5 73t-9.5 165q0 117 9.5 164t35.5 73q30 30 109 30h118q79 0 108 -29q27 -27 36.5 -74.5t9.5 -160.5
v-18q0 -12 -12 -12zM167 455q-22 -23 -23 -154h280q0 130 -24 154q-15 16 -64 16h-104q-48 0 -65 -16zM234 604v5l93 113h116v-5l-142 -113h-67z" />
    <glyph glyph-name="ecircumflex" unicode="&#xea;" horiz-adv-x="565" 
d="M485 241h-341q1 -86 6.5 -117.5t17.5 -43.5q15 -16 64 -16h117q42 0 59 16q16 17 18 84h71q-1 -60 -9 -88t-28 -48q-28 -28 -97 -28h-138q-79 0 -109 30q-26 26 -35.5 73t-9.5 165q0 117 9.5 164t35.5 73q30 30 109 30h118q79 0 108 -29q27 -27 36.5 -74.5t9.5 -160.5
v-18q0 -12 -12 -12zM167 455q-22 -23 -23 -154h280q0 130 -24 154q-15 16 -64 16h-104q-48 0 -65 -16zM387 606l-101 72l-101 -72h-58v5l118 119h84l118 -119v-5h-60z" />
    <glyph glyph-name="edieresis" unicode="&#xeb;" horiz-adv-x="565" 
d="M485 241h-341q1 -86 6.5 -117.5t17.5 -43.5q15 -16 64 -16h117q42 0 59 16q16 17 18 84h71q-1 -60 -9 -88t-28 -48q-28 -28 -97 -28h-138q-79 0 -109 30q-26 26 -35.5 73t-9.5 165q0 117 9.5 164t35.5 73q30 30 109 30h118q79 0 108 -29q27 -27 36.5 -74.5t9.5 -160.5
v-18q0 -12 -12 -12zM167 455q-22 -23 -23 -154h280q0 130 -24 154q-15 16 -64 16h-104q-48 0 -65 -16zM338 629v95h83v-95h-83zM153 629v95h83v-95h-83z" />
    <glyph glyph-name="igrave" unicode="&#xec;" horiz-adv-x="334" 
d="M301 0h-248v63h90v408h-90v64h162v-472h86v-63zM215 604h-67l-142 113v5h116l93 -113v-5z" />
    <glyph glyph-name="iacute" unicode="&#xed;" horiz-adv-x="334" 
d="M109 604v5l93 113h116v-5l-142 -113h-67zM301 0h-248v63h90v408h-90v64h162v-472h86v-63z" />
    <glyph glyph-name="icircumflex" unicode="&#xee;" horiz-adv-x="334" 
d="M301 0h-248v63h90v408h-90v64h162v-472h86v-63zM262 606l-101 72l-101 -72h-58v5l118 119h84l118 -119v-5h-60z" />
    <glyph glyph-name="idieresis" unicode="&#xef;" horiz-adv-x="334" 
d="M28 629v95h83v-95h-83zM213 629v95h83v-95h-83zM301 0h-248v63h90v408h-90v64h162v-472h86v-63z" />
    <glyph glyph-name="eth" unicode="&#xf0;" horiz-adv-x="590" 
d="M224 608l109 37l-61 75h61l54 -56l134 46v-57l-94 -32q57 -63 71 -104q15 -41 15 -243q0 -122 -8.5 -169t-36.5 -75q-30 -30 -109 -30h-134q-79 0 -109 30q-26 26 -35.5 69.5t-9.5 143.5q0 99 9.5 142.5t35.5 69.5q30 30 109 30h63q40 0 68 -13.5t82 -57.5q-2 65 -12 95
q-9 28 -58 91l-144 -49v57zM440 274q0 71 -1 97q-43 28 -71 38.5t-62 10.5h-73q-50 0 -65 -15q-13 -13 -18.5 -45.5t-5.5 -116.5t5.5 -116.5t18.5 -45.5q16 -16 65 -16h118q49 0 65 16q14 14 19 52t5 141z" />
    <glyph glyph-name="ntilde" unicode="&#xf1;" horiz-adv-x="648" 
d="M205 535v-71q55 44 83 58t69 14h62q63 0 92 -28q28 -28 28 -107v-338h87v-63h-243v63h85v334q0 42 -16 59q-15 15 -61 15h-55q-33 0 -60.5 -10.5t-70.5 -37.5v-360h84v-63h-244v63h88v408h-88v64h160zM189 613v66q0 29 10 40q9 11 31 11h12q20 0 61 -15l118 -46l21 60h39
v-66q0 -29 -10 -40q-9 -11 -31 -11h-12q-20 0 -61 15l-118 46l-21 -60h-39z" />
    <glyph glyph-name="ograve" unicode="&#xf2;" horiz-adv-x="584" 
d="M225 0q-79 0 -109 30q-26 26 -35.5 73t-9.5 165q0 117 9.5 164t35.5 73q30 30 109 30h134q79 0 109 -30q26 -26 35.5 -73t9.5 -164q0 -118 -9.5 -165t-35.5 -73q-30 -30 -109 -30h-134zM144 268q0 -102 5.5 -138t18.5 -49q16 -16 65 -16h118q49 0 65 16q13 13 18.5 49
t5.5 138q0 101 -5.5 137t-18.5 49q-16 16 -65 16h-118q-49 0 -65 -16q-13 -13 -18.5 -49t-5.5 -137zM345 604h-67l-142 113v5h116l93 -113v-5z" />
    <glyph glyph-name="oacute" unicode="&#xf3;" horiz-adv-x="584" 
d="M239 604v5l93 113h116v-5l-142 -113h-67zM225 0q-79 0 -109 30q-26 26 -35.5 73t-9.5 165q0 117 9.5 164t35.5 73q30 30 109 30h134q79 0 109 -30q26 -26 35.5 -73t9.5 -164q0 -118 -9.5 -165t-35.5 -73q-30 -30 -109 -30h-134zM144 268q0 -102 5.5 -138t18.5 -49
q16 -16 65 -16h118q49 0 65 16q13 13 18.5 49t5.5 138q0 101 -5.5 137t-18.5 49q-16 16 -65 16h-118q-49 0 -65 -16q-13 -13 -18.5 -49t-5.5 -137z" />
    <glyph glyph-name="ocircumflex" unicode="&#xf4;" horiz-adv-x="584" 
d="M225 0q-79 0 -109 30q-26 26 -35.5 73t-9.5 165q0 117 9.5 164t35.5 73q30 30 109 30h134q79 0 109 -30q26 -26 35.5 -73t9.5 -164q0 -118 -9.5 -165t-35.5 -73q-30 -30 -109 -30h-134zM144 268q0 -102 5.5 -138t18.5 -49q16 -16 65 -16h118q49 0 65 16q13 13 18.5 49
t5.5 138q0 101 -5.5 137t-18.5 49q-16 16 -65 16h-118q-49 0 -65 -16q-13 -13 -18.5 -49t-5.5 -137zM392 606l-101 72l-101 -72h-58v5l118 119h84l118 -119v-5h-60z" />
    <glyph glyph-name="otilde" unicode="&#xf5;" horiz-adv-x="584" 
d="M225 0q-79 0 -109 30q-26 26 -35.5 73t-9.5 165q0 117 9.5 164t35.5 73q30 30 109 30h134q79 0 109 -30q26 -26 35.5 -73t9.5 -164q0 -118 -9.5 -165t-35.5 -73q-30 -30 -109 -30h-134zM144 268q0 -102 5.5 -138t18.5 -49q16 -16 65 -16h118q49 0 65 16q13 13 18.5 49
t5.5 138q0 101 -5.5 137t-18.5 49q-16 16 -65 16h-118q-49 0 -65 -16q-13 -13 -18.5 -49t-5.5 -137zM146 613v66q0 29 10 40q9 11 31 11h12q20 0 61 -15l118 -46l21 60h39v-66q0 -29 -10 -40q-9 -11 -31 -11h-12q-20 0 -61 15l-118 46l-21 -60h-39z" />
    <glyph glyph-name="odieresis" unicode="&#xf6;" horiz-adv-x="584" 
d="M158 629v95h83v-95h-83zM343 629v95h83v-95h-83zM225 0q-79 0 -109 30q-26 26 -35.5 73t-9.5 165q0 117 9.5 164t35.5 73q30 30 109 30h134q79 0 109 -30q26 -26 35.5 -73t9.5 -164q0 -118 -9.5 -165t-35.5 -73q-30 -30 -109 -30h-134zM144 268q0 -102 5.5 -138t18.5 -49
q16 -16 65 -16h118q49 0 65 16q13 13 18.5 49t5.5 138q0 101 -5.5 137t-18.5 49q-16 16 -65 16h-118q-49 0 -65 -16q-13 -13 -18.5 -49t-5.5 -137z" />
    <glyph glyph-name="divide" unicode="&#xf7;" horiz-adv-x="514" 
d="M62 330v66h390v-66h-390zM212 159v91h89v-91h-89zM212 476v91h89v-91h-89z" />
    <glyph glyph-name="oslash" unicode="&#xf8;" horiz-adv-x="584" 
d="M225 0q-31 0 -43 2l-28 -52h-68l39 71l-9 9q-26 26 -35.5 73t-9.5 165q0 117 9.5 164t35.5 73q30 30 109 30h134q28 0 40 -2l30 57h68l-41 -75l12 -10q26 -26 35.5 -73t9.5 -164q0 -118 -9.5 -165t-35.5 -73q-30 -30 -109 -30h-134zM440 268q0 97 -5 133.5t-17 49.5
l-203 -386h18h118q49 0 65 16q13 13 18.5 49t5.5 138zM144 268q0 -96 4.5 -133t15.5 -50l202 385h-15h-118q-49 0 -65 -16q-13 -13 -18.5 -49t-5.5 -137z" />
    <glyph glyph-name="ugrave" unicode="&#xf9;" horiz-adv-x="634" 
d="M444 0v71q-55 -45 -83.5 -58.5t-68.5 -13.5h-63q-63 0 -92 29q-28 28 -28 106v337h-86v64h158v-397q0 -43 16 -58q16 -16 61 -16h55q33 0 61 10.5t70 37.5v359h-94v64h166v-472h88v-63h-160zM358 604h-67l-142 113v5h116l93 -113v-5z" />
    <glyph glyph-name="uacute" unicode="&#xfa;" horiz-adv-x="634" 
d="M444 0v71q-55 -45 -83.5 -58.5t-68.5 -13.5h-63q-63 0 -92 29q-28 28 -28 106v337h-86v64h158v-397q0 -43 16 -58q16 -16 61 -16h55q33 0 61 10.5t70 37.5v359h-94v64h166v-472h88v-63h-160zM252 604v5l93 113h116v-5l-142 -113h-67z" />
    <glyph glyph-name="ucircumflex" unicode="&#xfb;" horiz-adv-x="634" 
d="M444 0v71q-55 -45 -83.5 -58.5t-68.5 -13.5h-63q-63 0 -92 29q-28 28 -28 106v337h-86v64h158v-397q0 -43 16 -58q16 -16 61 -16h55q33 0 61 10.5t70 37.5v359h-94v64h166v-472h88v-63h-160zM405 606l-101 72l-101 -72h-58v5l118 119h84l118 -119v-5h-60z" />
    <glyph glyph-name="udieresis" unicode="&#xfc;" horiz-adv-x="634" 
d="M444 0v71q-55 -45 -83.5 -58.5t-68.5 -13.5h-63q-63 0 -92 29q-28 28 -28 106v337h-86v64h158v-397q0 -43 16 -58q16 -16 61 -16h55q33 0 61 10.5t70 37.5v359h-94v64h166v-472h88v-63h-160zM356 629v95h83v-95h-83zM171 629v95h83v-95h-83z" />
    <glyph glyph-name="yacute" unicode="&#xfd;" horiz-adv-x="612" 
d="M168 471l140 -375h6l135 375h-78v64h223v-64h-71l-209 -563q-13 -34 -32 -47t-55 -13t-106 7v59h101q22 0 31 23l22 61l-187 473h-71v64h229v-64h-78zM258 604v5l93 113h116v-5l-142 -113h-67z" />
    <glyph glyph-name="thorn" unicode="&#xfe;" horiz-adv-x="615" 
d="M109 -87v743h-88v64h160v-256q54 44 82.5 58t69.5 14h56q81 0 114 -33q24 -25 33 -71.5t9 -163.5q0 -118 -9 -164.5t-33 -71.5q-33 -33 -114 -33h-56q-41 0 -69.5 14t-82.5 58v-158h93v-63h-253v63h88zM312 471q-33 0 -61 -10.5t-70 -37.5v-310q43 -27 71.5 -38t62.5 -11
h59q53 0 72 19q15 15 20 50.5t5 134.5q0 98 -5 134t-20 50q-18 19 -72 19h-62z" />
    <glyph glyph-name="ydieresis" unicode="&#xff;" horiz-adv-x="612" 
d="M168 471l140 -375h6l135 375h-78v64h223v-64h-71l-209 -563q-13 -34 -32 -47t-55 -13t-106 7v59h101q22 0 31 23l22 61l-187 473h-71v64h229v-64h-78zM362 629v95h83v-95h-83zM177 629v95h83v-95h-83z" />
    <glyph glyph-name="Amacron" unicode="&#x100;" horiz-adv-x="742" 
d="M283 0h-260v67h84l194 606q6 18 14 24t29 6h54q21 0 29 -6t14 -24l194 -606h84v-67h-267v67h101l-53 168q-25 0 -129 -0.5t-137 -0.5l-52 -167h101v-67zM358 635l-104 -336h227l-104 336h-19zM222 770v61h292v-61h-292z" />
    <glyph glyph-name="amacron" unicode="&#x101;" horiz-adv-x="590" 
d="M405 381q0 64 -14 78q-13 13 -56 13h-96q-47 0 -62 -15q-18 -18 -19 -82h-72q2 98 34 131q29 29 98 29h130q73 0 100 -28q18 -17 23.5 -42.5t5.5 -79.5v-322h86v-63h-158v68q-52 -42 -80.5 -55.5t-67.5 -13.5h-63q-70 0 -100 30q-32 32 -32 118q0 90 33 123q36 36 153 36
q86 0 157 -12v87zM268 62q36 0 64 10t73 38v140h-160q-73 0 -92 -19q-18 -19 -18 -74q0 -64 16 -80q16 -15 59 -15h58zM143 610v61h292v-61h-292z" />
    <glyph glyph-name="Abreve" unicode="&#x102;" horiz-adv-x="742" 
d="M283 0h-260v67h84l194 606q6 18 14 24t29 6h54q21 0 29 -6t14 -24l194 -606h84v-67h-267v67h101l-53 168q-25 0 -129 -0.5t-137 -0.5l-52 -167h101v-67zM358 635l-104 -336h227l-104 336h-19zM368 820q85 0 100 70h52q-4 -60 -43 -93.5t-109 -33.5t-109 33.5t-43 93.5h52
q15 -70 100 -70z" />
    <glyph glyph-name="abreve" unicode="&#x103;" horiz-adv-x="590" 
d="M405 381q0 64 -14 78q-13 13 -56 13h-96q-47 0 -62 -15q-18 -18 -19 -82h-72q2 98 34 131q29 29 98 29h130q73 0 100 -28q18 -17 23.5 -42.5t5.5 -79.5v-322h86v-63h-158v68q-52 -42 -80.5 -55.5t-67.5 -13.5h-63q-70 0 -100 30q-32 32 -32 118q0 90 33 123q36 36 153 36
q86 0 157 -12v87zM268 62q36 0 64 10t73 38v140h-160q-73 0 -92 -19q-18 -19 -18 -74q0 -64 16 -80q16 -15 59 -15h58zM289 660q85 0 100 70h52q-4 -60 -43 -93.5t-109 -33.5t-109 33.5t-43 93.5h52q15 -70 100 -70z" />
    <glyph glyph-name="Aogonek" unicode="&#x104;" horiz-adv-x="742" 
d="M650 -82h55q0 -47 -4.5 -67t-15.5 -31q-15 -14 -52 -14h-60q-37 0 -52 14q-20 19 -20 75q0 41 14 63q9 16 39 42h-102v67h101l-53 168q-25 0 -129 -0.5t-137 -0.5l-52 -167h101v-67h-260v67h84l194 606q6 18 14 24t29 6h54q21 0 29 -6t14 -24l194 -606h84v-67h-113
q-28 -26 -37 -41q-10 -16 -10 -48q0 -40 7 -47q8 -6 21 -6h35q14 0 21 6q7 7 7 54zM358 635l-104 -336h227l-104 336h-19z" />
    <glyph glyph-name="aogonek" unicode="&#x105;" horiz-adv-x="590" 
d="M499 -82h55q0 -47 -4.5 -67t-15.5 -31q-15 -14 -52 -14h-60q-37 0 -52 14q-20 19 -20 75q0 41 14 63q10 17 41 43v67q-52 -42 -80.5 -55.5t-67.5 -13.5h-63q-70 0 -100 30q-32 32 -32 118q0 90 33 123q36 36 153 36q86 0 157 -12v87q0 64 -14 78q-13 13 -56 13h-96
q-47 0 -62 -15q-18 -18 -19 -82h-72q2 98 34 131q29 29 98 29h130q73 0 100 -28q18 -17 23.5 -42.5t5.5 -79.5v-322h86v-63h-108q-28 -26 -37 -41q-10 -16 -10 -48q0 -40 7 -47q7 -6 21 -6h35q13 0 21 6q7 7 7 54zM268 62q36 0 64 10t73 38v140h-160q-73 0 -92 -19
q-18 -19 -18 -74q0 -64 16 -80q16 -15 59 -15h58z" />
    <glyph glyph-name="Cacute" unicode="&#x106;" horiz-adv-x="682" 
d="M295 764v5l93 113h116v-5l-142 -113h-67zM451 0h-213q-76 0 -104 28q-28 27 -38 89t-10 233t10 233t38 89q28 28 104 28h214q79 0 106 -27q24 -24 32.5 -63t10.5 -128h-76q-3 114 -23 134q-14 14 -60 14h-191q-47 0 -61 -14q-13 -14 -18.5 -65.5t-5.5 -200.5t5.5 -200.5
t18.5 -65.5q14 -14 61 -14h191q45 0 60 15q11 11 16 40t7 104h77q-2 -95 -11 -136t-33 -66q-28 -27 -107 -27z" />
    <glyph glyph-name="cacute" unicode="&#x107;" horiz-adv-x="556" 
d="M232 604v5l93 113h116v-5l-142 -113h-67zM225 0q-79 0 -109 30q-26 26 -35.5 73t-9.5 165q0 117 9.5 164t35.5 73q30 30 109 30h132q69 0 97 -28q19 -19 27.5 -50t9.5 -97h-72q-1 79 -19 95q-15 15 -59 15h-108q-49 0 -65 -16q-13 -13 -18.5 -49t-5.5 -137
q0 -102 5.5 -138t18.5 -49q16 -16 65 -16h109q45 0 61 15q17 18 18 101h71q-1 -72 -9 -102.5t-28 -50.5q-28 -28 -97 -28h-133z" />
    <glyph glyph-name="Cdotaccent" unicode="&#x10a;" horiz-adv-x="682" 
d="M451 0h-213q-76 0 -104 28q-28 27 -38 89t-10 233t10 233t38 89q28 28 104 28h214q79 0 106 -27q24 -24 32.5 -63t10.5 -128h-76q-3 114 -23 134q-14 14 -60 14h-191q-47 0 -61 -14q-13 -14 -18.5 -65.5t-5.5 -200.5t5.5 -200.5t18.5 -65.5q14 -14 61 -14h191q45 0 60 15
q11 11 16 40t7 104h77q-2 -95 -11 -136t-33 -66q-28 -27 -107 -27zM305 788v96h86v-96h-86z" />
    <glyph glyph-name="cdotaccent" unicode="&#x10b;" horiz-adv-x="556" 
d="M225 0q-79 0 -109 30q-26 26 -35.5 73t-9.5 165q0 117 9.5 164t35.5 73q30 30 109 30h132q69 0 97 -28q19 -19 27.5 -50t9.5 -97h-72q-1 79 -19 95q-15 15 -59 15h-108q-49 0 -65 -16q-13 -13 -18.5 -49t-5.5 -137q0 -102 5.5 -138t18.5 -49q16 -16 65 -16h109
q45 0 61 15q17 18 18 101h71q-1 -72 -9 -102.5t-28 -50.5q-28 -28 -97 -28h-133zM242 628v96h86v-96h-86z" />
    <glyph glyph-name="Ccaron" unicode="&#x10c;" horiz-adv-x="682" 
d="M451 0h-213q-76 0 -104 28q-28 27 -38 89t-10 233t10 233t38 89q28 28 104 28h214q79 0 106 -27q24 -24 32.5 -63t10.5 -128h-76q-3 114 -23 134q-14 14 -60 14h-191q-47 0 -61 -14q-13 -14 -18.5 -65.5t-5.5 -200.5t5.5 -200.5t18.5 -65.5q14 -14 61 -14h191q45 0 60 15
q11 11 16 40t7 104h77q-2 -95 -11 -136t-33 -66q-28 -27 -107 -27zM305 766l-118 119v5h60l101 -72l101 72h58v-5l-118 -119h-84z" />
    <glyph glyph-name="ccaron" unicode="&#x10d;" horiz-adv-x="556" 
d="M225 0q-79 0 -109 30q-26 26 -35.5 73t-9.5 165q0 117 9.5 164t35.5 73q30 30 109 30h132q69 0 97 -28q19 -19 27.5 -50t9.5 -97h-72q-1 79 -19 95q-15 15 -59 15h-108q-49 0 -65 -16q-13 -13 -18.5 -49t-5.5 -137q0 -102 5.5 -138t18.5 -49q16 -16 65 -16h109
q45 0 61 15q17 18 18 101h71q-1 -72 -9 -102.5t-28 -50.5q-28 -28 -97 -28h-133zM242 606l-118 119v5h60l101 -72l101 72h58v-5l-118 -119h-84z" />
    <glyph glyph-name="Dcaron" unicode="&#x10e;" horiz-adv-x="715" 
d="M428 700q95 0 139 -43q65 -67 65 -307t-65 -307q-44 -43 -139 -43h-380v67h98v566h-98v67h380zM221 633v-566h202q34 0 52 5t32 20q45 43 45 257q0 216 -45 259q-15 15 -32.5 20t-51.5 5h-202zM297 766l-118 119v5h60l101 -72l101 72h58v-5l-118 -119h-84z" />
    <glyph glyph-name="dcaron" unicode="&#x10f;" horiz-adv-x="668" 
d="M434 0v71q-54 -44 -82.5 -58t-69.5 -14h-56q-80 0 -113 33q-25 25 -33.5 71t-8.5 165q0 118 8.5 164t33.5 71q33 33 113 33h56q40 0 69 -14t83 -58v193h-92v63h164v-657h88v-63h-160zM303 64q57 0 131 48v309q-43 28 -71.5 39t-61.5 11h-60q-53 0 -72 -19
q-15 -15 -20 -51t-5 -133t5 -133.5t20 -51.5q21 -19 72 -19h62zM578 701v19h87v-76q0 -36 -5 -54.5t-21 -45.5l-37 -71l-28 11l23 88q3 14 3 23t-3 24z" />
    <glyph glyph-name="Dcroat" unicode="&#x110;" horiz-adv-x="714" 
d="M428 700q95 0 139 -43q32 -33 48 -103t16 -204t-16 -204t-48 -103q-44 -43 -139 -43h-380v67h98v261h-98v64h98v241h-98v67h380zM366 328h-145v-261h201q35 0 52.5 5t32.5 20q44 44 44 257q0 215 -44 259q-15 15 -32.5 20t-52.5 5h-201v-241h145v-64z" />
    <glyph glyph-name="dcroat" unicode="&#x111;" horiz-adv-x="624" 
d="M71 268q0 118 8.5 164t33.5 71q33 33 113 33h56q40 0 69 -14t83 -58v98h-153v60h153v35h-92v63h164v-98h88v-60h-88v-499h88v-63h-160v71q-54 -44 -82.5 -58t-69.5 -14h-56q-80 0 -113 33q-25 25 -33.5 71t-8.5 165zM303 64q57 0 131 48v309q-43 28 -71.5 39t-61.5 11
h-60q-53 0 -72 -19q-15 -15 -20 -51t-5 -133t5 -133.5t20 -51.5q21 -19 72 -19h62z" />
    <glyph glyph-name="Emacron" unicode="&#x112;" horiz-adv-x="661" 
d="M146 633h-98v67h538v-205h-74v138h-291v-237h220v-65h-220v-264h297v151h74v-218h-544v67h98v566zM183 770v61h292v-61h-292z" />
    <glyph glyph-name="emacron" unicode="&#x113;" horiz-adv-x="565" 
d="M485 241h-341q1 -86 6.5 -117.5t17.5 -43.5q15 -16 64 -16h117q42 0 59 16q16 17 18 84h71q-1 -60 -9 -88t-28 -48q-28 -28 -97 -28h-138q-79 0 -109 30q-26 26 -35.5 73t-9.5 165q0 117 9.5 164t35.5 73q30 30 109 30h118q79 0 108 -29q27 -27 36.5 -74.5t9.5 -160.5
v-18q0 -12 -12 -12zM167 455q-22 -23 -23 -154h280q0 130 -24 154q-15 16 -64 16h-104q-48 0 -65 -16zM141 610v61h292v-61h-292z" />
    <glyph glyph-name="Ebreve" unicode="&#x114;" horiz-adv-x="661" 
d="M146 633h-98v67h538v-205h-74v138h-291v-237h220v-65h-220v-264h297v151h74v-218h-544v67h98v566zM329 820q85 0 100 70h52q-4 -60 -43 -93.5t-109 -33.5t-109 33.5t-43 93.5h52q15 -70 100 -70z" />
    <glyph glyph-name="ebreve" unicode="&#x115;" horiz-adv-x="565" 
d="M485 241h-341q1 -86 6.5 -117.5t17.5 -43.5q15 -16 64 -16h117q42 0 59 16q16 17 18 84h71q-1 -60 -9 -88t-28 -48q-28 -28 -97 -28h-138q-79 0 -109 30q-26 26 -35.5 73t-9.5 165q0 117 9.5 164t35.5 73q30 30 109 30h118q79 0 108 -29q27 -27 36.5 -74.5t9.5 -160.5
v-18q0 -12 -12 -12zM167 455q-22 -23 -23 -154h280q0 130 -24 154q-15 16 -64 16h-104q-48 0 -65 -16zM287 660q85 0 100 70h52q-4 -60 -43 -93.5t-109 -33.5t-109 33.5t-43 93.5h52q15 -70 100 -70z" />
    <glyph glyph-name="Edotaccent" unicode="&#x116;" horiz-adv-x="661" 
d="M146 633h-98v67h538v-205h-74v138h-291v-237h220v-65h-220v-264h297v151h74v-218h-544v67h98v566zM286 788v96h86v-96h-86z" />
    <glyph glyph-name="edotaccent" unicode="&#x117;" horiz-adv-x="565" 
d="M485 241h-341q1 -86 6.5 -117.5t17.5 -43.5q15 -16 64 -16h117q42 0 59 16q16 17 18 84h71q-1 -60 -9 -88t-28 -48q-28 -28 -97 -28h-138q-79 0 -109 30q-26 26 -35.5 73t-9.5 165q0 117 9.5 164t35.5 73q30 30 109 30h118q79 0 108 -29q27 -27 36.5 -74.5t9.5 -160.5
v-18q0 -12 -12 -12zM167 455q-22 -23 -23 -154h280q0 130 -24 154q-15 16 -64 16h-104q-48 0 -65 -16zM244 628v96h86v-96h-86z" />
    <glyph glyph-name="Eogonek" unicode="&#x118;" horiz-adv-x="661" 
d="M146 633h-98v67h538v-205h-74v138h-291v-237h220v-65h-220v-264h297v151h74v-218h-109q-28 -26 -37 -41q-10 -16 -10 -48q0 -40 7 -47q7 -6 21 -6h35q13 0 21 6q7 7 7 54h55q0 -47 -4.5 -67t-15.5 -31q-15 -14 -52 -14h-60q-37 0 -52 14q-20 19 -20 75q0 41 14 63
q9 16 39 42h-383v67h98v566z" />
    <glyph glyph-name="eogonek" unicode="&#x119;" horiz-adv-x="565" 
d="M433 -82h55q0 -47 -4.5 -67t-15.5 -31q-15 -14 -52 -14h-60q-37 0 -52 14q-20 19 -20 75q0 41 14 63q9 16 39 42h-112q-79 0 -109 30q-26 26 -35.5 73t-9.5 165q0 117 9.5 164t35.5 73q30 30 109 30h118q79 0 108 -29q27 -27 36.5 -74.5t9.5 -160.5v-18q0 -12 -12 -12
h-341q1 -86 6.5 -117.5t17.5 -43.5q15 -16 64 -16h117q42 0 59 16q16 17 18 84h71q-1 -60 -9 -88t-28 -48q-24 -24 -70 -27q-28 -24 -38 -42q-10 -16 -10 -48q0 -40 7 -47q7 -6 21 -6h35q14 0 21 6q7 7 7 54zM167 455q-22 -23 -23 -154h280q0 130 -24 154q-15 16 -64 16
h-104q-48 0 -65 -16z" />
    <glyph glyph-name="Ecaron" unicode="&#x11a;" horiz-adv-x="661" 
d="M146 633h-98v67h538v-205h-74v138h-291v-237h220v-65h-220v-264h297v151h74v-218h-544v67h98v566zM286 766l-118 119v5h60l101 -72l101 72h58v-5l-118 -119h-84z" />
    <glyph glyph-name="ecaron" unicode="&#x11b;" horiz-adv-x="565" 
d="M485 241h-341q1 -86 6.5 -117.5t17.5 -43.5q15 -16 64 -16h117q42 0 59 16q16 17 18 84h71q-1 -60 -9 -88t-28 -48q-28 -28 -97 -28h-138q-79 0 -109 30q-26 26 -35.5 73t-9.5 165q0 117 9.5 164t35.5 73q30 30 109 30h118q79 0 108 -29q27 -27 36.5 -74.5t9.5 -160.5
v-18q0 -12 -12 -12zM167 455q-22 -23 -23 -154h280q0 130 -24 154q-15 16 -64 16h-104q-48 0 -65 -16zM244 606l-118 119v5h60l101 -72l101 72h58v-5l-118 -119h-84z" />
    <glyph glyph-name="Gbreve" unicode="&#x11e;" horiz-adv-x="692" 
d="M603 488h-77q-3 109 -22 128q-14 14 -61 14h-192q-47 0 -61 -14q-13 -14 -18.5 -65.5t-5.5 -200.5t5.5 -200.5t18.5 -65.5q14 -14 61 -14h195q48 0 61 14q13 13 18.5 49t5.5 131v22h-177v65h253v-65q0 -134 -9 -182t-34 -74q-30 -30 -107 -30h-219q-76 0 -104 28
q-28 27 -38 89t-10 233t10 233t38 89q28 28 104 28h216q79 0 105 -27q24 -23 33 -61.5t11 -123.5zM348 820q85 0 100 70h52q-4 -60 -43 -93.5t-109 -33.5t-109 33.5t-43 93.5h52q15 -70 100 -70z" />
    <glyph glyph-name="gbreve" unicode="&#x11f;" horiz-adv-x="624" 
d="M205 -150q-60 0 -86 26q-29 29 -29 104h69q1 -42 15 -57q14 -12 50 -12h143q37 0 51 13q16 16 16 80v103q-54 -44 -82.5 -58t-69.5 -14h-56q-80 0 -113 33q-24 24 -33 69t-9 149t9 148.5t33 68.5q33 33 113 33h56q40 0 69 -14t83 -58v71h160v-64h-88v-459q0 -62 -6.5 -89
t-25.5 -46q-27 -27 -94 -27h-175zM144 286q0 -86 5 -119t20 -48q21 -19 72 -19h62q57 0 131 48v273q-43 28 -71.5 39t-61.5 11h-60q-53 0 -72 -19q-15 -15 -20 -48t-5 -118zM318 660q85 0 100 70h52q-4 -60 -43 -93.5t-109 -33.5t-109 33.5t-43 93.5h52q15 -70 100 -70z" />
    <glyph glyph-name="Gdotaccent" unicode="&#x120;" horiz-adv-x="692" 
d="M603 488h-77q-3 109 -22 128q-14 14 -61 14h-192q-47 0 -61 -14q-13 -14 -18.5 -65.5t-5.5 -200.5t5.5 -200.5t18.5 -65.5q14 -14 61 -14h195q48 0 61 14q13 13 18.5 49t5.5 131v22h-177v65h253v-65q0 -134 -9 -182t-34 -74q-30 -30 -107 -30h-219q-76 0 -104 28
q-28 27 -38 89t-10 233t10 233t38 89q28 28 104 28h216q79 0 105 -27q24 -23 33 -61.5t11 -123.5zM305 788v96h86v-96h-86z" />
    <glyph glyph-name="gdotaccent" unicode="&#x121;" horiz-adv-x="624" 
d="M205 -150q-60 0 -86 26q-29 29 -29 104h69q1 -42 15 -57q14 -12 50 -12h143q37 0 51 13q16 16 16 80v103q-54 -44 -82.5 -58t-69.5 -14h-56q-80 0 -113 33q-24 24 -33 69t-9 149t9 148.5t33 68.5q33 33 113 33h56q40 0 69 -14t83 -58v71h160v-64h-88v-459q0 -62 -6.5 -89
t-25.5 -46q-27 -27 -94 -27h-175zM144 286q0 -86 5 -119t20 -48q21 -19 72 -19h62q57 0 131 48v273q-43 28 -71.5 39t-61.5 11h-60q-53 0 -72 -19q-15 -15 -20 -48t-5 -118zM275 628v96h86v-96h-86z" />
    <glyph glyph-name="Gcommaaccent" unicode="&#x122;" horiz-adv-x="692" 
d="M304 -70h89v-91q0 -33 -20 -56l-72 -85l-25 20l58 85q7 10 7 25v7h-37v95zM603 488h-77q-3 109 -22 128q-14 14 -61 14h-192q-47 0 -61 -14q-13 -14 -18.5 -65.5t-5.5 -200.5t5.5 -200.5t18.5 -65.5q14 -14 61 -14h195q48 0 61 14q13 13 18.5 49t5.5 131v22h-177v65h253
v-65q0 -134 -9 -182t-34 -74q-30 -30 -107 -30h-219q-76 0 -104 28q-28 27 -38 89t-10 233t10 233t38 89q28 28 104 28h216q79 0 105 -27q24 -23 33 -61.5t11 -123.5z" />
    <glyph glyph-name="gcommaaccent" unicode="&#x123;" horiz-adv-x="624" 
d="M205 -150q-60 0 -86 26q-29 29 -29 104h69q1 -42 15 -57q14 -12 50 -12h143q37 0 51 13q16 16 16 80v103q-54 -44 -82.5 -58t-69.5 -14h-56q-80 0 -113 33q-24 24 -33 69t-9 149t9 148.5t33 68.5q33 33 113 33h56q40 0 69 -14t83 -58v71h160v-64h-88v-459q0 -62 -6.5 -89
t-25.5 -46q-27 -27 -94 -27h-175zM144 286q0 -86 5 -119t20 -48q21 -19 72 -19h62q57 0 131 48v273q-43 28 -71.5 39t-61.5 11h-60q-53 0 -72 -19q-15 -15 -20 -48t-5 -118zM362 621h-89v91q0 33 20 56l72 85l25 -20l-58 -85q-7 -10 -7 -25v-7h37v-95z" />
    <glyph glyph-name="Hbar" unicode="&#x126;" horiz-adv-x="778" 
d="M730 480h-98v-413h98v-67h-275v67h102v252h-336v-252h102v-67h-275v67h98v413h-98v62h98v91h-98v67h275v-67h-102v-91h336v91h-102v67h275v-67h-98v-91h98v-62zM221 384h336v96h-336v-96z" />
    <glyph glyph-name="hbar" unicode="&#x127;" horiz-adv-x="640" 
d="M196 720v-98h154v-60h-154v-98q55 44 83 58t69 14h63q63 0 92 -28q28 -29 28 -107v-338h86v-63h-242v63h84v334q0 43 -16 59q-15 15 -61 15h-55q-33 0 -61 -10.5t-70 -37.5v-360h84v-63h-244v63h88v499h-88v60h88v34h-88v64h160z" />
    <glyph glyph-name="Imacron" unicode="&#x12a;" horiz-adv-x="388" 
d="M232 67h102v-67h-280v67h102v566h-102v67h280v-67h-102v-566zM48 770v61h292v-61h-292z" />
    <glyph glyph-name="imacron" unicode="&#x12b;" horiz-adv-x="334" 
d="M301 0h-248v63h90v408h-90v64h162v-472h86v-63zM16 610v61h292v-61h-292z" />
    <glyph glyph-name="Ibreve" unicode="&#x12c;" horiz-adv-x="388" 
d="M232 67h102v-67h-280v67h102v566h-102v67h280v-67h-102v-566zM194 820q85 0 100 70h52q-4 -60 -43 -93.5t-109 -33.5t-109 33.5t-43 93.5h52q15 -70 100 -70z" />
    <glyph glyph-name="ibreve" unicode="&#x12d;" horiz-adv-x="334" 
d="M301 0h-248v63h90v408h-90v64h162v-472h86v-63zM162 660q85 0 100 70h52q-4 -60 -43 -93.5t-109 -33.5t-109 33.5t-43 93.5h52q15 -70 100 -70z" />
    <glyph glyph-name="Iogonek" unicode="&#x12e;" horiz-adv-x="388" 
d="M261 -82h55q0 -47 -4.5 -67t-15.5 -31q-15 -14 -52 -14h-60q-37 0 -52 14q-20 19 -20 75q0 41 14 63q9 16 39 42h-111v67h102v566h-102v67h280v-67h-102v-566h102v-67h-117q-28 -26 -37 -41q-10 -16 -10 -48q0 -40 7 -47q7 -6 21 -6h35q13 0 21 6q7 7 7 54z" />
    <glyph glyph-name="iogonek" unicode="&#x12f;" horiz-adv-x="334" 
d="M232 -82h55q0 -47 -4.5 -67t-15.5 -31q-15 -14 -52 -14h-60q-37 0 -52 14q-20 19 -20 75q0 41 14 63q9 16 39 42h-83v63h90v408h-90v64h162v-472h86v-63h-113q-28 -26 -37 -41q-10 -16 -10 -48q0 -40 7 -47q8 -6 21 -6h35q14 0 21 6q7 7 7 54zM132 628v96h86v-96h-86z
" />
    <glyph glyph-name="Idotaccent" unicode="&#x130;" horiz-adv-x="388" 
d="M232 67h102v-67h-280v67h102v566h-102v67h280v-67h-102v-566zM151 788v96h86v-96h-86z" />
    <glyph glyph-name="dotlessi" unicode="&#x131;" horiz-adv-x="334" 
d="M301 0h-248v63h90v408h-90v64h162v-472h86v-63z" />
    <glyph glyph-name="Kcommaaccent" unicode="&#x136;" horiz-adv-x="727" 
d="M527 65l-206 267h-100v-265h102v-67h-275v67h98v566h-98v67h275v-67h-102v-238h102l206 240h-93v65h259v-67h-83l-233 -264l238 -302h86v-67h-268v65h92zM331 -70h89v-91q0 -33 -20 -56l-72 -85l-25 20l58 85q7 10 7 25v7h-37v95z" />
    <glyph glyph-name="kcommaaccent" unicode="&#x137;" horiz-adv-x="597" 
d="M494 472l-170 -196l163 -213h89v-63h-135l-176 239h-69v-176h84v-63h-244v63h88v593h-88v64h160v-419h72l146 172h-83v62h239v-63h-76zM262 -70h89v-91q0 -33 -20 -56l-72 -85l-25 20l58 85q7 10 7 25v7h-37v95z" />
    <glyph glyph-name="Lacute" unicode="&#x139;" horiz-adv-x="617" 
d="M142 758v5l93 113h116v-5l-142 -113h-67zM146 67v566h-98v67h277v-67h-104v-566h274v154h74v-221h-521v67h98z" />
    <glyph glyph-name="lacute" unicode="&#x13a;" horiz-adv-x="324" 
d="M116 764v5l93 113h116v-5l-142 -113h-67zM293 0h-250v63h91v593h-91v64h162v-657h88v-63z" />
    <glyph glyph-name="Lcommaaccent" unicode="&#x13b;" horiz-adv-x="617" 
d="M270 -70h89v-91q0 -33 -20 -56l-72 -85l-25 20l58 85q7 10 7 25v7h-37v95zM146 67v566h-98v67h277v-67h-104v-566h274v154h74v-221h-521v67h98z" />
    <glyph glyph-name="lcommaaccent" unicode="&#x13c;" horiz-adv-x="324" 
d="M125 -70h89v-91q0 -33 -20 -56l-72 -85l-25 20l58 85q7 10 7 25v7h-37v95zM293 0h-250v63h91v593h-91v64h162v-657h88v-63z" />
    <glyph glyph-name="Lcaron" unicode="&#x13d;" horiz-adv-x="617" 
d="M146 67v566h-98v67h277v-67h-104v-566h274v154h74v-221h-521v67h98zM381 681v19h87v-76q0 -36 -5 -54.5t-21 -45.5l-37 -71l-28 11l23 88q3 13 3 23q0 9 -3 24z" />
    <glyph glyph-name="lcaron" unicode="&#x13e;" horiz-adv-x="368" 
d="M293 0h-250v63h91v593h-91v64h162v-657h88v-63zM277 701v19h87v-76q0 -36 -5 -54.5t-21 -45.5l-37 -71l-28 11l23 88q3 14 3 23t-3 24z" />
    <glyph glyph-name="Ldot" unicode="&#x13f;" horiz-adv-x="618" 
d="M455 356v96h86v-96h-86zM146 67v566h-98v67h277v-67h-104v-566h274v154h74v-221h-521v67h98z" />
    <glyph glyph-name="ldot" unicode="&#x140;" horiz-adv-x="365" 
d="M309 295v96h86v-96h-86zM293 0h-250v63h91v593h-91v64h162v-657h88v-63z" />
    <glyph glyph-name="Lslash" unicode="&#x141;" horiz-adv-x="630" 
d="M154 67v246l-97 -28v66l97 28v254h-98v67h277v-67h-104v-232l182 54v-66l-182 -54v-268h274v154h74v-221h-521v67h98z" />
    <glyph glyph-name="lslash" unicode="&#x142;" horiz-adv-x="324" 
d="M293 0h-250v63h91v268l-90 -26v66l90 26v259h-91v64h162v-302l88 27v-67l-88 -26v-289h88v-63z" />
    <glyph glyph-name="Nacute" unicode="&#x143;" horiz-adv-x="775" 
d="M338 764v5l93 113h116v-5l-142 -113h-67zM572 101v532h-102v67h269v-67h-96v-633h-88q-19 0 -27 5t-16 22l-282 586h-13v-546h102v-67h-271v67h98v566h-98v67h192q18 0 26.5 -5.5t16.5 -22.5l276 -571h13z" />
    <glyph glyph-name="nacute" unicode="&#x144;" horiz-adv-x="648" 
d="M205 535v-71q55 44 83 58t69 14h62q63 0 92 -28q28 -28 28 -107v-338h87v-63h-243v63h85v334q0 42 -16 59q-15 15 -61 15h-55q-33 0 -60.5 -10.5t-70.5 -37.5v-360h84v-63h-244v63h88v408h-88v64h160zM282 604v5l93 113h116v-5l-142 -113h-67z" />
    <glyph glyph-name="Ncommaaccent" unicode="&#x145;" horiz-adv-x="775" 
d="M347 -70h89v-91q0 -33 -20 -56l-72 -85l-25 20l58 85q7 10 7 25v7h-37v95zM572 101v532h-102v67h269v-67h-96v-633h-88q-19 0 -27 5t-16 22l-282 586h-13v-546h102v-67h-271v67h98v566h-98v67h192q18 0 26.5 -5.5t16.5 -22.5l276 -571h13z" />
    <glyph glyph-name="ncommaaccent" unicode="&#x146;" horiz-adv-x="648" 
d="M205 535v-71q55 44 83 58t69 14h62q63 0 92 -28q28 -28 28 -107v-338h87v-63h-243v63h85v334q0 42 -16 59q-15 15 -61 15h-55q-33 0 -60.5 -10.5t-70.5 -37.5v-360h84v-63h-244v63h88v408h-88v64h160zM292 -70h89v-91q0 -33 -20 -56l-72 -85l-25 20l58 85q7 10 7 25v7
h-37v95z" />
    <glyph glyph-name="Ncaron" unicode="&#x147;" horiz-adv-x="775" 
d="M572 101v532h-102v67h269v-67h-96v-633h-88q-19 0 -27 5t-16 22l-282 586h-13v-546h102v-67h-271v67h98v566h-98v67h192q18 0 26.5 -5.5t16.5 -22.5l276 -571h13zM348 766l-118 119v5h60l101 -72l101 72h58v-5l-118 -119h-84z" />
    <glyph glyph-name="ncaron" unicode="&#x148;" horiz-adv-x="648" 
d="M205 535v-71q55 44 83 58t69 14h62q63 0 92 -28q28 -28 28 -107v-338h87v-63h-243v63h85v334q0 42 -16 59q-15 15 -61 15h-55q-33 0 -60.5 -10.5t-70.5 -37.5v-360h84v-63h-244v63h88v408h-88v64h160zM292 606l-118 119v5h60l101 -72l101 72h58v-5l-118 -119h-84z" />
    <glyph glyph-name="Omacron" unicode="&#x14c;" horiz-adv-x="700" 
d="M203 770v61h292v-61h-292zM238 700h224q76 0 104 -28q27 -27 37.5 -90t10.5 -232t-10.5 -232t-37.5 -90q-28 -28 -104 -28h-224q-76 0 -104 28q-28 27 -38 89t-10 233t10 233t38 89q28 28 104 28zM166 350q0 -149 5.5 -200.5t18.5 -65.5q14 -14 61 -14h197q47 0 61 14
q13 13 18.5 64t5.5 202t-5.5 202t-18.5 64q-14 14 -61 14h-197q-47 0 -61 -14q-13 -14 -18.5 -65.5t-5.5 -200.5z" />
    <glyph glyph-name="omacron" unicode="&#x14d;" horiz-adv-x="584" 
d="M146 610v61h292v-61h-292zM225 0q-79 0 -109 30q-26 26 -35.5 73t-9.5 165q0 117 9.5 164t35.5 73q30 30 109 30h134q79 0 109 -30q26 -26 35.5 -73t9.5 -164q0 -118 -9.5 -165t-35.5 -73q-30 -30 -109 -30h-134zM144 268q0 -102 5.5 -138t18.5 -49q16 -16 65 -16h118
q49 0 65 16q13 13 18.5 49t5.5 138q0 101 -5.5 137t-18.5 49q-16 16 -65 16h-118q-49 0 -65 -16q-13 -13 -18.5 -49t-5.5 -137z" />
    <glyph glyph-name="Obreve" unicode="&#x14e;" horiz-adv-x="700" 
d="M238 700h224q76 0 104 -28q27 -27 37.5 -90t10.5 -232t-10.5 -232t-37.5 -90q-28 -28 -104 -28h-224q-76 0 -104 28q-28 27 -38 89t-10 233t10 233t38 89q28 28 104 28zM166 350q0 -149 5.5 -200.5t18.5 -65.5q14 -14 61 -14h197q47 0 61 14q13 13 18.5 64t5.5 202
t-5.5 202t-18.5 64q-14 14 -61 14h-197q-47 0 -61 -14q-13 -14 -18.5 -65.5t-5.5 -200.5zM349 820q85 0 100 70h52q-4 -60 -43 -93.5t-109 -33.5t-109 33.5t-43 93.5h52q15 -70 100 -70z" />
    <glyph glyph-name="obreve" unicode="&#x14f;" horiz-adv-x="584" 
d="M225 0q-79 0 -109 30q-26 26 -35.5 73t-9.5 165q0 117 9.5 164t35.5 73q30 30 109 30h134q79 0 109 -30q26 -26 35.5 -73t9.5 -164q0 -118 -9.5 -165t-35.5 -73q-30 -30 -109 -30h-134zM144 268q0 -102 5.5 -138t18.5 -49q16 -16 65 -16h118q49 0 65 16q13 13 18.5 49
t5.5 138q0 101 -5.5 137t-18.5 49q-16 16 -65 16h-118q-49 0 -65 -16q-13 -13 -18.5 -49t-5.5 -137zM292 660q85 0 100 70h52q-4 -60 -43 -93.5t-109 -33.5t-109 33.5t-43 93.5h52q15 -70 100 -70z" />
    <glyph glyph-name="Ohungarumlaut" unicode="&#x150;" horiz-adv-x="700" 
d="M222 764v5l93 113h109v-5l-138 -113h-64zM406 764v5l93 113h109v-5l-138 -113h-64zM238 700h224q76 0 104 -28q27 -27 37.5 -90t10.5 -232t-10.5 -232t-37.5 -90q-28 -28 -104 -28h-224q-76 0 -104 28q-28 27 -38 89t-10 233t10 233t38 89q28 28 104 28zM166 350
q0 -149 5.5 -200.5t18.5 -65.5q14 -14 61 -14h197q47 0 61 14q13 13 18.5 64t5.5 202t-5.5 202t-18.5 64q-14 14 -61 14h-197q-47 0 -61 -14q-13 -14 -18.5 -65.5t-5.5 -200.5z" />
    <glyph glyph-name="ohungarumlaut" unicode="&#x151;" horiz-adv-x="584" 
d="M164 604v5l93 113h109v-5l-138 -113h-64zM348 604v5l93 113h109v-5l-138 -113h-64zM225 0q-79 0 -109 30q-26 26 -35.5 73t-9.5 165q0 117 9.5 164t35.5 73q30 30 109 30h134q79 0 109 -30q26 -26 35.5 -73t9.5 -164q0 -118 -9.5 -165t-35.5 -73q-30 -30 -109 -30h-134z
M144 268q0 -102 5.5 -138t18.5 -49q16 -16 65 -16h118q49 0 65 16q13 13 18.5 49t5.5 138q0 101 -5.5 137t-18.5 49q-16 16 -65 16h-118q-49 0 -65 -16q-13 -13 -18.5 -49t-5.5 -137z" />
    <glyph glyph-name="OE" unicode="&#x152;" horiz-adv-x="992" 
d="M284 67h195v566h-195q-34 0 -52 -5t-32 -20q-45 -43 -45 -257q0 -216 45 -259q15 -15 32.5 -20t51.5 -5zM924 0h-645q-95 0 -139 43q-65 67 -65 307t65 307q44 43 139 43h640v-205h-74v138h-291v-237h220v-65h-220v-264h297v151h73v-218z" />
    <glyph glyph-name="oe" unicode="&#x153;" horiz-adv-x="934" 
d="M866 164q-1 -60 -9 -88t-28 -48q-27 -28 -97 -28h-129q-77 0 -107 30q-11 9 -20 25q-6 -12 -19 -25q-30 -30 -107 -30h-125q-79 0 -109 30q-26 26 -35.5 73t-9.5 165q0 117 9.5 164t35.5 73q30 30 109 30h125q77 0 107 -30q14 -16 19 -26q9 15 20 26q30 30 107 30h109
q79 0 109 -29q26 -27 35.5 -74.5t9.5 -160.5v-18q0 -12 -12 -12h-341q1 -85 6.5 -117t17.5 -44q15 -16 64 -16h117q43 0 59 16t18 84h71zM144 268q0 -102 5.5 -138t18.5 -49q16 -16 65 -16h118q49 0 65 16q13 13 18.5 49t5.5 138q0 101 -5.5 137t-18.5 49q-16 16 -65 16
h-118q-49 0 -65 -16q-13 -13 -18.5 -49t-5.5 -137zM536 455q-22 -23 -23 -154h280q0 78 -5.5 110t-18.5 44q-15 16 -64 16h-104q-48 0 -65 -16z" />
    <glyph glyph-name="Racute" unicode="&#x154;" horiz-adv-x="705" 
d="M294 764v5l93 113h116v-5l-142 -113h-67zM585 189q3 -75 7 -121h94v-68h-105q-37 0 -51 14q-11 11 -15.5 42.5t-7.5 131.5q-2 82 -24 104q-23 22 -76 22h-186v-247h102v-67h-275v67h98v566h-98v67h403q72 0 102 -29q22 -22 31 -55.5t9 -106.5q0 -87 -23 -120.5t-78 -44.5
v-2q52 -11 71 -41t22 -112zM221 377h208q45 0 62 17q22 22 22 111q0 92 -22 114q-14 14 -61 14h-209v-256z" />
    <glyph glyph-name="racute" unicode="&#x155;" horiz-adv-x="427" 
d="M205 63h89v-63h-249v63h88v408h-88v64h160v-87q51 54 76.5 71t57.5 17h58v-76h-66q-33 0 -59 -9t-67 -37v-351zM169 604v5l93 113h116v-5l-142 -113h-67z" />
    <glyph glyph-name="Rcommaaccent" unicode="&#x156;" horiz-adv-x="705" 
d="M315 -70h89v-91q0 -33 -20 -56l-72 -85l-25 20l58 85q7 10 7 25v7h-37v95zM585 189q3 -75 7 -121h94v-68h-105q-37 0 -51 14q-11 11 -15.5 42.5t-7.5 131.5q-2 82 -24 104q-23 22 -76 22h-186v-247h102v-67h-275v67h98v566h-98v67h403q72 0 102 -29q22 -22 31 -55.5
t9 -106.5q0 -87 -23 -120.5t-78 -44.5v-2q52 -11 71 -41t22 -112zM221 377h208q45 0 62 17q22 22 22 111q0 92 -22 114q-14 14 -61 14h-209v-256z" />
    <glyph glyph-name="rcommaaccent" unicode="&#x157;" horiz-adv-x="423" 
d="M205 63h89v-63h-249v63h88v408h-88v64h160v-87q51 54 76.5 71t57.5 17h58v-76h-66q-33 0 -59 -9t-67 -37v-351zM123 -70h89v-91q0 -33 -20 -56l-72 -85l-25 20l58 85q7 10 7 25v7h-37v95z" />
    <glyph glyph-name="Rcaron" unicode="&#x158;" horiz-adv-x="705" 
d="M585 189q3 -75 7 -121h94v-68h-105q-37 0 -51 14q-11 11 -15.5 42.5t-7.5 131.5q-2 82 -24 104q-23 22 -76 22h-186v-247h102v-67h-275v67h98v566h-98v67h403q72 0 102 -29q22 -22 31 -55.5t9 -106.5q0 -87 -23 -120.5t-78 -44.5v-2q52 -11 71 -41t22 -112zM221 377h208
q45 0 62 17q22 22 22 111q0 92 -22 114q-14 14 -61 14h-209v-256zM304 766l-118 119v5h60l101 -72l101 72h58v-5l-118 -119h-84z" />
    <glyph glyph-name="rcaron" unicode="&#x159;" horiz-adv-x="423" 
d="M205 63h89v-63h-249v63h88v408h-88v64h160v-87q51 54 76.5 71t57.5 17h58v-76h-66q-33 0 -59 -9t-67 -37v-351zM180 606l-118 119v5h60l101 -72l101 72h58v-5l-118 -119h-84z" />
    <glyph glyph-name="Sacute" unicode="&#x15a;" horiz-adv-x="667" 
d="M280 764v5l93 113h116v-5l-142 -113h-67zM587 193q0 -69 -9 -104.5t-32 -57.5q-31 -31 -102 -31h-226q-74 0 -102 29q-21 21 -29 56t-9 126h77q1 -69 5 -93t14 -34q13 -14 56 -14h202q44 0 59 15q18 18 18 107q0 49 -3.5 67.5t-14.5 28.5q-13 14 -62 19l-206 20
q-77 7 -103 34q-19 18 -26 50t-7 99q0 65 9 101t32 58q31 31 101 31h204q75 0 103 -29q21 -21 29 -55t9 -122h-77q-1 66 -5 89t-14 33q-13 14 -56 14h-181q-43 0 -58 -15q-18 -17 -18 -104q0 -46 3.5 -64t14.5 -29q12 -13 62 -18l206 -20q76 -7 102 -33q19 -19 26.5 -52
t7.5 -102z" />
    <glyph glyph-name="sacute" unicode="&#x15b;" horiz-adv-x="541" 
d="M217 604v5l93 113h116v-5l-142 -113h-67zM72 388q0 90 33 123q24 24 79 24h169q59 0 82 -23q17 -17 23.5 -44t7.5 -91h-68q-2 70 -16 84q-12 12 -45 12h-137q-31 0 -42 -11q-16 -16 -16 -70q0 -53 11 -65q13 -12 53 -15l156 -17q66 -7 85 -26q26 -26 26 -118
q0 -93 -33 -127q-24 -24 -79 -24h-180q-62 0 -85 23q-18 18 -24 44.5t-7 94.5h68q2 -76 15 -89q11 -11 46 -11h150q32 0 44 12q15 15 15 73q0 55 -13 68q-10 10 -51 15l-154 16q-66 7 -86 27q-15 15 -21 39.5t-6 75.5z" />
    <glyph glyph-name="Scedilla" unicode="&#x15e;" horiz-adv-x="667" 
d="M587 193q0 -69 -9 -104.5t-32 -57.5q-31 -31 -102 -31h-226q-74 0 -102 29q-21 21 -29 56t-9 126h77q1 -69 5 -93t14 -34q13 -14 56 -14h202q44 0 59 15q18 18 18 107q0 49 -3.5 67.5t-14.5 28.5q-13 14 -62 19l-206 20q-77 7 -103 34q-19 18 -26 50t-7 99q0 65 9 101
t32 58q31 31 101 31h204q75 0 103 -29q21 -21 29 -55t9 -122h-77q-1 66 -5 89t-14 33q-13 14 -56 14h-181q-43 0 -58 -15q-18 -17 -18 -104q0 -46 3.5 -64t14.5 -29q12 -13 62 -18l206 -20q76 -7 102 -33q19 -19 26.5 -52t7.5 -102zM345 -36q47 0 62 -15q19 -19 19 -64
q0 -44 -19 -63q-16 -16 -64 -16h-69l-44 32v14h105q21 0 28 6q8 7 8 27q0 19 -8 26q-7 7 -28 7h-48v46h58z" />
    <glyph glyph-name="scedilla" unicode="&#x15f;" horiz-adv-x="541" 
d="M72 388q0 90 33 123q24 24 79 24h169q59 0 82 -23q17 -17 23.5 -44t7.5 -91h-68q-2 70 -16 84q-12 12 -45 12h-137q-31 0 -42 -11q-16 -16 -16 -70q0 -53 11 -65q13 -12 53 -15l156 -17q66 -7 85 -26q26 -26 26 -118q0 -93 -33 -127q-24 -24 -79 -24h-180q-62 0 -85 23
q-18 18 -24 44.5t-7 94.5h68q2 -76 15 -89q11 -11 46 -11h150q32 0 44 12q15 15 15 73q0 55 -13 68q-10 10 -51 15l-154 16q-66 7 -86 27q-15 15 -21 39.5t-6 75.5zM279 -36q47 0 62 -15q19 -19 19 -64q0 -44 -19 -63q-16 -16 -64 -16h-69l-44 32v14h105q21 0 28 6q8 7 8 27
q0 19 -8 26q-7 7 -28 7h-48v46h58z" />
    <glyph glyph-name="Scaron" unicode="&#x160;" horiz-adv-x="667" 
d="M587 193q0 -69 -9 -104.5t-32 -57.5q-31 -31 -102 -31h-226q-74 0 -102 29q-21 21 -29 56t-9 126h77q1 -69 5 -93t14 -34q13 -14 56 -14h202q44 0 59 15q18 18 18 107q0 49 -3.5 67.5t-14.5 28.5q-13 14 -62 19l-206 20q-77 7 -103 34q-19 18 -26 50t-7 99q0 65 9 101
t32 58q31 31 101 31h204q75 0 103 -29q21 -21 29 -55t9 -122h-77q-1 66 -5 89t-14 33q-13 14 -56 14h-181q-43 0 -58 -15q-18 -17 -18 -104q0 -46 3.5 -64t14.5 -29q12 -13 62 -18l206 -20q76 -7 102 -33q19 -19 26.5 -52t7.5 -102zM290 766l-118 119v5h60l101 -72l101 72
h58v-5l-118 -119h-84z" />
    <glyph glyph-name="scaron" unicode="&#x161;" horiz-adv-x="541" 
d="M72 388q0 90 33 123q24 24 79 24h169q59 0 82 -23q17 -17 23.5 -44t7.5 -91h-68q-2 70 -16 84q-12 12 -45 12h-137q-31 0 -42 -11q-16 -16 -16 -70q0 -53 11 -65q13 -12 53 -15l156 -17q66 -7 85 -26q26 -26 26 -118q0 -93 -33 -127q-24 -24 -79 -24h-180q-62 0 -85 23
q-18 18 -24 44.5t-7 94.5h68q2 -76 15 -89q11 -11 46 -11h150q32 0 44 12q15 15 15 73q0 55 -13 68q-10 10 -51 15l-154 16q-66 7 -86 27q-15 15 -21 39.5t-6 75.5zM227 606l-118 119v5h60l101 -72l101 72h58v-5l-118 -119h-84z" />
    <glyph glyph-name="Tcommaaccent" unicode="&#x162;" horiz-adv-x="698" 
d="M305 -70h89v-91q0 -33 -20 -56l-72 -85l-25 20l58 85q7 10 7 25v7h-37v95zM387 67h103v-67h-282v67h103v566h-183v-156h-74v223h590v-223h-74v156h-183v-566z" />
    <glyph glyph-name="tcommaaccent" unicode="&#x163;" horiz-adv-x="382" 
d="M163 -70h89v-91q0 -33 -20 -56l-72 -85l-25 20l58 85q7 10 7 25v7h-37v95zM337 62v-47l-50 -12q-44 -7 -71 -7q-52 0 -77 25q-23 23 -23 84v366h-83v64h83v134h72v-134h150v-64h-150v-351q0 -37 11 -48q10 -10 47 -10h91z" />
    <glyph glyph-name="Tcaron" unicode="&#x164;" horiz-adv-x="698" 
d="M387 67h103v-67h-282v67h103v566h-183v-156h-74v223h590v-223h-74v156h-183v-566zM305 766l-118 119v5h60l101 -72l101 72h58v-5l-118 -119h-84z" />
    <glyph glyph-name="tcaron" unicode="&#x165;" horiz-adv-x="382" 
d="M337 62v-47l-50 -12q-44 -7 -71 -7q-52 0 -77 25q-23 23 -23 84v366h-83v64h83v134h72v-134h150v-64h-150v-351q0 -37 11 -48q10 -10 47 -10h91zM259 824v19h87v-76q0 -36 -5 -54.5t-21 -45.5l-37 -71l-28 11l23 88q3 13 3 23q0 9 -3 24z" />
    <glyph glyph-name="Umacron" unicode="&#x16a;" horiz-adv-x="767" 
d="M560 633h-102v67h273v-67h-96v-348q0 -122 -10 -172t-37 -78q-20 -20 -52.5 -27.5t-92.5 -7.5h-122q-108 0 -142 35q-28 27 -37.5 76t-9.5 174v348h-96v67h273v-67h-102v-356q0 -95 7.5 -134.5t22.5 -54.5q19 -19 98 -19h99q78 0 97 19q16 15 22.5 53t6.5 136v356z
M237 770v61h292v-61h-292z" />
    <glyph glyph-name="umacron" unicode="&#x16b;" horiz-adv-x="634" 
d="M444 0v71q-55 -45 -83.5 -58.5t-68.5 -13.5h-63q-63 0 -92 29q-28 28 -28 106v337h-86v64h158v-397q0 -43 16 -58q16 -16 61 -16h55q33 0 61 10.5t70 37.5v359h-94v64h166v-472h88v-63h-160zM159 610v61h292v-61h-292z" />
    <glyph glyph-name="Ubreve" unicode="&#x16c;" horiz-adv-x="767" 
d="M560 633h-102v67h273v-67h-96v-348q0 -122 -10 -172t-37 -78q-20 -20 -52.5 -27.5t-92.5 -7.5h-122q-108 0 -142 35q-28 27 -37.5 76t-9.5 174v348h-96v67h273v-67h-102v-356q0 -95 7.5 -134.5t22.5 -54.5q19 -19 98 -19h99q78 0 97 19q16 15 22.5 53t6.5 136v356z
M383 820q85 0 100 70h52q-4 -60 -43 -93.5t-109 -33.5t-109 33.5t-43 93.5h52q15 -70 100 -70z" />
    <glyph glyph-name="ubreve" unicode="&#x16d;" horiz-adv-x="634" 
d="M444 0v71q-55 -45 -83.5 -58.5t-68.5 -13.5h-63q-63 0 -92 29q-28 28 -28 106v337h-86v64h158v-397q0 -43 16 -58q16 -16 61 -16h55q33 0 61 10.5t70 37.5v359h-94v64h166v-472h88v-63h-160zM305 660q85 0 100 70h52q-4 -60 -43 -93.5t-109 -33.5t-109 33.5t-43 93.5h52
q15 -70 100 -70z" />
    <glyph glyph-name="Uring" unicode="&#x16e;" horiz-adv-x="767" 
d="M419 923h-72q-24 0 -33 -9q-11 -11 -11 -47q0 -34 11 -47q8 -8 33 -8h72q25 0 33 8q11 13 11 47q0 36 -11 47q-9 9 -33 9zM425 769h-84q-47 0 -66 21q-24 24 -24 77t24 78q19 20 66 20h84q47 0 66 -20q24 -25 24 -78t-24 -77q-19 -21 -66 -21zM560 633h-102v67h273v-67
h-96v-348q0 -122 -10 -172t-37 -78q-20 -20 -52.5 -27.5t-92.5 -7.5h-122q-108 0 -142 35q-28 27 -37.5 76t-9.5 174v348h-96v67h273v-67h-102v-356q0 -95 7.5 -134.5t22.5 -54.5q19 -19 98 -19h99q78 0 97 19q16 15 22.5 53t6.5 136v356z" />
    <glyph glyph-name="uring" unicode="&#x16f;" horiz-adv-x="634" 
d="M444 0v71q-55 -45 -83.5 -58.5t-68.5 -13.5h-63q-63 0 -92 29q-28 28 -28 106v337h-86v64h158v-397q0 -43 16 -58q16 -16 61 -16h55q33 0 61 10.5t70 37.5v359h-94v64h166v-472h88v-63h-160zM347 609h-84q-47 0 -66 21q-24 24 -24 77t24 78q19 20 66 20h84q47 0 66 -20
q24 -25 24 -78t-24 -77q-19 -21 -66 -21zM341 763h-72q-24 0 -33 -9q-11 -11 -11 -47q0 -34 11 -47q8 -8 33 -8h72q25 0 33 8q11 13 11 47q0 36 -11 47q-9 9 -33 9z" />
    <glyph glyph-name="Uhungarumlaut" unicode="&#x170;" horiz-adv-x="767" 
d="M560 633h-102v67h273v-67h-96v-348q0 -122 -10 -172t-37 -78q-20 -20 -52.5 -27.5t-92.5 -7.5h-122q-108 0 -142 35q-28 27 -37.5 76t-9.5 174v348h-96v67h273v-67h-102v-356q0 -95 7.5 -134.5t22.5 -54.5q19 -19 98 -19h99q78 0 97 19q16 15 22.5 53t6.5 136v356z
M255 764v5l93 113h109v-5l-138 -113h-64zM439 764v5l93 113h109v-5l-138 -113h-64z" />
    <glyph glyph-name="uhungarumlaut" unicode="&#x171;" horiz-adv-x="634" 
d="M444 0v71q-55 -45 -83.5 -58.5t-68.5 -13.5h-63q-63 0 -92 29q-28 28 -28 106v337h-86v64h158v-397q0 -43 16 -58q16 -16 61 -16h55q33 0 61 10.5t70 37.5v359h-94v64h166v-472h88v-63h-160zM361 604v5l93 113h109v-5l-138 -113h-64zM177 604v5l93 113h109v-5l-138 -113
h-64z" />
    <glyph glyph-name="Uogonek" unicode="&#x172;" horiz-adv-x="767" 
d="M560 633h-102v67h273v-67h-96v-348q0 -122 -10 -172t-37 -78q-20 -20 -52.5 -27.5t-92.5 -7.5h-31q-28 -26 -37 -41q-10 -16 -10 -48q0 -40 7 -47q8 -6 21 -6h35q14 0 21 6q7 7 7 54h55q0 -47 -4.5 -67t-15.5 -31q-15 -14 -52 -14h-60q-37 0 -52 14q-20 19 -20 75
q0 41 14 63q9 16 39 42h-39q-108 0 -142 35q-28 27 -37.5 76t-9.5 174v348h-96v67h273v-67h-102v-356q0 -95 7.5 -134.5t22.5 -54.5q19 -19 98 -19h99q78 0 97 19q16 15 22.5 53t6.5 136v356z" />
    <glyph glyph-name="uogonek" unicode="&#x173;" horiz-adv-x="634" 
d="M538 -82h55q0 -47 -4.5 -67t-15.5 -31q-15 -14 -52 -14h-60q-37 0 -52 14q-20 19 -20 75q0 41 14 63q10 17 41 43v70q-55 -45 -83.5 -58.5t-68.5 -13.5h-63q-63 0 -92 29q-28 28 -28 106v337h-86v64h158v-397q0 -43 16 -58q16 -16 61 -16h55q33 0 61 10.5t70 37.5v359
h-94v64h166v-472h88v-63h-110q-28 -26 -37 -41q-10 -16 -10 -48q0 -40 7 -47q8 -6 21 -6h35q14 0 21 6q7 7 7 54z" />
    <glyph glyph-name="Wcircumflex" unicode="&#x174;" horiz-adv-x="1039" 
d="M547 703q21 0 30 -6.5t13 -24.5l138 -598h16l114 559h-96v67h250v-67h-84l-132 -606q-4 -18 -13 -24t-30 -6h-46q-21 0 -30 6.5t-13 24.5l-137 597h-15l-136 -597q-4 -18 -13.5 -24.5t-29.5 -6.5h-48q-21 0 -30 6t-13 24l-131 606h-84v67h257v-67h-96l113 -559h16
l138 598q4 18 13 24.5t30 6.5h49zM621 766l-101 72l-101 -72h-58v5l118 119h84l118 -119v-5h-60z" />
    <glyph glyph-name="wcircumflex" unicode="&#x175;" horiz-adv-x="849" 
d="M448 536q15 0 22 -5.5t11 -20.5l110 -438h12l89 399h-79v64h216v-64h-71l-108 -448q-4 -16 -10.5 -21t-21.5 -5h-47q-15 0 -21.5 5.5t-10.5 20.5l-109 429h-11l-109 -429q-4 -15 -10.5 -20.5t-21.5 -5.5h-46q-15 0 -21.5 5t-10.5 21l-109 448h-71v64h221v-64h-79l89 -399
h12l111 438q5 26 32 26h42zM524 606l-101 72l-101 -72h-58v5l118 119h84l118 -119v-5h-60z" />
    <glyph glyph-name="Ycircumflex" unicode="&#x176;" horiz-adv-x="699" 
d="M311 294l-209 339h-88v67h268v-65h-93l160 -274h7l165 274h-94v65h258v-67h-87l-212 -337v-229h103v-67h-281v67h103v227zM453 766l-101 72l-101 -72h-58v5l118 119h84l118 -119v-5h-60z" />
    <glyph glyph-name="ycircumflex" unicode="&#x177;" horiz-adv-x="612" 
d="M168 471l140 -375h6l135 375h-78v64h223v-64h-71l-209 -563q-13 -34 -32 -47t-55 -13t-106 7v59h101q22 0 31 23l22 61l-187 473h-71v64h229v-64h-78zM411 606l-101 72l-101 -72h-58v5l118 119h84l118 -119v-5h-60z" />
    <glyph glyph-name="Ydieresis" unicode="&#x178;" horiz-adv-x="699" 
d="M311 294l-209 339h-88v67h268v-65h-93l160 -274h7l165 274h-94v65h258v-67h-87l-212 -337v-229h103v-67h-281v67h103v227zM219 789v95h83v-95h-83zM404 789v95h83v-95h-83z" />
    <glyph glyph-name="Zacute" unicode="&#x179;" horiz-adv-x="659" 
d="M280 764v5l93 113h116v-5l-142 -113h-67zM166 65h355v150h74v-215h-530v51l433 584h-339v-145h-74v210h515v-51z" />
    <glyph glyph-name="zacute" unicode="&#x17a;" horiz-adv-x="557" 
d="M224 604v5l93 113h116v-5l-142 -113h-67zM145 62h286v118h67v-180h-447v50l354 423h-271v-115h-67v177h433v-50z" />
    <glyph glyph-name="Zdotaccent" unicode="&#x17b;" horiz-adv-x="659" 
d="M166 65h355v150h74v-215h-530v51l433 584h-339v-145h-74v210h515v-51zM290 788v96h86v-96h-86z" />
    <glyph glyph-name="zdotaccent" unicode="&#x17c;" horiz-adv-x="557" 
d="M145 62h286v118h67v-180h-447v50l354 423h-271v-115h-67v177h433v-50zM234 628v96h86v-96h-86z" />
    <glyph glyph-name="Zcaron" unicode="&#x17d;" horiz-adv-x="659" 
d="M166 65h355v150h74v-215h-530v51l433 584h-339v-145h-74v210h515v-51zM290 766l-118 119v5h60l101 -72l101 72h58v-5l-118 -119h-84z" />
    <glyph glyph-name="zcaron" unicode="&#x17e;" horiz-adv-x="557" 
d="M145 62h286v118h67v-180h-447v50l354 423h-271v-115h-67v177h433v-50zM234 606l-118 119v5h60l101 -72l101 72h58v-5l-118 -119h-84z" />
    <glyph glyph-name="Aringacute" unicode="&#x1fa;" horiz-adv-x="742" 
d="M283 0h-260v67h84l191 597q-23 4 -36 19q-24 24 -24 77t24 78q19 20 66 20h84q47 0 66 -20q24 -25 24 -78t-24 -77q-12 -14 -35 -18l192 -598h84v-67h-267v67h101l-53 168q-25 0 -129 -0.5t-137 -0.5l-52 -167h101v-67zM358 635l-104 -336h227l-104 336h-19zM406 816h-72
q-24 0 -33 -9q-11 -11 -11 -47q0 -34 11 -47q8 -8 33 -8h72q25 0 33 8q11 13 11 47q0 36 -11 47q-9 9 -33 9zM322 911v5l93 113h116v-5l-142 -113h-67z" />
    <glyph glyph-name="aringacute" unicode="&#x1fb;" horiz-adv-x="590" 
d="M405 381q0 64 -14 78q-13 13 -56 13h-96q-47 0 -62 -15q-18 -18 -19 -82h-72q2 98 34 131q29 29 98 29h130q73 0 100 -28q18 -17 23.5 -42.5t5.5 -79.5v-322h86v-63h-158v68q-52 -42 -80.5 -55.5t-67.5 -13.5h-63q-70 0 -100 30q-32 32 -32 118q0 90 33 123q36 36 153 36
q86 0 157 -12v87zM268 62q36 0 64 10t73 38v140h-160q-73 0 -92 -19q-18 -19 -18 -74q0 -64 16 -80q16 -15 59 -15h58zM331 609h-84q-47 0 -66 21q-24 24 -24 77t24 78q19 20 66 20h84q47 0 66 -20q24 -25 24 -78t-24 -77q-19 -21 -66 -21zM325 763h-72q-24 0 -33 -9
q-11 -11 -11 -47q0 -34 11 -47q8 -8 33 -8h72q25 0 33 8q11 13 11 47q0 36 -11 47q-9 9 -33 9zM240 864v5l93 113h116v-5l-142 -113h-67z" />
    <glyph glyph-name="AEacute" unicode="&#x1fc;" horiz-adv-x="1022" 
d="M408 65h98v170h-238l-97 -170h98v-65h-256v67h81l324 566h-115v67h643v-205h-74v138h-291v-237h220v-65h-220v-264h297v151h73v-218h-543v65zM506 636h-10l-192 -337h202v337zM566 764v5l93 113h116v-5l-142 -113h-67z" />
    <glyph glyph-name="aeacute" unicode="&#x1fd;" horiz-adv-x="898" 
d="M94 29q-32 32 -32 117q0 91 33 122q37 37 153 37q80 0 157 -13v89q0 64 -14 78q-13 13 -56 13h-96q-47 0 -62 -15q-18 -18 -19 -82h-72q2 98 34 131q29 29 98 29h118q74 0 101 -28q1 -2 3.5 -4.5t4.5 -5t4 -5.5q3 5 11 13q30 30 108 30h108q79 0 108 -29
q27 -27 36.5 -73.5t9.5 -159.5v-18q0 -12 -12 -12h-341q1 -87 6.5 -119t17.5 -44q15 -16 64 -16h117q42 0 59 16q16 17 18 84h71q-1 -60 -9 -88t-28 -48q-28 -28 -97 -28h-136q-79 0 -109 30q-21 20 -31 50q-61 -51 -90.5 -66t-72.5 -15h-63q-70 0 -100 30zM412 115
q-7 43 -7 133h-160q-73 0 -92 -19q-18 -18 -18 -73q0 -63 16 -79q16 -15 59 -15h58q37 0 66.5 11t77.5 42zM499 455q-21 -22 -22 -153h280q0 129 -24 153q-15 16 -64 16h-105q-49 0 -65 -16zM390 604v5l93 113h116v-5l-142 -113h-67z" />
    <glyph glyph-name="Oslashacute" unicode="&#x1fe;" horiz-adv-x="700" 
d="M238 700h224h18l25 53h71l-31 -66q8 -4 21 -15q27 -27 37.5 -90t10.5 -232t-10.5 -232t-37.5 -90q-28 -28 -104 -28h-224h-19l-25 -53h-71l31 66q-10 5 -20 15q-28 27 -38 89t-10 233t10 233t38 89q28 28 104 28zM166 350q0 -149 5.5 -200.5t18.5 -65.5v-1l1 -1l257 548
h-197q-47 0 -61 -14q-13 -14 -18.5 -65.5t-5.5 -200.5zM509 616q-1 0 -1 0.5t-1 0.5l-256 -547h197q47 0 61 14q13 13 18.5 64t5.5 202t-5.5 202t-18.5 64zM296 764v5l93 113h116v-5l-142 -113h-67z" />
    <glyph glyph-name="oslashacute" unicode="&#x1ff;" horiz-adv-x="584" 
d="M225 0q-31 0 -43 2l-28 -52h-68l39 71l-9 9q-26 26 -35.5 73t-9.5 165q0 117 9.5 164t35.5 73q30 30 109 30h134q28 0 40 -2l30 57h68l-41 -75l12 -10q26 -26 35.5 -73t9.5 -164q0 -118 -9.5 -165t-35.5 -73q-30 -30 -109 -30h-134zM440 268q0 97 -5 133.5t-17 49.5
l-203 -386h18h118q49 0 65 16q13 13 18.5 49t5.5 138zM144 268q0 -96 4.5 -133t15.5 -50l202 385h-15h-118q-49 0 -65 -16q-13 -13 -18.5 -49t-5.5 -137zM239 604v5l93 113h116v-5l-142 -113h-67z" />
    <glyph glyph-name="Scommaaccent" unicode="&#x218;" horiz-adv-x="667" 
d="M289 -70h89v-91q0 -33 -20 -56l-72 -85l-25 20l58 85q7 10 7 25v7h-37v95zM587 193q0 -69 -9 -104.5t-32 -57.5q-31 -31 -102 -31h-226q-74 0 -102 29q-21 21 -29 56t-9 126h77q1 -69 5 -93t14 -34q13 -14 56 -14h202q44 0 59 15q18 18 18 107q0 49 -3.5 67.5t-14.5 28.5
q-13 14 -62 19l-206 20q-77 7 -103 34q-19 18 -26 50t-7 99q0 65 9 101t32 58q31 31 101 31h204q75 0 103 -29q21 -21 29 -55t9 -122h-77q-1 66 -5 89t-14 33q-13 14 -56 14h-181q-43 0 -58 -15q-18 -17 -18 -104q0 -46 3.5 -64t14.5 -29q12 -13 62 -18l206 -20
q76 -7 102 -33q19 -19 26.5 -52t7.5 -102z" />
    <glyph glyph-name="scommaaccent" unicode="&#x219;" horiz-adv-x="541" 
d="M227 -70h89v-91q0 -33 -20 -56l-72 -85l-25 20l58 85q7 10 7 25v7h-37v95zM72 388q0 90 33 123q24 24 79 24h169q59 0 82 -23q17 -17 23.5 -44t7.5 -91h-68q-2 70 -16 84q-12 12 -45 12h-137q-31 0 -42 -11q-16 -16 -16 -70q0 -53 11 -65q13 -12 53 -15l156 -17
q66 -7 85 -26q26 -26 26 -118q0 -93 -33 -127q-24 -24 -79 -24h-180q-62 0 -85 23q-18 18 -24 44.5t-7 94.5h68q2 -76 15 -89q11 -11 46 -11h150q32 0 44 12q15 15 15 73q0 55 -13 68q-10 10 -51 15l-154 16q-66 7 -86 27q-15 15 -21 39.5t-6 75.5z" />
    <glyph glyph-name="schwa" unicode="&#x259;" horiz-adv-x="565" 
d="M71 282q0 12 12 12h341q-1 86 -6.5 117.5t-17.5 43.5q-15 16 -64 16h-117q-42 0 -59 -16q-16 -17 -18 -84h-71q1 60 9 88t28 48q28 28 97 28h138q79 0 109 -30q26 -26 35.5 -73t9.5 -165q0 -117 -9.5 -164t-35.5 -73q-30 -30 -109 -30h-118q-79 0 -108 29
q-27 27 -36.5 74.5t-9.5 160.5v18zM401 80q22 24 23 154h-280q0 -130 24 -154q15 -16 64 -16h104q48 0 65 16z" />
    <glyph glyph-name="circumflex" unicode="&#x2c6;" 
d="M350 606l-101 72l-101 -72h-58v5l118 119h84l118 -119v-5h-60z" />
    <glyph glyph-name="caron" unicode="&#x2c7;" 
d="M208 606l-118 119v5h60l101 -72l101 72h58v-5l-118 -119h-84z" />
    <glyph glyph-name="breve" unicode="&#x2d8;" 
d="M250 660q85 0 100 70h52q-4 -60 -43 -93.5t-109 -33.5t-109 33.5t-43 93.5h52q15 -70 100 -70z" />
    <glyph glyph-name="dotaccent" unicode="&#x2d9;" 
d="M207 628v96h86v-96h-86z" />
    <glyph glyph-name="ring" unicode="&#x2da;" 
d="M286 763h-72q-24 0 -33 -9q-11 -11 -11 -47q0 -34 11 -47q8 -8 33 -8h72q25 0 33 8q11 13 11 47q0 36 -11 47q-9 9 -33 9zM292 609h-84q-46 0 -66 21q-24 24 -24 77t24 78q19 20 66 20h84q47 0 66 -20q24 -25 24 -78t-24 -77q-20 -21 -66 -21z" />
    <glyph glyph-name="ogonek" unicode="&#x2db;" 
d="M298 -82h55q0 -47 -4.5 -67t-15.5 -31q-15 -14 -52 -14h-60q-37 0 -52 14q-20 19 -20 75q0 41 14 63q16 26 77 72l23 -22q-35 -31 -46 -49q-10 -16 -10 -48q0 -40 7 -47q8 -6 21 -6h35q14 0 21 6q7 7 7 54z" />
    <glyph glyph-name="tilde" unicode="&#x2dc;" 
d="M104 613v66q0 29 10 40q9 11 31 11h12q20 0 61 -15l118 -46l21 60h39v-66q0 -29 -10 -40q-9 -11 -31 -11h-12q-20 0 -61 15l-118 46l-21 -60h-39z" />
    <glyph glyph-name="hungarumlaut" unicode="&#x2dd;" 
d="M54 604v5l93 113h109v-5l-138 -113h-64zM238 604v5l93 113h109v-5l-138 -113h-64z" />
    <glyph glyph-name="commaaccent" unicode="&#x326;" 
d="M214 -70h89v-91q0 -33 -20 -56l-72 -85l-25 20l58 85q7 10 7 25v7h-37v95z" />
    <glyph glyph-name="Wgrave" unicode="&#x1e80;" horiz-adv-x="1039" 
d="M547 703q21 0 30 -6.5t13 -24.5l138 -598h16l114 559h-96v67h250v-67h-84l-132 -606q-4 -18 -13 -24t-30 -6h-46q-21 0 -30 6.5t-13 24.5l-137 597h-15l-136 -597q-4 -18 -13.5 -24.5t-29.5 -6.5h-48q-21 0 -30 6t-13 24l-131 606h-84v67h257v-67h-96l113 -559h16
l138 598q4 18 13 24.5t30 6.5h49zM574 764h-67l-142 113v5h116l93 -113v-5z" />
    <glyph glyph-name="wgrave" unicode="&#x1e81;" horiz-adv-x="849" 
d="M448 536q15 0 22 -5.5t11 -20.5l110 -438h12l89 399h-79v64h216v-64h-71l-108 -448q-4 -16 -10.5 -21t-21.5 -5h-47q-15 0 -21.5 5.5t-10.5 20.5l-109 429h-11l-109 -429q-4 -15 -10.5 -20.5t-21.5 -5.5h-46q-15 0 -21.5 5t-10.5 21l-109 448h-71v64h221v-64h-79l89 -399
h12l111 438q5 26 32 26h42zM477 604h-67l-142 113v5h116l93 -113v-5z" />
    <glyph glyph-name="Wacute" unicode="&#x1e82;" horiz-adv-x="1039" 
d="M468 764v5l93 113h116v-5l-142 -113h-67zM547 703q21 0 30 -6.5t13 -24.5l138 -598h16l114 559h-96v67h250v-67h-84l-132 -606q-4 -18 -13 -24t-30 -6h-46q-21 0 -30 6.5t-13 24.5l-137 597h-15l-136 -597q-4 -18 -13.5 -24.5t-29.5 -6.5h-48q-21 0 -30 6t-13 24
l-131 606h-84v67h257v-67h-96l113 -559h16l138 598q4 18 13 24.5t30 6.5h49z" />
    <glyph glyph-name="wacute" unicode="&#x1e83;" horiz-adv-x="849" 
d="M371 604v5l93 113h116v-5l-142 -113h-67zM448 536q15 0 22 -5.5t11 -20.5l110 -438h12l89 399h-79v64h216v-64h-71l-108 -448q-4 -16 -10.5 -21t-21.5 -5h-47q-15 0 -21.5 5.5t-10.5 20.5l-109 429h-11l-109 -429q-4 -15 -10.5 -20.5t-21.5 -5.5h-46q-15 0 -21.5 5
t-10.5 21l-109 448h-71v64h221v-64h-79l89 -399h12l111 438q5 26 32 26h42z" />
    <glyph glyph-name="Wdieresis" unicode="&#x1e84;" horiz-adv-x="1039" 
d="M387 789v95h83v-95h-83zM572 789v95h83v-95h-83zM547 703q21 0 30 -6.5t13 -24.5l138 -598h16l114 559h-96v67h250v-67h-84l-132 -606q-4 -18 -13 -24t-30 -6h-46q-21 0 -30 6.5t-13 24.5l-137 597h-15l-136 -597q-4 -18 -13.5 -24.5t-29.5 -6.5h-48q-21 0 -30 6t-13 24
l-131 606h-84v67h257v-67h-96l113 -559h16l138 598q4 18 13 24.5t30 6.5h49z" />
    <glyph glyph-name="wdieresis" unicode="&#x1e85;" horiz-adv-x="849" 
d="M290 629v95h83v-95h-83zM475 629v95h83v-95h-83zM448 536q15 0 22 -5.5t11 -20.5l110 -438h12l89 399h-79v64h216v-64h-71l-108 -448q-4 -16 -10.5 -21t-21.5 -5h-47q-15 0 -21.5 5.5t-10.5 20.5l-109 429h-11l-109 -429q-4 -15 -10.5 -20.5t-21.5 -5.5h-46
q-15 0 -21.5 5t-10.5 21l-109 448h-71v64h221v-64h-79l89 -399h12l111 438q5 26 32 26h42z" />
    <glyph glyph-name="Ygrave" unicode="&#x1ef2;" horiz-adv-x="699" 
d="M311 294l-209 339h-88v67h268v-65h-93l160 -274h7l165 274h-94v65h258v-67h-87l-212 -337v-229h103v-67h-281v67h103v227zM406 764h-67l-142 113v5h116l93 -113v-5z" />
    <glyph glyph-name="ygrave" unicode="&#x1ef3;" horiz-adv-x="618" 
d="M168 471l140 -375h6l135 375h-78v64h223v-64h-71l-209 -563q-13 -34 -32 -47t-55 -13t-106 7v59h101q22 0 31 23l22 61l-187 473h-71v64h229v-64h-78zM364 604h-67l-142 113v5h116l93 -113v-5z" />
    <glyph glyph-name="enspace" unicode="&#x2002;" 
 />
    <glyph glyph-name="emspace" unicode="&#x2003;" horiz-adv-x="1000" 
 />
    <glyph glyph-name="threeperemspace" unicode="&#x2004;" horiz-adv-x="333" 
 />
    <glyph glyph-name="fourperemspace" unicode="&#x2005;" horiz-adv-x="250" 
 />
    <glyph glyph-name="thinspace" unicode="&#x2009;" horiz-adv-x="133" 
 />
    <glyph glyph-name="hairspace" unicode="&#x200a;" horiz-adv-x="75" 
 />
    <glyph glyph-name="endash" unicode="&#x2013;" horiz-adv-x="547" 
d="M482 282h-416v72h416v-72z" />
    <glyph glyph-name="emdash" unicode="&#x2014;" horiz-adv-x="987" 
d="M922 283h-856v70h856v-70z" />
    <glyph glyph-name="quoteleft" unicode="&#x2018;" horiz-adv-x="213" 
d="M152 451h-99v101q0 36 22 62l84 99l28 -22l-68 -99q-8 -13 -8 -28v-8h41v-105z" />
    <glyph glyph-name="quoteright" unicode="&#x2019;" horiz-adv-x="213" 
d="M61 700h99v-101q0 -36 -22 -62l-84 -99l-28 22l68 99q8 11 8 28v8h-41v105z" />
    <glyph glyph-name="quotesinglbase" unicode="&#x201a;" horiz-adv-x="221" 
d="M65 105h99v-101q0 -36 -22 -62l-84 -98l-28 22l68 98q8 13 8 28v8h-41v105z" />
    <glyph glyph-name="quotedblleft" unicode="&#x201c;" horiz-adv-x="393" 
d="M152 451h-99v101q0 36 22 62l84 99l28 -22l-68 -99q-8 -13 -8 -28v-8h41v-105zM332 451h-99v101q0 36 22 62l83 99l28 -22l-68 -99q-7 -11 -7 -28v-8h41v-105z" />
    <glyph glyph-name="quotedblright" unicode="&#x201d;" horiz-adv-x="393" 
d="M240 700h99v-101q0 -37 -22 -62l-83 -99l-28 22l68 99q7 10 7 28v8h-41v105zM61 700h99v-101q0 -36 -22 -62l-84 -99l-28 22l68 99q8 11 8 28v8h-41v105z" />
    <glyph glyph-name="quotedblbase" unicode="&#x201e;" horiz-adv-x="401" 
d="M244 105h99v-101q0 -37 -22 -62l-83 -98l-28 22l68 98q7 11 7 28v8h-41v105zM65 105h99v-101q0 -36 -22 -62l-84 -98l-28 22l68 98q8 13 8 28v8h-41v105z" />
    <glyph glyph-name="dagger" unicode="&#x2020;" horiz-adv-x="480" 
d="M73 566l127 -21v-30l-127 -21v72zM406 566v-72l-127 21v30zM278 700l-20 -134h-36l-21 134h77zM276 374l-21 -257h-30l-21 257l18 120h36z" />
    <glyph glyph-name="daggerdbl" unicode="&#x2021;" horiz-adv-x="488" 
d="M78 566l127 -21v-30l-127 -21v72zM410 566v-72l-127 21v30zM283 700l-21 -134h-36l-21 134h78zM78 134v72l127 -21v-30zM410 134l-127 21v30l127 21v-72zM283 0h-78l21 134h36zM280 350l-18 -144h-36l-18 144l18 144h36z" />
    <glyph glyph-name="bullet" unicode="&#x2022;" horiz-adv-x="480" 
d="M142 251q-13 13 -18 35.5t-5 76.5t5 76.5t18 35.5q17 17 58 17h80q41 0 57 -17q13 -13 18 -35.5t5 -76.5t-5 -76.5t-18 -35.5q-16 -17 -57 -17h-80q-41 0 -58 17z" />
    <glyph glyph-name="ellipsis" unicode="&#x2026;" horiz-adv-x="625" 
d="M57 104h95v-104h-95v104zM266 104h94v-104h-94v104zM474 104h94v-104h-94v104z" />
    <glyph glyph-name="guilsinglleft" unicode="&#x2039;" horiz-adv-x="356" 
d="M56 243v49l154 160h86l-171 -184l172 -184h-87z" />
    <glyph glyph-name="guilsinglright" unicode="&#x203a;" horiz-adv-x="356" 
d="M298 243l-154 -159h-85l171 183l-172 185h86l154 -160v-49z" />
    <glyph glyph-name="fraction" unicode="&#x2044;" horiz-adv-x="566" 
d="M74 -3h-64l253 369l229 337h64l-253 -367z" />
    <glyph glyph-name="Euro" unicode="&#x20ac;" horiz-adv-x="702" 
d="M418 413h-222v-63v-57h222v-66h-221q3 -124 23 -144q15 -15 61 -15h184q46 0 60 16q11 11 16 40.5t7 104.5h76q-2 -95 -11 -136t-33 -66q-28 -27 -107 -27h-203q-76 0 -104 28q-22 22 -32.5 63t-14.5 136h-71v66h70v57v20.5v23.5v19h-70v66h72q4 92 14 131.5t32 61.5
q28 28 104 28h204q79 0 106 -27q24 -24 32.5 -63t10.5 -128h-75q-3 115 -23 135q-15 15 -60 15h-184q-46 0 -61 -15q-20 -20 -23 -138h221v-66z" />
    <glyph glyph-name="published" unicode="&#x2117;" horiz-adv-x="789" 
d="M346 361h109q26 0 33 7q12 12 12 66q0 56 -12 68q-8 7 -33 7h-109v-148zM546 436q0 -73 -23 -98q-16 -16 -57 -16h-120v-119h56v-40h-153v40h54v306h-54v39h217q41 0 57 -16q23 -25 23 -96zM155 52q-66 68 -66 298t66 298q26 27 61.5 39.5t106.5 12.5h142q71 0 107 -12.5
t62 -39.5q65 -67 65 -298t-65 -298q-26 -27 -62 -39.5t-107 -12.5h-142q-71 0 -106.5 12.5t-61.5 39.5zM117 350q0 -221 59 -280q23 -24 54.5 -34.5t97.5 -10.5h133q66 0 97.5 10t53.5 34q60 62 60 281q0 220 -60 280q-23 24 -54.5 34.5t-96.5 10.5h-133q-66 0 -98 -10
t-54 -34q-59 -61 -59 -281z" />
    <glyph glyph-name="servicemark" unicode="&#x2120;" horiz-adv-x="945" 
d="M336 421q0 -65 -22 -88q-18 -18 -57 -18h-123q-41 0 -56 16q-12 12 -16.5 31t-5.5 69h46q1 -58 10 -68q7 -7 31 -7h105q25 0 32 8q10 10 10 57q0 40 -9 50q-8 8 -34 11l-110 12q-43 4 -58 18q-18 18 -18 83q0 64 22 87q18 18 57 18h112q40 0 56 -16q12 -12 16 -30.5
t5 -66.5h-46q0 52 -11 65q-7 7 -30 7h-94q-23 0 -31 -8q-9 -9 -9 -55q0 -41 9 -49q7 -7 34 -11l110 -11q41 -6 57 -19q18 -19 18 -85zM399 315v39h53v307h-53v39h123q11 0 15 -3.5t7 -13.5l99 -318h6l98 318q3 10 7 13.5t15 3.5h121v-39h-53v-307h53v-39h-143v39h44v302h-7
l-105 -324q-3 -10 -7 -13.5t-15 -3.5h-27q-10 0 -14 3t-7 14l-105 324h-8v-302h45v-39h-142z" />
    <glyph glyph-name="trademark" unicode="&#x2122;" horiz-adv-x="996" 
d="M248 354h55v-39h-158v39h57v307h-96v-84h-44v123h325v-123h-44v84h-95v-307zM450 354h53v307h-53v39h123q11 0 15 -3.5t7 -13.5l98 -318h7l98 318q3 10 7 13.5t15 3.5h120v-39h-52v-307h52v-39h-143v39h45v302h-7l-105 -324q-3 -10 -7 -13.5t-15 -3.5h-27q-11 0 -15 3.5
t-7 13.5l-105 324h-7v-302h45v-39h-142v39z" />
    <glyph glyph-name="minus" unicode="&#x2212;" horiz-adv-x="514" 
d="M62 330v66h390v-66h-390z" />
    <glyph glyph-name="aring.alt" horiz-adv-x="590" 
d="M405 381q0 64 -14 78q-13 13 -56 13h-96q-47 0 -62 -15q-18 -18 -19 -82h-72q2 98 34 131q19 19 48 25q-11 19 -11 62q0 53 24 78q19 20 66 20h84q47 0 66 -20q24 -25 24 -78q0 -42 -13 -64q23 -5 40 -22q18 -17 23.5 -42.5t5.5 -79.5v-322h86v-63h-158v68
q-52 -42 -80.5 -55.5t-67.5 -13.5h-63q-70 0 -100 30q-32 32 -32 118q0 90 33 123q36 36 153 36q86 0 157 -12v87zM268 62q36 0 64 10t73 38v140h-160q-73 0 -92 -19q-18 -19 -18 -74q0 -64 16 -80q16 -15 59 -15h58zM325 649h-72q-24 0 -33 -9q-11 -11 -11 -47
q0 -34 11 -47q8 -8 33 -8h72q25 0 33 8q11 13 11 47q0 36 -11 47q-9 9 -33 9z" />
    <glyph glyph-name="aringacute.alt" horiz-adv-x="590" 
d="M405 381q0 64 -14 78q-13 13 -56 13h-96q-47 0 -62 -15q-18 -18 -19 -82h-72q2 98 34 131q19 19 48 25q-11 19 -11 62q0 53 24 78q19 20 66 20h84q47 0 66 -20q24 -25 24 -78q0 -42 -13 -64q23 -5 40 -22q18 -17 23.5 -42.5t5.5 -79.5v-322h86v-63h-158v68
q-52 -42 -80.5 -55.5t-67.5 -13.5h-63q-70 0 -100 30q-32 32 -32 118q0 90 33 123q36 36 153 36q86 0 157 -12v87zM268 62q36 0 64 10t73 38v140h-160q-73 0 -92 -19q-18 -19 -18 -74q0 -64 16 -80q16 -15 59 -15h58zM325 649h-72q-24 0 -33 -9q-11 -11 -11 -47
q0 -34 11 -47q8 -8 33 -8h72q25 0 33 8q11 13 11 47q0 36 -11 47q-9 9 -33 9zM240 749v5l93 113h116v-5l-142 -113h-67z" />
    <glyph glyph-name="registered.alt" horiz-adv-x="789" 
d="M526 268q1 -34 3 -65h52v-40h-60q-20 0 -28 8q-11 11 -13 96q-1 42 -13 54q-13 13 -42 13h-96v-132h54v-39h-151v39h53v307h-53v39h218q40 0 57 -18q22 -22 22 -88q0 -43 -12 -64t-43 -26v-1q29 -7 40 -23.5t12 -59.5zM329 371h107q25 0 34 8q12 12 12 61q0 51 -12 61
q-8 8 -33 8h-108v-138zM155 52q-66 68 -66 298t66 298q26 27 61.5 39.5t106.5 12.5h142q71 0 107 -12.5t62 -39.5q65 -67 65 -298t-65 -298q-26 -27 -62 -39.5t-107 -12.5h-142q-71 0 -106.5 12.5t-61.5 39.5zM117 350q0 -221 59 -280q23 -24 54.5 -34.5t97.5 -10.5h133
q66 0 97.5 10t53.5 34q60 62 60 281q0 220 -60 280q-23 24 -54.5 34.5t-96.5 10.5h-133q-66 0 -98 -10t-54 -34q-59 -61 -59 -281z" />
    <glyph glyph-name="hfjslug" horiz-adv-x="694" 
d="M644 -200h-208l-8 14h-163l-8 -14h-207v303q14 0 23 9.5t9 22.5t-9.5 22.5t-22.5 9.5v554h100l30 79h334l29 -79h101v-921zM400 563v-172h15v78h38v14h-38v66h43v14h-58zM184 563v-172h15v79h47v-79h15v172h-15v-79h-47v79h-15zM460 394q10 -4 21 -4q31 0 31 36v137h-16
v-137q0 -22 -16 -22q-8 0 -20 5v-15zM371 465l-13 3q-4 -18 -8 -30h-1l-16 31q23 21 23 42q0 31 -27 31q-12 0 -20 -9t-8 -22t14 -39q-23 -18 -23 -47q0 -16 8 -26.5t21 -10.5q19 0 29 24h1l12 -24l12 6l-17 32q6 14 13 39zM523 323v-46h8v12l8 8l15 -20h10l-20 26l18 20
h-10l-20 -24h-1v24h-8zM488 292l10 -15h9l-12 17q10 4 10 14q0 15 -17 15h-20v-46h8v15h12zM426 276q10 0 17 7t7 17q0 9 -7 16.5t-17 7.5t-17 -7.5t-7 -16.5q0 -10 7 -17t17 -7zM370 301l-13 22h-9l18 -29v-17h8v17l18 29h-9zM193 323v-46h34v7h-26v13h23v7h-23v12h26v7
h-34zM132 323v-46h8v32l25 -32h7v46h-8v-32l-25 32h-7zM241 323l14 -47h8l11 34h1l11 -34h8l14 47h-8l-10 -35h-1l-11 35h-7l-11 -35h-1l-10 35h-8zM327 479q-12 22 -12 32q0 19 14 19q13 0 13 -19q0 -15 -15 -32zM342 423q-8 -21 -20 -21q-16 0 -16 25q0 19 16 35zM487 299
h-11v17h11q10 0 10 -8q0 -9 -10 -9zM426 283q-16 0 -16 17q0 6 4.5 11.5t11.5 5.5t11.5 -5.5t4.5 -11.5q0 -17 -16 -17z" />
    <glyph glyph-name="caron.alt" 
d="M209 701v19h87v-76q0 -36 -5 -54.5t-21 -45.5l-37 -71l-28 11l23 88q3 14 3 23t-3 24z" />
    <glyph glyph-name="NUL" horiz-adv-x="0" 
 />
    <glyph glyph-name="wiredslug" horiz-adv-x="900" 
d="M800 0h-700v700h700v-700zM300 200v400h-100v-400h100zM500 200v400h-100v-400h100zM700 200v400h-100v-400h100zM400 100v100h-100v-100h100zM600 100v100h-100v-100h100z" />
    </font>
</defs>
</svg>
